<svg width="130" height="158" viewBox="0 0 130 158" fill="none" xmlns="http://www.w3.org/2000/svg">
<g clip-path="url(#clip0)">
<path d="M101.871 5.9142H91.088L102.304 16.3336V21.2889H79.1964V15.4857H90.4127L79.1964 5.06633V0.104736H101.878L101.871 5.9142ZM74.6086 5.9142H63.8107L75.0417 16.3336V21.2889H51.9265V15.4857H63.1428L51.9265 5.06633V0.104736H74.6086V5.9142ZM47.6103 6.15286H35.9756V15.247H47.6103V21.2951H27.6956V0.104736H47.6103V6.15286Z" fill="#131313"/>
<path d="M11.8329 144.5L0 30.967H130L118.152 144.481L64.9193 157.105L11.8329 144.5Z" fill="#1572B6"/>
<path d="M65 147.458L108.015 137.252L118.13 40.2495H65V147.458Z" fill="#33A9DC"/>
<path d="M65 81.3809H86.537L88.0198 67.1241H65V53.2065H105.813L105.424 56.9434L101.423 95.3173H65V81.3809Z" fill="white"/>
<path d="M65.0881 117.544H65.0147L46.8911 113.355L45.7313 102.251H29.406L31.6889 124.113L65.0294 132.052H65.1248V117.544H65.0881Z" fill="#EBEBEB"/>
<path d="M85.1571 94.7079L83.1972 113.342L65.0442 117.531V132.039L98.4067 124.126L98.6489 121.771L101.482 94.7017H85.1571V94.7079Z" fill="white"/>
<path d="M65.0586 53.2065V67.1304H25.7576L25.42 64.0027L24.6786 56.9434L24.2896 53.2065H65.0586ZM64.9999 81.3809V95.3047H47.0818L46.7661 92.1771L46.0247 85.1178L45.6357 81.3809H64.9925H64.9999Z" fill="#EBEBEB"/>
</g>
<defs>
<clipPath id="clip0">
<rect width="130" height="157" fill="white" transform="translate(0 0.104736)"/>
</clipPath>
</defs>
</svg>
