<svg width="82" height="158" viewBox="0 0 82 158" fill="none" xmlns="http://www.w3.org/2000/svg">
<g clip-path="url(#clip0)">
<path d="M63.1769 152.915L64.9149 127.831L69.7137 120.735C69.7137 120.735 58.7916 124.605 40.5062 124.605C22.2205 124.605 11.464 120.807 11.464 120.807L16.8421 128.547L18.7447 152.915C18.7447 155.527 28.691 157.645 40.9609 157.645C53.2303 157.645 63.1769 155.527 63.1769 152.915V152.915ZM57.6947 35.7763L61.3426 23.287L81.5436 4.87532L76.2193 0.947266L54.8324 20.5603L50.597 35.4817C47.4092 35.3892 44.2199 35.3432 41.0304 35.3439C18.5061 35.3439 0.246338 37.5674 0.246338 40.3096C0.246338 43.0521 18.5061 45.2754 41.0304 45.2754C63.5545 45.2754 81.8139 43.0521 81.8139 40.3096C81.8139 38.2902 71.9108 36.5522 57.6947 35.7763" fill="#D34A47"/>
<path d="M55.5728 42.7707C55.5728 42.7707 54.7828 42.9241 52.4588 42.9327C50.1342 42.941 48.4837 42.9196 47.8262 42.4009C47.6495 42.2617 47.5528 41.9851 47.5537 41.7979C47.5556 41.4415 47.8477 41.2315 48.2198 41.1L48.5718 41.5782C48.4187 41.624 48.3313 41.6781 48.3309 41.7358C48.3297 42.0065 50.7077 42.1918 52.5267 42.1718C54.346 42.1524 56.5441 42.0226 56.546 41.7557C56.546 41.675 56.3798 41.599 56.0906 41.5391L56.4409 41.0642C56.9123 41.191 57.3238 41.4359 57.3229 41.8597C57.3184 42.5804 56.2597 42.69 55.5728 42.7707" fill="white"/>
<path d="M81.5038 4.91173C82.0117 4.40356 81.2409 3.10374 79.7822 2.0089C78.3229 0.914614 76.7281 0.439176 76.2192 0.947345C75.711 1.45551 76.4821 2.75534 77.9415 3.84963C79.4001 4.94419 80.9956 5.42018 81.5038 4.91173ZM62.2052 91.6448C61.7264 87.6549 72.2806 81.8764 69.572 81.6914C63.7411 81.9801 60.8391 87.6102 57.9054 93.5069C56.8303 95.668 53.1517 104.883 50.739 103.749C48.327 102.615 53.8662 95.0369 55.4187 90.5366C53.6273 91.6745 47.0576 96.0957 45.3645 91.9552C42.6424 93.9576 36.8259 95.0425 37.4821 89.7824C36.034 92.0043 32.7838 95.1063 28.8827 93.8173C23.7595 92.125 31.8513 77.9891 33.8634 78.7023C35.8758 79.4152 33.4573 82.6353 32.8239 83.8858C31.4308 86.6377 29.8216 90.0973 30.8967 90.8054C32.7384 92.0187 37.7501 86.2155 37.8616 86.0879C38.7989 85.0153 41.4694 77.9977 43.6217 78.8035C45.774 79.6093 38.2532 88.8748 41.0652 90.7136C41.6324 91.0848 43.9528 90.4848 45.3645 89.1619C46.2778 88.3062 45.9636 86.4108 49.0081 80.1219C52.0527 73.8333 54.766 66.0017 56.854 66.5983C58.942 67.1947 57.221 71.2143 56.472 72.7127C52.957 79.7455 46.8789 91.3644 49.7453 90.4848C52.6118 89.6055 54.1044 89.5539 56.9113 86.7087C59.7182 83.8636 59.5889 79.1772 61.4597 79.2768C63.3312 79.3766 63.017 80.8792 62.5632 82.0234C64.4046 80.1982 71.2917 76.3542 72.9544 80.1613C74.9238 84.6686 63.1009 91.1791 66.0487 90.847C68.9229 90.5233 73.5791 87.9689 75.5672 85.6463L81.0395 43.0328C81.0395 43.0328 75.5329 46.98 40.5007 46.98C5.46806 46.98 0.53125 43.1149 0.53125 43.1149L5.19009 82.0109C7.66298 75.9232 13.5352 63.6095 22.7914 64.0228C27.0019 64.2109 32.6228 71.2334 27.808 71.4714C25.77 71.5718 25.5631 67.9661 23.1498 67.4366C21.4083 67.0543 18.9838 68.2806 17.4168 69.6093C14.2919 72.2584 7.57107 82.7099 8.4591 87.9206C9.5905 94.5637 19.0424 85.6122 20.6416 82.9546C21.7679 81.0825 22.5288 75.5359 24.9921 76.1179C27.4557 76.6998 24.7772 82.424 22.9916 87.4849C20.9856 93.1676 19.931 99.1622 17.4168 98.4726C14.9023 97.7836 18.9982 90.4473 18.8499 89.1619C16.4865 91.0506 12.1326 95.8322 6.56232 93.4656L9.45568 117.62C9.45568 117.62 17.1456 122.883 40.3108 122.883C63.4759 122.883 71.4505 117.702 71.4505 117.702L75.0433 89.7256C72.1038 92.2048 62.8009 96.6075 62.2052 91.6448" fill="#D34A47"/>
</g>
<defs>
<clipPath id="clip0">
<rect width="82" height="157" fill="white" transform="translate(0 0.699951)"/>
</clipPath>
</defs>
</svg>
