<svg width="130" height="157" viewBox="0 0 130 157" fill="none" xmlns="http://www.w3.org/2000/svg">
<path d="M11.8306 144.383L0 30.8582H130L118.156 144.366L64.9202 156.992L11.8306 144.383Z" fill="#E44D26"/>
<path d="M65 147.341L108.017 137.138L118.139 40.1409H65V147.341Z" fill="#F16529"/>
<path d="M65 82.2458H43.4649L41.9773 67.988H65V54.0645H24.1907L24.5807 57.7999L28.5805 96.1689H65V82.2458ZM65 118.406L64.9285 118.423L46.8036 114.235L45.6448 103.131H29.3079L31.5883 124.993L64.9256 132.911L65 132.893V118.406Z" fill="#EBEBEB"/>
<path d="M12.0952 0.00708008H20.3656V6.99769H27.931V0.00708008H36.2016V21.1766H27.931V14.0879H20.3656V21.1766H12.0958L12.0952 0.00708008ZM47.0782 7.02751H39.7976V0.00708008H62.6342V7.02751H55.3501V21.1766H47.0785V7.02751H47.0782ZM66.2579 0.00708008H74.8823L80.1871 7.4456L85.487 0.00708008H94.1143V21.1766H85.8764V10.6836L80.1863 18.2106H80.0441L74.3501 10.6836V21.1766H66.2576V0.00708008H66.2579ZM98.2297 0.00708008H106.502V14.1794H118.134V21.1766H98.2297V0.00708008Z" fill="black"/>
<path d="M64.9438 82.2458V96.1689H84.9845L83.0951 114.227L64.9438 118.418V132.903L98.3078 124.993L98.5518 122.64L102.377 85.9848L102.774 82.2458H98.3887H64.9438ZM64.9438 54.0645V67.988H104.255L104.581 64.8582L105.322 57.7999L105.712 54.0645H64.9438Z" fill="white"/>
</svg>
