<svg width="555" height="158" viewBox="0 0 555 158" fill="none" xmlns="http://www.w3.org/2000/svg">
<g clip-path="url(#clip0)">
<path d="M510.065 56.225C508.718 56.225 507.408 56.5033 506.248 57.1595L469.556 78.349C467.181 79.7176 465.738 82.3011 465.738 85.0502V127.353C465.738 130.099 467.181 132.68 469.556 134.052L479.138 139.583C483.794 141.878 485.51 141.842 487.629 141.842C494.522 141.842 498.458 137.659 498.458 130.391V88.6331C498.458 88.043 497.947 87.6207 497.368 87.6207H492.771C492.182 87.6207 491.681 88.043 491.681 88.6331V130.391C491.681 133.612 488.325 136.853 482.878 134.13L472.906 128.287C472.553 128.095 472.282 127.756 472.282 127.353V85.0492C472.282 84.6485 472.55 84.2403 472.906 84.0368L509.521 62.9262C509.686 62.8296 509.874 62.7786 510.066 62.7786C510.257 62.7786 510.445 62.8296 510.611 62.9262L547.227 84.0379C547.575 84.2479 547.85 84.6366 547.85 85.0513V127.354C547.85 127.757 547.647 128.171 547.304 128.366L510.611 149.478C510.297 149.665 509.864 149.665 509.521 149.478L500.094 143.869C499.951 143.791 499.79 143.75 499.627 143.75C499.464 143.75 499.303 143.791 499.16 143.869C496.558 145.344 496.068 145.515 493.628 146.361C493.027 146.571 492.114 146.897 493.94 147.921L506.248 155.164C507.409 155.834 508.726 156.184 510.066 156.178C511.406 156.186 512.724 155.837 513.883 155.165L550.577 134.053C552.951 132.672 554.393 130.101 554.393 127.354V85.0502C554.393 82.3022 552.951 79.7231 550.577 78.3512L513.883 57.1616C512.733 56.5044 511.414 56.2261 510.066 56.2261L510.065 56.225Z" fill="#83CD29"/>
<path d="M519.881 86.4523C509.433 86.4523 503.21 90.8992 503.21 98.2945C503.21 106.316 509.386 108.52 519.415 109.512C531.412 110.687 532.346 112.448 532.346 114.81C532.346 118.906 529.081 120.652 521.363 120.652C511.664 120.652 509.534 118.231 508.82 113.408C508.736 112.89 508.336 112.472 507.807 112.472H503.054C502.47 112.472 501.964 112.977 501.964 113.564C501.964 119.739 505.323 127.041 521.363 127.041C532.973 127.041 539.67 122.483 539.67 114.498C539.67 106.583 534.26 104.458 522.998 102.969C511.618 101.463 510.533 100.725 510.533 98.0606C510.533 95.8604 511.453 92.9175 519.881 92.9175C527.411 92.9175 530.194 94.5416 531.334 99.6187C531.433 100.095 531.853 100.475 532.346 100.475H537.099C537.392 100.475 537.675 100.295 537.878 100.085C538.077 99.8612 538.218 99.6089 538.19 99.3069C537.453 90.5647 531.624 86.4523 519.881 86.4523V86.4523Z" fill="#83CD29"/>
<path d="M294.348 0.757522C293.938 0.757794 293.535 0.864894 293.179 1.06827C292.825 1.27537 292.531 1.57111 292.326 1.92634C292.121 2.28157 292.013 2.68405 292.011 3.09412V62.6913C292.011 63.276 291.739 63.8001 291.232 64.0935C290.984 64.2382 290.702 64.3144 290.414 64.3144C290.127 64.3144 289.844 64.2382 289.596 64.0935L279.858 58.4848C279.147 58.0738 278.341 57.8574 277.521 57.8574C276.7 57.8574 275.894 58.0738 275.184 58.4848L236.309 80.9206C234.856 81.7598 233.973 83.372 233.973 85.0503V129.923C233.973 131.599 234.857 133.135 236.309 133.974L275.184 156.411C275.893 156.823 276.7 157.04 277.521 157.04C278.342 157.04 279.148 156.823 279.858 156.411L318.732 133.974C319.444 133.564 320.035 132.974 320.445 132.262C320.856 131.551 321.071 130.744 321.07 129.923V18.0524C321.069 17.212 320.845 16.3869 320.42 15.6614C319.996 14.9359 319.387 14.3359 318.655 13.9228L295.517 0.990315C295.154 0.787839 294.751 0.752108 294.348 0.757522V0.757522ZM44.2744 56.7708C43.5338 56.8 42.8365 56.93 42.1717 57.3154L3.29633 79.7523C2.58421 80.1614 1.99298 80.7516 1.58261 81.463C1.17225 82.1744 0.957354 82.9817 0.959736 83.8029L1.0377 144.025C1.0377 144.862 1.46972 145.64 2.20599 146.05C2.55898 146.262 2.96302 146.374 3.37483 146.374C3.78663 146.374 4.19068 146.262 4.54367 146.05L27.6032 132.806C29.0638 131.938 30.0177 130.429 30.0177 128.755V100.631C30.0177 98.9529 30.9002 97.4132 32.3554 96.5795L42.1706 90.8928C42.8803 90.4802 43.6874 90.2649 44.5083 90.2692C45.3095 90.2692 46.1324 90.4695 46.8449 90.8928L56.6612 96.5795C57.3739 96.9882 57.9657 97.5784 58.3764 98.2901C58.787 99.0018 59.0018 99.8095 58.9988 100.631V128.754C58.9988 130.428 59.9625 131.948 61.4134 132.805L84.4729 146.05C84.8259 146.262 85.2299 146.374 85.6418 146.374C86.0536 146.374 86.4576 146.262 86.8106 146.05C87.1659 145.844 87.4609 145.549 87.6662 145.193C87.8714 144.838 87.9796 144.434 87.98 144.024L88.0558 83.8029C88.0604 82.9812 87.8464 82.1731 87.4358 81.4613C87.0252 80.7495 86.4328 80.1597 85.7192 79.7523L46.8449 57.3154C46.1876 56.93 45.4882 56.8011 44.7422 56.7708H44.2744ZM393.598 57.3154C392.786 57.3154 391.99 57.5211 391.262 57.9391L352.387 80.376C351.676 80.7855 351.085 81.3757 350.674 82.087C350.264 82.7983 350.048 83.6054 350.05 84.4266V129.299C350.05 130.987 351 132.516 352.464 133.351L391.028 155.32C392.452 156.132 394.191 156.194 395.624 155.396L418.996 142.387C419.737 141.975 420.239 141.206 420.242 140.362C420.246 139.951 420.14 139.546 419.934 139.19C419.729 138.833 419.431 138.539 419.073 138.336L379.965 115.899C379.233 115.481 378.719 114.636 378.719 113.795V99.7736C378.719 98.9345 379.239 98.1657 379.965 97.7478L392.118 90.7358C392.473 90.5302 392.877 90.422 393.287 90.422C393.697 90.422 394.101 90.5302 394.456 90.7358L406.608 97.7478C406.964 97.9523 407.259 98.2473 407.465 98.6029C407.67 98.9584 407.778 99.362 407.777 99.7726V110.835C407.776 111.246 407.883 111.649 408.089 112.005C408.294 112.36 408.589 112.655 408.945 112.86C409.674 113.281 410.555 113.282 411.282 112.86L434.576 99.307C435.287 98.8958 435.877 98.305 436.287 97.5939C436.698 96.8828 436.914 96.0763 436.914 95.2553V84.4277C436.914 82.7548 436.026 81.2162 434.576 80.376L395.936 57.9391C395.226 57.5282 394.419 57.3133 393.598 57.3165V57.3154ZM277.364 90.8149C277.568 90.8149 277.806 90.8647 277.988 90.9697L291.31 98.6822C291.672 98.8912 291.934 99.2777 291.934 99.6946V115.12C291.934 115.539 291.674 115.924 291.31 116.133L277.988 123.846C277.81 123.947 277.609 124.001 277.404 124.001C277.199 124.001 276.998 123.947 276.82 123.846L263.498 116.133C263.136 115.923 262.875 115.539 262.875 115.12V99.6946C262.875 99.2767 263.137 98.8933 263.498 98.6822L276.82 90.9708C276.983 90.869 277.172 90.8153 277.365 90.816V90.8149H277.364Z" fill="#404137"/>
<path d="M161.053 57.0815C160.243 57.0815 159.442 57.2872 158.716 57.7052L119.842 80.0641C118.388 80.9011 117.505 82.5166 117.505 84.1927V129.065C117.505 130.744 118.389 132.277 119.842 133.117L158.716 155.553C159.426 155.965 160.233 156.183 161.054 156.183C161.875 156.183 162.681 155.965 163.391 155.553L202.265 133.117C202.977 132.707 203.568 132.117 203.978 131.405C204.388 130.694 204.603 129.887 204.602 129.065V84.1927C204.602 82.5144 203.718 80.9011 202.265 80.0641L163.391 57.7052C162.68 57.2948 161.874 57.0796 161.053 57.0815V57.0815ZM393.52 97.1252C393.365 97.1252 393.193 97.1252 393.054 97.2031L385.575 101.566C385.435 101.643 385.319 101.756 385.237 101.893C385.155 102.03 385.11 102.186 385.107 102.345V110.914C385.107 111.237 385.293 111.532 385.575 111.694L393.054 115.978C393.334 116.141 393.633 116.141 393.91 115.978L401.389 111.693C401.528 111.615 401.644 111.502 401.726 111.365C401.808 111.229 401.853 111.073 401.856 110.914V102.344C401.853 102.185 401.808 102.029 401.726 101.893C401.644 101.756 401.528 101.643 401.389 101.566L393.91 97.202C393.771 97.1208 393.676 97.1262 393.52 97.1262V97.1252Z" fill="#83CD29"/>
</g>
<defs>
<clipPath id="clip0">
<rect width="554.379" height="157" fill="white" transform="translate(0.0317383 0.342773)"/>
</clipPath>
</defs>
</svg>
