<svg width="177" height="177" viewBox="0 0 177 177" fill="none" xmlns="http://www.w3.org/2000/svg">
<path d="M83.1576 9.5835C55.7047 11.3997 32.0233 27.0826 19.1462 49.6431L83.1576 9.5835Z" fill="#1E2A95"/>
<path d="M105.11 11.1316L10.987 70.1566C9.73308 75.3414 9.02655 80.6937 8.85001 86.2192L120.749 16.26C115.778 14.0635 110.553 12.2832 105.11 11.1316Z" fill="#1E2A95"/>
<path d="M133.57 23.3237L9.72421 100.927C10.3878 105.253 11.4007 109.44 12.7354 113.506L143.769 31.5485C140.611 28.5202 137.195 25.8042 133.57 23.3237Z" fill="#1E2A95"/>
<path d="M152.414 41.5151L17.8835 125.698C19.8249 129.376 22.0134 132.937 24.4886 136.245L159.117 51.9655C157.181 48.293 154.882 44.8204 152.414 41.5151Z" fill="#1E2A95"/>
<path d="M164.265 64.1575L33.3278 146.115C36.4714 149.119 39.8262 151.878 43.4298 154.34L167.276 76.7366C166.612 72.4105 165.599 68.2241 164.265 64.1575Z" fill="#1E2A95"/>
<path d="M168.15 91.6379L56.5429 161.597C61.3307 163.683 66.3752 165.314 71.5987 166.435L166.013 107.313C167.226 102.255 167.961 97.0202 168.15 91.6379Z" fill="#1E2A95"/>
<path d="M157.757 128.021L93.9395 167.983C121.333 166.138 144.889 150.53 157.757 128.021Z" fill="#1E2A95"/>
</svg>
