<?xml version="1.0" encoding="utf-8"?>
<!-- Generated by IcoMoon.io -->
<!DOCTYPE svg PUBLIC "-//W3C//DTD SVG 1.1//EN" "http://www.w3.org/Graphics/SVG/1.1/DTD/svg11.dtd">
<svg version="1.1" xmlns="http://www.w3.org/2000/svg" xmlns:xlink="http://www.w3.org/1999/xlink" width="48" height="48" viewBox="0 0 48 48">
<g id="icomoon-ignore">
	<line stroke-width="1" x1="" y1="" x2="" y2="" stroke="#449FDB" opacity=""></line>
</g>
	<path d="M47 48.5h-46c-0.552 0-1-0.45-1-1v-12c0-2.756 2.244-5 5-5h38c2.756 0 5 2.244 5 5v12c0 0.55-0.45 1-1 1zM2 46.5h44v-11c0-1.654-1.346-3-3-3h-38c-1.654 0-3 1.346-3 3v11z" fill="#000000"></path>
	<path d="M41 32.5h-34c-0.552 0-1-0.45-1-1v-6c0-2.756 2.244-5 5-5h26c2.756 0 5 2.244 5 5v6c0 0.55-0.45 1-1 1zM8 30.5h32v-5c0-1.654-1.346-3-3-3h-26c-1.654 0-3 1.346-3 3v5z" fill="#000000"></path>
	<path d="M35 22.5h-22c-0.552 0-1-0.448-1-1v-4c0-2.756 2.244-5 5-5h14c2.756 0 5 2.244 5 5v4c0 0.552-0.45 1-1 1zM14 20.5h20v-3c0-1.654-1.346-3-3-3h-14c-1.654 0-3 1.346-3 3v3z" fill="#000000"></path>
	<path d="M23 13.5c-0.552 0-1-0.448-1-1v-6c0-0.552 0.448-1 1-1s1 0.448 1 1v6c0 0.552-0.448 1-1 1z" fill="#000000"></path>
	<path d="M23 3.5c-0.552 0-1-0.448-1-1v-2c0-0.552 0.448-1 1-1s1 0.448 1 1v2c0 0.552-0.448 1-1 1z" fill="#000000"></path>
	<path d="M44 43.5c-1.654 0-3-1.346-3-3 0-0.55-0.45-1-1-1s-1 0.45-1 1c0 1.654-1.346 3-3 3s-3-1.346-3-3c0-0.55-0.45-1-1-1s-1 0.45-1 1c0 1.654-1.346 3-3 3s-3-1.346-3-3c0-0.55-0.448-1-1-1s-1 0.45-1 1c0 1.654-1.346 3-3 3s-3-1.346-3-3c0-0.55-0.448-1-1-1s-1 0.45-1 1c0 1.654-1.346 3-3 3s-3-1.346-3-3c0-0.55-0.448-1-1-1s-1 0.45-1 1c0 1.654-1.346 3-3 3s-3-1.346-3-3c0-0.55 0.448-1 1-1s1 0.45 1 1 0.448 1 1 1 1-0.45 1-1c0-1.654 1.346-3 3-3s3 1.346 3 3c0 0.55 0.448 1 1 1s1-0.45 1-1c0-1.654 1.346-3 3-3s3 1.346 3 3c0 0.55 0.448 1 1 1s1-0.45 1-1c0-1.654 1.346-3 3-3s3 1.346 3 3c0 0.55 0.45 1 1 1s1-0.45 1-1c0-1.654 1.346-3 3-3s3 1.346 3 3c0 0.55 0.45 1 1 1s1-0.45 1-1c0-1.654 1.346-3 3-3s3 1.346 3 3c0 0.55 0.45 1 1 1s1-0.45 1-1 0.45-1 1-1 1 0.45 1 1c0 1.654-1.346 3-3 3z" fill="#000000"></path>
	<path d="M13.58 28.076c-2.088 0-4.046-0.162-5.822-0.608-0.536-0.132-0.862-0.676-0.728-1.21 0.132-0.54 0.674-0.862 1.212-0.726 3.712 0.926 8.54 0.486 13.652 0.020 5.604-0.512 11.958-1.090 18.27-0.040 0.542 0.090 0.914 0.606 0.822 1.15s-0.612 0.916-1.15 0.822c-6.062-1.008-12.278-0.446-17.76 0.054-2.964 0.274-5.834 0.538-8.496 0.538z" fill="#000000"></path>
</svg>
