<?xml version="1.0" encoding="utf-8"?>
<!-- Generated by IcoMoon.io -->
<!DOCTYPE svg PUBLIC "-//W3C//DTD SVG 1.1//EN" "http://www.w3.org/Graphics/SVG/1.1/DTD/svg11.dtd">
<svg version="1.1" xmlns="http://www.w3.org/2000/svg" xmlns:xlink="http://www.w3.org/1999/xlink" width="48" height="48" viewBox="0 0 48 48">
<g id="icomoon-ignore">
	<line stroke-width="1" x1="" y1="" x2="" y2="" stroke="#449FDB" opacity=""></line>
</g>
	<path d="M38 34.5h-29c-4.262 0-8-3.968-8-8.492s3.738-8.492 8-8.492c0.976 0 1.956 0.2 2.92 0.594 3.008-2.898 7.366-4.546 12.080-4.546 3.626 0 7.168 1.066 10.054 3.014 1.154-0.548 2.478-0.826 3.946-0.826 4.878 0 9 4.236 9 9.25 0 5.148-4.122 9.498-9 9.498zM9 19.516c-3.196 0-6 3.034-6 6.492s2.804 6.492 6 6.492h29c3.728 0 7-3.504 7-7.5 0-3.93-3.208-7.25-7-7.25-1.36 0-2.542 0.29-3.514 0.858-0.34 0.202-0.772 0.182-1.096-0.056-2.634-1.928-5.968-2.99-9.39-2.99-4.434 0-8.492 1.614-11.128 4.43-0.304 0.326-0.786 0.41-1.182 0.208-0.898-0.454-1.802-0.684-2.69-0.684z" fill="#000000"></path>
	<path d="M46 25.5c-0.55 0-1-0.45-1-1 0-3.86-3.14-7-7-7s-7 3.14-7 7c0 0.55-0.45 1-1 1s-1-0.45-1-1c0-4.962 4.040-9 9-9s9 4.038 9 9c0 0.55-0.45 1-1 1z" fill="#000000"></path>
	<path d="M9.124 27.5c-0.552 0-1-0.45-1-1 0-7.168 7.122-13 15.876-13 0.552 0 1 0.448 1 1s-0.448 1-1 1c-7.65 0-13.876 4.934-13.876 11 0 0.55-0.446 1-1 1z" fill="#000000"></path>
</svg>
