<?xml version="1.0" encoding="utf-8"?>
<!-- Generated by IcoMoon.io -->
<!DOCTYPE svg PUBLIC "-//W3C//DTD SVG 1.1//EN" "http://www.w3.org/Graphics/SVG/1.1/DTD/svg11.dtd">
<svg version="1.1" xmlns="http://www.w3.org/2000/svg" xmlns:xlink="http://www.w3.org/1999/xlink" width="48" height="48" viewBox="0 0 48 48">
<g id="icomoon-ignore">
	<line stroke-width="1" x1="" y1="" x2="" y2="" stroke="#449FDB" opacity=""></line>
</g>
	<path d="M24 47.704c-6.734 0-14-2.102-14-5.5v-30c0-0.552 0.448-1 1-1s1 0.448 1 1v30c0 1.070 4.534 3.5 12 3.5 8.376 0 12-1.656 12-2.5v-31c0-0.552 0.45-1 1-1s1 0.448 1 1v31c0 4.174-10.716 4.5-14 4.5z" fill="#000000"></path>
	<path d="M24 16.916c-6.744 0-14-1.476-14-4.714 0-0.552 0.448-1 1-1s1 0.45 1 1.002c0 0.788 4.206 2.714 12 2.714s12-1.926 12-2.714c0-0.572-2.7-2.188-9.070-2.618-0.552-0.040-0.97-0.514-0.93-1.066 0.038-0.55 0.508-0.942 1.066-0.93 5.286 0.356 10.934 1.756 10.934 4.614 0 3.24-7.258 4.712-14 4.712z" fill="#000000"></path>
	<path d="M24 30.172c-3.308 0-6-2.692-6-6s2.692-6 6-6 6 2.692 6 6-2.694 6-6 6zM24 20.17c-2.206 0-4 1.794-4 4s1.794 4 4 4 4-1.794 4-4-1.794-4-4-4z" fill="#000000"></path>
	<path d="M24 42.778v0c-2.672 0-5.44-0.402-9.254-1.344-0.446-0.11-0.76-0.512-0.76-0.972l0.014-16.276c0-0.552 0.448-1 1-1v0c0.552 0 1 0.448 1 1v0c-0.002 2.194 0.862 4.404 2.368 6.064 3.074 3.394 8.192 3.388 11.268 0 1.508-1.66 2.374-3.872 2.37-6.062 0-0.552 0.45-1 1-1v0c0.554 0 1 0.448 1 1l0.016 16.274c0 0.46-0.312 0.864-0.762 0.972-3.822 0.94-6.592 1.344-9.26 1.344zM15.986 39.672c3.26 0.772 5.69 1.104 8.012 1.104v0c2.324 0 4.752-0.332 8.014-1.104l-0.008-9.204c-0.27 0.392-0.57 0.77-0.89 1.126-1.922 2.12-4.45 3.286-7.116 3.288-2.666 0-5.194-1.166-7.116-3.288-0.322-0.354-0.62-0.73-0.89-1.126l-0.006 9.204z" fill="#000000"></path>
	<path d="M11 13.204c-0.552 0-1-0.448-1-1 0-5.098 15.836-11.906 20-11.906 0.55 0 1 0.448 1 1 0 7.568-7.292 11.906-20 11.906zM28.934 2.412c-4.394 0.8-14.478 5.658-16.558 8.772 6.454-0.172 15.686-1.68 16.558-8.772z" fill="#000000"></path>
</svg>
