<?xml version="1.0" encoding="utf-8"?>
<!-- Generated by IcoMoon.io -->
<!DOCTYPE svg PUBLIC "-//W3C//DTD SVG 1.1//EN" "http://www.w3.org/Graphics/SVG/1.1/DTD/svg11.dtd">
<svg version="1.1" xmlns="http://www.w3.org/2000/svg" xmlns:xlink="http://www.w3.org/1999/xlink" width="48" height="48" viewBox="0 0 48 48">
<g id="icomoon-ignore">
	<line stroke-width="1" x1="" y1="" x2="" y2="" stroke="#449FDB" opacity=""></line>
</g>
	<path d="M47.002 44.5h-46c-0.55 0-1-0.45-1-1v-22c0-0.552 0.45-1 1-1h46c0.55 0 1 0.448 1 1v22c0 0.55-0.45 1-1 1zM2.002 42.5h44v-20h-44v20z" fill="#000000"></path>
	<path d="M6.002 29.5c-1.654 0-3-1.346-3-3s1.346-3 3-3 3 1.346 3 3-1.346 3-3 3zM6.002 25.5c-0.55 0-1 0.45-1 1s0.45 1 1 1 1-0.45 1-1-0.45-1-1-1z" fill="#000000"></path>
	<path d="M14.002 41.5c-1.654 0-3-1.346-3-3s1.346-3 3-3 3 1.346 3 3-1.346 3-3 3zM14.002 37.5c-0.55 0-1 0.45-1 1s0.45 1 1 1 1-0.45 1-1-0.45-1-1-1z" fill="#000000"></path>
	<path d="M42.002 29.5c-1.654 0-3-1.346-3-3s1.346-3 3-3 3 1.346 3 3-1.346 3-3 3zM42.002 25.5c-0.55 0-1 0.45-1 1s0.45 1 1 1 1-0.45 1-1-0.45-1-1-1z" fill="#000000"></path>
	<path d="M20.002 33.5c-2.758 0-5-2.244-5-5s2.242-5 5-5 5 2.244 5 5-2.242 5-5 5zM20.002 25.5c-1.654 0-3 1.346-3 3s1.346 3 3 3 3-1.346 3-3-1.346-3-3-3z" fill="#000000"></path>
	<path d="M32.002 41.5c-3.86 0-7-3.14-7-7s3.14-7 7-7 7 3.14 7 7-3.14 7-7 7zM32.002 29.5c-2.758 0-5 2.244-5 5s2.242 5 5 5 5-2.244 5-5-2.242-5-5-5z" fill="#000000"></path>
	<path d="M1.002 22.5c-0.342 0-0.676-0.176-0.864-0.494-0.284-0.476-0.124-1.088 0.358-1.368l29-17c0.47-0.28 1.086-0.124 1.37 0.356 0.284 0.476 0.124 1.088-0.358 1.368l-29 17c-0.158 0.094-0.334 0.138-0.506 0.138z" fill="#000000"></path>
	<path d="M47.002 22.5c-0.55 0-1-0.448-1-1 0-8.822-7.178-16-16-16-0.55 0-1-0.448-1-1s0.45-1 1-1c9.926 0 18 8.076 18 18 0 0.552-0.45 1-1 1z" fill="#000000"></path>
</svg>
