<?xml version="1.0" encoding="utf-8"?>
<!-- Generated by IcoMoon.io -->
<!DOCTYPE svg PUBLIC "-//W3C//DTD SVG 1.1//EN" "http://www.w3.org/Graphics/SVG/1.1/DTD/svg11.dtd">
<svg version="1.1" xmlns="http://www.w3.org/2000/svg" xmlns:xlink="http://www.w3.org/1999/xlink" width="48" height="48" viewBox="0 0 48 48">
<g id="icomoon-ignore">
	<line stroke-width="1" x1="" y1="" x2="" y2="" stroke="#449FDB" opacity=""></line>
</g>
	<path d="M33.95 46.086h-22c-0.552 0-1-0.45-1-1v-7c0-0.552 0.448-1 1-1s1 0.448 1 1v6h20v-6c0-0.552 0.45-1 1-1 0.552 0 1 0.448 1 1v7c0 0.55-0.448 1-1 1z" fill="#000000"></path>
	<path d="M33.95 40.086h-22c-0.552 0-1-0.45-1-1v-10.754c-4.054-1.726-6.732-5.708-6.732-10.126 0-6.090 4.956-11.046 11.046-11.046 0.818 0 1.638 0.108 2.54 0.336 2.75-3.506 6.974-5.58 11.438-5.58 8.020 0 14.54 6.524 14.54 14.542 0 5.804-3.52 11.086-8.832 13.36v9.266c0 0.552-0.448 1.002-1 1.002zM12.95 38.086h20v-8.946c0-0.418 0.262-0.792 0.652-0.938 4.894-1.82 8.184-6.54 8.184-11.746 0-6.916-5.626-12.542-12.542-12.542-4.052 0-7.878 1.984-10.23 5.304-0.25 0.354-0.698 0.504-1.108 0.378-0.984-0.3-1.824-0.44-2.638-0.44-4.988 0-9.046 4.058-9.046 9.042 0 3.808 2.436 7.222 6.064 8.5 0.4 0.14 0.668 0.518 0.668 0.944v10.44h-0.004v0.004z" fill="#000000"></path>
	<path d="M38.786 17.458c-0.552 0-1-0.448-1-1 0-4.71-3.832-8.542-8.542-8.542-0.552 0-1-0.448-1-1s0.448-1 1-1c5.81 0 10.542 4.728 10.542 10.542 0 0.552-0.45 1-1 1z" fill="#000000"></path>
	<path d="M15.95 39.086c-0.552 0-1-0.45-1-1v-4c0-0.552 0.448-1 1-1s1 0.448 1 1v4c0 0.55-0.448 1-1 1z" fill="#000000"></path>
	<path d="M19.95 39.086c-0.552 0-1-0.45-1-1v-4c0-0.552 0.448-1 1-1s1 0.448 1 1v4c0 0.55-0.448 1-1 1z" fill="#000000"></path>
	<path d="M25.95 39.086c-0.55 0-1-0.45-1-1v-4c0-0.552 0.448-1 1-1s1 0.448 1 1v4c0 0.55-0.448 1-1 1z" fill="#000000"></path>
	<path d="M29.95 39.086c-0.55 0-1-0.45-1-1v-4c0-0.552 0.45-1 1-1 0.552 0 1 0.448 1 1v4c0 0.55-0.448 1-1 1z" fill="#000000"></path>
</svg>
