<?xml version="1.0" encoding="utf-8"?>
<!-- Generated by IcoMoon.io -->
<!DOCTYPE svg PUBLIC "-//W3C//DTD SVG 1.1//EN" "http://www.w3.org/Graphics/SVG/1.1/DTD/svg11.dtd">
<svg version="1.1" xmlns="http://www.w3.org/2000/svg" xmlns:xlink="http://www.w3.org/1999/xlink" width="48" height="48" viewBox="0 0 48 48">
<g id="icomoon-ignore">
	<line stroke-width="1" x1="" y1="" x2="" y2="" stroke="#449FDB" opacity=""></line>
</g>
	<path d="M30.758 48h-14c-0.55 0-1-0.45-1-1 0-0.552 0.45-1 1-1h14c0.55 0 1 0.448 1 1 0 0.55-0.45 1-1 1z" fill="#000000"></path>
	<path d="M23.756 47c-0.55 0-1-0.45-1-1v-20c0-0.552 0.45-1 1-1s1 0.448 1 1v20c0 0.55-0.448 1-1 1z" fill="#000000"></path>
	<path d="M23.756 27c-0.002 0-0.006 0-0.008 0-0.314-0.002-0.61-0.152-0.792-0.404l-14.090-19c-0.222-0.304-0.26-0.708-0.090-1.044 0.172-0.338 0.516-0.548 0.892-0.548h28.666c0.378 0 0.726 0.214 0.894 0.558 0.168 0.342 0.126 0.75-0.102 1.048l-14.58 19c-0.186 0.246-0.48 0.39-0.79 0.39zM11.656 8l12.116 16.34 12.536-16.34h-24.652z" fill="#000000"></path>
	<path d="M22.908 20.62c-0.312 0-0.62-0.144-0.814-0.42l-13.24-18.62c-0.32-0.452-0.214-1.074 0.234-1.394s1.074-0.214 1.394 0.236l13.238 18.62c0.32 0.452 0.21 1.074-0.234 1.394-0.174 0.124-0.378 0.184-0.578 0.184z" fill="#000000"></path>
</svg>
