<?xml version="1.0" encoding="utf-8"?>
<!-- Generated by IcoMoon.io -->
<!DOCTYPE svg PUBLIC "-//W3C//DTD SVG 1.1//EN" "http://www.w3.org/Graphics/SVG/1.1/DTD/svg11.dtd">
<svg version="1.1" xmlns="http://www.w3.org/2000/svg" xmlns:xlink="http://www.w3.org/1999/xlink" width="48" height="48" viewBox="0 0 48 48">
<g id="icomoon-ignore">
	<line stroke-width="1" x1="" y1="" x2="" y2="" stroke="#449FDB" opacity=""></line>
</g>
	<path d="M20.388 46.52c-17.098 0-18.946-16.836-18.946-24.072v-1h37.888v1c0.002 7.24-1.844 24.072-18.942 24.072zM3.458 23.448c0.182 8.314 2.772 21.072 16.932 21.072 14.162 0 16.75-12.758 16.934-21.072h-33.866z" fill="#000000"></path>
	<path d="M37.556 47.45h-34c-0.552 0-1-0.45-1-1 0-0.552 0.448-1 1-1h34c0.55 0 1 0.448 1 1 0 0.55-0.448 1-1 1z" fill="#000000"></path>
	<path d="M41.362 38.012c-2.864 0-5.194-2.332-5.194-5.198s2.33-5.198 5.194-5.198c2.866 0 5.196 2.332 5.196 5.198s-2.332 5.198-5.196 5.198zM41.362 29.622c-1.762 0-3.194 1.434-3.194 3.196s1.432 3.196 3.194 3.196c1.764 0 3.196-1.434 3.196-3.196s-1.432-3.196-3.196-3.196z" fill="#000000"></path>
	<path d="M14.098 15.136c-0.256 0-0.512-0.098-0.708-0.292-1.486-1.486-0.796-3.556-0.242-5.218 0.532-1.592 0.812-2.602 0.242-3.172-0.39-0.39-0.39-1.024 0-1.414 0.388-0.39 1.024-0.39 1.414 0 1.488 1.486 0.796 3.556 0.242 5.218-0.53 1.594-0.812 2.602-0.242 3.172 0.388 0.39 0.388 1.024 0 1.414-0.196 0.194-0.452 0.292-0.706 0.292z" fill="#000000"></path>
	<path d="M18.292 15.136c-0.256 0-0.514-0.098-0.708-0.292-1.428-1.428-0.868-4.23-0.274-7.198 0.398-1.992 0.944-4.718 0.274-5.388-0.39-0.39-0.39-1.024 0-1.414s1.024-0.39 1.414 0c1.426 1.426 0.866 4.228 0.274 7.196-0.396 1.992-0.944 4.72-0.274 5.39 0.39 0.39 0.39 1.024 0 1.414-0.194 0.194-0.45 0.292-0.706 0.292z" fill="#000000"></path>
	<path d="M22.486 15.136c-0.256 0-0.512-0.098-0.708-0.292-1.484-1.486-0.794-3.556-0.24-5.218 0.53-1.592 0.81-2.602 0.24-3.172-0.388-0.39-0.388-1.024 0-1.414 0.39-0.39 1.026-0.39 1.414 0 1.486 1.486 0.796 3.556 0.242 5.218-0.53 1.592-0.81 2.602-0.242 3.172 0.39 0.39 0.39 1.024 0 1.414-0.194 0.194-0.45 0.292-0.706 0.292z" fill="#000000"></path>
</svg>
