<?xml version="1.0" encoding="utf-8"?>
<!-- Generated by IcoMoon.io -->
<!DOCTYPE svg PUBLIC "-//W3C//DTD SVG 1.1//EN" "http://www.w3.org/Graphics/SVG/1.1/DTD/svg11.dtd">
<svg version="1.1" xmlns="http://www.w3.org/2000/svg" xmlns:xlink="http://www.w3.org/1999/xlink" width="48" height="48" viewBox="0 0 48 48">
<g id="icomoon-ignore">
	<line stroke-width="1" x1="" y1="" x2="" y2="" stroke="#449FDB" opacity=""></line>
</g>
	<path d="M23.998 46.972c-2.904 0-5.772-1.012-8.31-2.938-3.154-0.434-5.898-1.742-7.954-3.796-2.054-2.054-3.364-4.8-3.798-7.956-1.922-2.538-2.938-5.404-2.938-8.31 0-2.904 1.014-5.772 2.938-8.31 0.434-3.154 1.744-5.9 3.798-7.952 2.054-2.056 4.798-3.366 7.954-3.8 5.078-3.846 11.542-3.846 16.626 0 3.152 0.434 5.898 1.746 7.954 3.8 2.054 2.050 3.364 4.792 3.798 7.952 1.922 2.538 2.938 5.406 2.938 8.31 0 2.906-1.014 5.772-2.938 8.31-0.436 3.154-1.746 5.9-3.798 7.956-2.054 2.054-4.8 3.364-7.954 3.796-2.544 1.926-5.412 2.938-8.316 2.938zM23.998 2.974c-2.538 0-5.060 0.926-7.296 2.682-0.144 0.112-0.316 0.184-0.498 0.206-2.822 0.34-5.262 1.468-7.056 3.264-1.794 1.79-2.922 4.232-3.262 7.054-0.022 0.18-0.094 0.354-0.206 0.498-1.754 2.236-2.682 4.76-2.682 7.296 0 2.538 0.926 5.062 2.682 7.296 0.112 0.144 0.184 0.316 0.206 0.498 0.34 2.822 1.468 5.26 3.262 7.056 1.794 1.792 4.236 2.922 7.056 3.262 0.182 0.022 0.354 0.094 0.498 0.206 4.47 3.51 10.122 3.51 14.59 0 0.144-0.112 0.316-0.184 0.5-0.206 2.82-0.34 5.262-1.468 7.054-3.262 1.794-1.794 2.922-4.234 3.262-7.056 0.024-0.182 0.094-0.354 0.208-0.498 1.754-2.236 2.682-4.758 2.682-7.296s-0.926-5.062-2.682-7.296c-0.114-0.144-0.184-0.316-0.208-0.498-0.34-2.824-1.466-5.262-3.262-7.052-1.792-1.796-4.234-2.926-7.054-3.266-0.18-0.022-0.356-0.094-0.5-0.206-2.234-1.756-4.756-2.682-7.294-2.682z" fill="#000000"></path>
	<path d="M23.998 32.972c-4.962 0-9-4.038-9-9s4.038-9 9-9c4.962 0 9 4.038 9 9s-4.038 9-9 9zM23.998 16.974c-3.86 0-7 3.14-7 7s3.14 7 7 7c3.862 0 7-3.138 7-7s-3.138-7-7-7z" fill="#000000"></path>
	<path d="M23.998 12.974c-1.654 0-3-1.346-3-3s1.346-3 3-3 3 1.346 3 3-1.346 3-3 3zM23.998 8.974c-0.552 0-1 0.448-1 1s0.448 1 1 1 1-0.448 1-1-0.448-1-1-1z" fill="#000000"></path>
	<path d="M23.998 40.972c-1.654 0-3-1.344-3-3 0-1.652 1.346-3 3-3s3 1.348 3 3c0 1.656-1.346 3-3 3zM23.998 36.972c-0.552 0-1 0.45-1 1 0 0.552 0.448 1 1 1s1-0.448 1-1c0-0.55-0.448-1-1-1z" fill="#000000"></path>
	<path d="M9.998 26.972c-1.654 0-3-1.344-3-3 0-1.654 1.346-3 3-3s3 1.346 3 3c0 1.656-1.346 3-3 3zM9.998 22.974c-0.552 0-1 0.448-1 1s0.448 1 1 1 1-0.448 1-1-0.448-1-1-1z" fill="#000000"></path>
	<path d="M37.998 26.972c-1.654 0-3-1.344-3-3 0-1.654 1.346-3 3-3s3 1.346 3 3c0 1.656-1.346 3-3 3zM37.998 22.974c-0.552 0-1 0.448-1 1s0.448 1 1 1 1-0.448 1-1-0.448-1-1-1z" fill="#000000"></path>
	<path d="M14.098 17.076c-0.8 0-1.554-0.312-2.122-0.876-0.568-0.566-0.878-1.32-0.878-2.124 0-0.802 0.312-1.554 0.878-2.122 1.134-1.134 3.11-1.132 4.244 0 0.566 0.566 0.878 1.32 0.878 2.122s-0.312 1.554-0.878 2.126c-0.566 0.562-1.32 0.874-2.122 0.874zM14.098 13.076c-0.266 0-0.518 0.104-0.708 0.292-0.188 0.19-0.292 0.44-0.292 0.708s0.104 0.518 0.292 0.708c0.38 0.376 1.038 0.376 1.414 0 0.19-0.19 0.294-0.44 0.294-0.708s-0.104-0.518-0.292-0.708c-0.19-0.188-0.44-0.292-0.708-0.292z" fill="#000000"></path>
	<path d="M33.898 36.876c-0.8 0-1.554-0.312-2.122-0.878-1.168-1.168-1.168-3.074 0-4.246 1.136-1.13 3.11-1.13 4.242 0 1.172 1.172 1.172 3.078 0 4.246-0.564 0.564-1.318 0.878-2.12 0.878zM33.898 32.876c-0.27 0-0.52 0.102-0.708 0.29-0.39 0.39-0.39 1.026 0 1.418 0.376 0.376 1.038 0.376 1.412 0 0.39-0.39 0.39-1.024 0-1.418-0.186-0.19-0.438-0.29-0.704-0.29z" fill="#000000"></path>
	<path d="M14.098 36.876c-0.8 0-1.554-0.312-2.12-0.878-1.17-1.168-1.17-3.074 0-4.246 1.136-1.13 3.11-1.13 4.242 0 1.17 1.172 1.17 3.078 0 4.246-0.566 0.564-1.32 0.878-2.122 0.878zM14.098 32.876c-0.268 0-0.518 0.102-0.708 0.29-0.39 0.39-0.39 1.026 0 1.418 0.376 0.376 1.038 0.376 1.414 0 0.39-0.39 0.39-1.024 0-1.418-0.186-0.19-0.438-0.29-0.706-0.29z" fill="#000000"></path>
	<path d="M33.898 17.076c-0.8 0-1.554-0.312-2.122-0.876-0.57-0.566-0.878-1.32-0.878-2.126 0-0.802 0.312-1.554 0.878-2.122 1.132-1.134 3.11-1.132 4.242 0 0.566 0.566 0.878 1.32 0.878 2.122s-0.312 1.554-0.878 2.126c-0.564 0.564-1.318 0.876-2.12 0.876zM33.898 13.076c-0.266 0-0.52 0.104-0.708 0.292-0.19 0.19-0.292 0.44-0.292 0.708s0.104 0.518 0.292 0.708c0.378 0.376 1.038 0.376 1.412 0 0.19-0.19 0.294-0.44 0.294-0.708s-0.106-0.518-0.292-0.708c-0.19-0.188-0.44-0.292-0.706-0.292z" fill="#000000"></path>
</svg>
