<?xml version="1.0" encoding="utf-8"?>
<!-- Generated by IcoMoon.io -->
<!DOCTYPE svg PUBLIC "-//W3C//DTD SVG 1.1//EN" "http://www.w3.org/Graphics/SVG/1.1/DTD/svg11.dtd">
<svg version="1.1" xmlns="http://www.w3.org/2000/svg" xmlns:xlink="http://www.w3.org/1999/xlink" width="48" height="48" viewBox="0 0 48 48">
<g id="icomoon-ignore">
	<line stroke-width="1" x1="" y1="" x2="" y2="" stroke="#449FDB" opacity=""></line>
</g>
	<path d="M8.568 22h2.088l-2.326-8.254 1.916-0.326 2.498 8.58h2.088l-2.956-10.36c-0.158-0.528-0.71-1.080-1.248-0.92l-3.832 1.024c-0.254 0.076-0.464 0.186-0.592 0.42s-0.154 0.976-0.076 1.23l2.44 8.606z" fill="#000000"></path>
	<path d="M18.82 22l-2.642-16.35 1.972-0.078 2.698 16.428h2.028l-2.916-17.994c-0.092-0.544-0.624-1.166-1.152-1.072l-3.944 0.532c-0.262 0.042-0.496 0.126-0.65 0.344-0.156 0.216-0.212 0.95-0.172 1.214l2.75 16.976h2.028z" fill="#000000"></path>
	<path d="M23 22v-20h2v20h2v-21c0-0.552-0.45-1-1-1h-4c-0.55 0-1 0.448-1 1v21h2z" fill="#000000"></path>
	<path d="M27.152 22l2.698-16.678 1.972 0.578-2.642 16.1h2.028l2.754-17.008c0.042-0.262-0.020-0.78-0.172-0.996-0.156-0.216-0.384-0.488-0.652-0.53l-3.946-0.718c-0.534-0.094-1.058 0.746-1.148 1.292l-2.918 17.96h2.026z" fill="#000000"></path>
	<path d="M35.256 22l2.498-8.83 1.916 0.824-2.326 8.004h2.088l2.444-8.638c0.074-0.254 0.046-0.778-0.078-1.012-0.126-0.234-0.34-0.532-0.594-0.608l-3.832-1.21c-0.534-0.16-1.086 0.612-1.242 1.14l-2.958 10.33h2.084z" fill="#000000"></path>
	<path d="M38 48c-0.028 0-0.050 0-0.076-0.004-0.522-0.040-0.924-0.472-0.924-0.996 0-2.382-5.71-4.25-13-4.25s-13 1.868-13 4.25c0 0.52-0.402 0.958-0.924 0.996-0.502 0.046-0.984-0.328-1.064-0.844l-4-26c-0.042-0.29 0.040-0.582 0.228-0.804 0.192-0.222 0.468-0.348 0.76-0.348h36c0.292 0 0.568 0.126 0.76 0.348 0.19 0.222 0.276 0.514 0.228 0.804l-4 26c-0.076 0.488-0.498 0.848-0.988 0.848zM24 40.75c5.416 0 10.872 1.016 13.454 3.222l3.38-21.972h-33.668l3.38 21.972c2.582-2.206 8.038-3.222 13.454-3.222z" fill="#000000"></path>
</svg>
