<?xml version="1.0" encoding="utf-8"?>
<!-- Generated by IcoMoon.io -->
<!DOCTYPE svg PUBLIC "-//W3C//DTD SVG 1.1//EN" "http://www.w3.org/Graphics/SVG/1.1/DTD/svg11.dtd">
<svg version="1.1" xmlns="http://www.w3.org/2000/svg" xmlns:xlink="http://www.w3.org/1999/xlink" width="48" height="48" viewBox="0 0 48 48">
<g id="icomoon-ignore">
	<line stroke-width="1" x1="" y1="" x2="" y2="" stroke="#449FDB" opacity=""></line>
</g>
	<path d="M34.182 44.832h-2.364c-3.952 0-7.384-1.158-9.672-3.26-0.406-0.376-0.432-1.006-0.058-1.414 0.376-0.408 1.006-0.432 1.414-0.060 1.914 1.762 4.87 2.732 8.316 2.732h2.364c5.23 0 10.818-2.316 10.818-8.818 0-6.062-4.958-11.182-10.818-11.182h-2.364c-2.616 0-5.152 1.012-7.144 2.852-0.404 0.376-1.038 0.35-1.412-0.056s-0.35-1.040 0.056-1.414c2.362-2.182 5.38-3.38 8.5-3.38h2.364c6.952 0 12.818 6.036 12.818 13.182 0 6.572-5.032 10.818-12.818 10.818z" fill="#000000"></path>
	<path d="M34.182 22.376c-0.256 0-0.512-0.098-0.708-0.292-0.386-0.39-0.386-1.024 0-1.414l4.726-4.726c0.39-0.39 1.024-0.39 1.414 0s0.39 1.024 0 1.414l-4.726 4.728c-0.192 0.196-0.45 0.29-0.706 0.29z" fill="#000000"></path>
	<path d="M14.564 44.832h-2.096c-6.966 0-11.468-4.554-11.468-11.604 0-7.038 4.57-24.396 11.468-24.396h2.096c6.896 0 11.466 17.36 11.466 24.396 0.006 7.050-4.498 11.604-11.466 11.604zM12.468 10.832c-4.714 0-9.468 15.356-9.468 22.396 0 7.082 4.89 9.604 9.468 9.604h2.096c4.576 0 9.466-2.522 9.466-9.604 0-7.042-4.754-22.396-9.466-22.396h-2.096z" fill="#000000"></path>
	<path d="M14.792 10.286c-0.254 0-0.512-0.098-0.708-0.292-0.388-0.39-0.388-1.024 0-1.414l5.124-5.12c0.386-0.388 1.024-0.388 1.414 0 0.386 0.39 0.386 1.026 0 1.414l-5.124 5.12c-0.194 0.194-0.448 0.292-0.706 0.292z" fill="#000000"></path>
	<path d="M32.126 20.014c-0.078 0-0.16-0.010-0.238-0.030-2.984-0.742-5.254-2.342-6.38-4.504-1.048-2.014-1.092-4.412-0.126-6.944 0.172-0.442 0.614-0.706 1.094-0.628 6.866 1.106 6.708 8.648 6.652 11.126-0.004 0.304-0.148 0.588-0.388 0.776-0.186 0.132-0.398 0.204-0.614 0.204zM26.972 10.068c-0.466 1.666-0.372 3.204 0.3 4.488 0.708 1.354 2.048 2.43 3.852 3.106-0.078-3.252-0.812-6.61-4.152-7.594z" fill="#000000"></path>
</svg>
