<?xml version="1.0" encoding="utf-8"?>
<!-- Generated by IcoMoon.io -->
<!DOCTYPE svg PUBLIC "-//W3C//DTD SVG 1.1//EN" "http://www.w3.org/Graphics/SVG/1.1/DTD/svg11.dtd">
<svg version="1.1" xmlns="http://www.w3.org/2000/svg" xmlns:xlink="http://www.w3.org/1999/xlink" width="48" height="48" viewBox="0 0 48 48">
<g id="icomoon-ignore">
	<line stroke-width="1" x1="" y1="" x2="" y2="" stroke="#449FDB" opacity=""></line>
</g>
	<path d="M36 47.5h-20c-0.552 0-1-0.45-1-1v-36c0-0.552 0.448-1 1-1h20c0.55 0 1 0.448 1 1v36c0 0.55-0.45 1-1 1zM17 45.5h18v-34h-18v34z" fill="#000000"></path>
	<path d="M30.198 25.076c-2.366 0-4.5-0.36-6.364-0.672-2.678-0.452-4.792-0.808-6.386-0.008-0.492 0.246-1.094 0.046-1.342-0.448s-0.042-1.094 0.448-1.342c2.18-1.088 4.7-0.666 7.614-0.176 3.080 0.518 6.572 1.106 10.59 0.1 0.534-0.138 1.078 0.192 1.212 0.728s-0.192 1.078-0.728 1.212c-1.776 0.444-3.46 0.606-5.044 0.606z" fill="#000000"></path>
	<path d="M23 42.5c-0.088 0-0.178-0.012-0.268-0.036-0.532-0.148-0.844-0.702-0.696-1.232l10-36c0.096-0.346 0.372-0.616 0.722-0.702l8-2c0.532-0.136 1.078 0.192 1.21 0.728s-0.192 1.078-0.726 1.212l-7.436 1.86-9.844 35.44c-0.124 0.44-0.526 0.73-0.962 0.73z" fill="#000000"></path>
	<path d="M12 19.524c-0.15 0-0.302-0.034-0.446-0.106-3.426-1.712-5.554-5.13-5.554-8.918 0-5.514 4.486-10 10-10 3.788 0 7.206 2.128 8.918 5.552 0.25 0.494 0.046 1.094-0.448 1.342-0.496 0.246-1.094 0.042-1.342-0.448-1.372-2.744-4.102-4.448-7.128-4.448-4.412 0-8 3.588-8 8 0 3.026 1.704 5.758 4.448 7.128 0.494 0.248 0.694 0.848 0.448 1.342-0.18 0.354-0.53 0.556-0.896 0.556z" fill="#000000"></path>
	<path d="M11 14.5c-0.256 0-0.512-0.098-0.708-0.292-0.39-0.39-0.39-1.024 0-1.414l2-2c0.39-0.39 1.024-0.39 1.414 0s0.39 1.024 0 1.414l-2 2c-0.196 0.194-0.452 0.292-0.706 0.292z" fill="#000000"></path>
	<path d="M17 8.5c-0.256 0-0.512-0.098-0.708-0.292-0.39-0.39-0.39-1.024 0-1.414l2-2c0.39-0.39 1.024-0.39 1.414 0s0.39 1.024 0 1.414l-2 2c-0.196 0.194-0.452 0.292-0.706 0.292z" fill="#000000"></path>
	<path d="M14 9.562c-0.26 0-0.522-0.102-0.718-0.304l-2-2.062c-0.384-0.396-0.376-1.030 0.020-1.414 0.398-0.384 1.030-0.376 1.414 0.022l2 2.062c0.384 0.396 0.376 1.030-0.020 1.414-0.196 0.188-0.446 0.282-0.696 0.282z" fill="#000000"></path>
</svg>
