<?xml version="1.0" encoding="utf-8"?>
<!-- Generated by IcoMoon.io -->
<!DOCTYPE svg PUBLIC "-//W3C//DTD SVG 1.1//EN" "http://www.w3.org/Graphics/SVG/1.1/DTD/svg11.dtd">
<svg version="1.1" xmlns="http://www.w3.org/2000/svg" xmlns:xlink="http://www.w3.org/1999/xlink" width="48" height="48" viewBox="0 0 48 48">
<g id="icomoon-ignore">
	<line stroke-width="1" x1="" y1="" x2="" y2="" stroke="#449FDB" opacity=""></line>
</g>
	<path d="M24 35c-12.038 0-23-10.010-23-21 0-0.552 0.448-1 1-1h44c0.55 0 1 0.448 1 1 0 10.99-10.96 21-23 21zM3.038 15c0.632 8.698 9.388 18 20.962 18s20.33-9.302 20.96-18h-41.922z" fill="#000000"></path>
	<path d="M35.264 27.184c-0.084 0-0.168-0.010-0.252-0.032-0.296-0.078-0.542-0.29-0.664-0.568l-3.558-8.184c-0.134-0.31-0.106-0.666 0.082-0.948 0.184-0.282 0.5-0.452 0.836-0.452h9.616c0.322 0 0.624 0.154 0.81 0.416 0.19 0.26 0.242 0.596 0.136 0.902-1.1 3.288-3.374 6.364-6.398 8.662-0.176 0.134-0.392 0.204-0.608 0.204zM33.23 19l2.426 5.574c1.824-1.602 3.27-3.524 4.198-5.574h-6.624z" fill="#000000"></path>
	<path d="M24 31c-2.888 0-5.694-0.632-8.338-1.882-0.488-0.234-0.706-0.808-0.49-1.304l4.444-10.21c0.16-0.364 0.518-0.6 0.916-0.6h6.808c0.398 0 0.758 0.236 0.916 0.6l4.462 10.262c0.216 0.5 0 1.078-0.496 1.306-2.608 1.21-5.376 1.828-8.222 1.828zM17.404 27.7c4.186 1.71 8.884 1.726 13.086 0.042l-3.804-8.742h-5.498l-3.784 8.7z" fill="#000000"></path>
	<path d="M12.642 27.11c-0.218 0-0.434-0.070-0.61-0.208-2.976-2.292-5.212-5.34-6.3-8.584-0.102-0.304-0.052-0.64 0.136-0.902 0.188-0.26 0.49-0.416 0.812-0.416h9.49c0.336 0 0.652 0.17 0.836 0.452 0.186 0.282 0.216 0.638 0.082 0.948l-3.528 8.11c-0.124 0.284-0.37 0.492-0.668 0.57-0.082 0.018-0.166 0.030-0.25 0.030zM8.148 19c0.912 2.014 2.328 3.906 4.108 5.492l2.39-5.492h-6.498z" fill="#000000"></path>
</svg>
