<?xml version="1.0" encoding="utf-8"?>
<!-- Generated by IcoMoon.io -->
<!DOCTYPE svg PUBLIC "-//W3C//DTD SVG 1.1//EN" "http://www.w3.org/Graphics/SVG/1.1/DTD/svg11.dtd">
<svg version="1.1" xmlns="http://www.w3.org/2000/svg" xmlns:xlink="http://www.w3.org/1999/xlink" width="50" height="48" viewBox="0 0 50 48">
<g id="icomoon-ignore">
	<line stroke-width="1" x1="" y1="" x2="" y2="" stroke="#449FDB" opacity=""></line>
</g>
	<path d="M49.040 25c-0.012 0-0.026 0-0.040 0h-48c-0.552 0-1-0.448-1-1 0-10.418 11.152-23 25-23 13.718 0 24.792 12.35 24.998 22.708 0.028 0.092 0.042 0.19 0.042 0.292 0 0.552-0.448 1-1 1zM2.038 23h45.928c-0.682-9.298-10.668-20-22.96-20-12.3 0-22.29 10.702-22.968 20z" fill="#000000"></path>
	<path d="M39.228 47h-28.458c-0.31 0-0.602-0.144-0.792-0.386-2.608-3.366-3.982-7.378-3.982-11.614s1.376-8.248 3.982-11.612c0.19-0.244 0.482-0.388 0.792-0.388h28.458c0.308 0 0.602 0.144 0.792 0.388 2.606 3.364 3.982 7.38 3.982 11.612s-1.376 8.248-3.982 11.614c-0.192 0.242-0.484 0.386-0.792 0.386zM11.272 45h27.458c2.138-2.93 3.272-6.376 3.272-10s-1.13-7.070-3.272-10h-27.458c-2.142 2.93-3.272 6.376-3.272 10s1.13 7.070 3.272 10z" fill="#000000"></path>
	<path d="M9 20c-1.654 0-3-1.346-3-3s1.346-3 3-3c1.654 0 3 1.346 3 3s-1.346 3-3 3zM9 16c-0.552 0-1 0.448-1 1s0.448 1 1 1c0.55 0 1-0.448 1-1s-0.448-1-1-1z" fill="#000000"></path>
	<path d="M41 20c-1.654 0-3-1.346-3-3s1.346-3 3-3c1.652 0 3 1.346 3 3s-1.348 3-3 3zM41 16c-0.552 0-1 0.448-1 1s0.448 1 1 1c0.55 0 1-0.448 1-1s-0.448-1-1-1z" fill="#000000"></path>
	<path d="M25 20c-3.862 0-7-3.14-7-7s3.14-7 7-7c3.86 0 7 3.14 7 7s-3.14 7-7 7zM25 8c-2.756 0-5 2.244-5 5s2.244 5 5 5c2.756 0 5-2.244 5-5s-2.244-5-5-5z" fill="#000000"></path>
</svg>
