<?xml version="1.0" encoding="utf-8"?>
<!-- Generated by IcoMoon.io -->
<!DOCTYPE svg PUBLIC "-//W3C//DTD SVG 1.1//EN" "http://www.w3.org/Graphics/SVG/1.1/DTD/svg11.dtd">
<svg version="1.1" xmlns="http://www.w3.org/2000/svg" xmlns:xlink="http://www.w3.org/1999/xlink" width="48" height="48" viewBox="0 0 48 48">
<g id="icomoon-ignore">
	<line stroke-width="1" x1="" y1="" x2="" y2="" stroke="#449FDB" opacity=""></line>
</g>
	<path d="M40.002 38.81h-32c-0.266 0-0.52-0.106-0.708-0.292-0.9-0.9-1.708-2.36-2.568-3.902-0.686-1.236-2.114-3.806-2.726-3.806-0.552 0-1-0.448-1-1 0-0.55 0.448-1 1-1h44c0.55 0 1 0.45 1 1 0 0.552-0.45 1-1 1-0.614 0-2.040 2.57-2.726 3.806-0.858 1.542-1.668 3.002-2.566 3.902-0.186 0.188-0.44 0.292-0.706 0.292zM8.444 36.81h31.114c0.63-0.756 1.308-1.978 1.968-3.166 0.58-1.042 1.126-2.028 1.692-2.834h-38.432c0.564 0.806 1.112 1.792 1.692 2.834 0.658 1.188 1.336 2.41 1.966 3.166z" fill="#000000"></path>
	<path d="M41.002 29.81c-0.552 0-1-0.448-1-1 0-3.308-2.694-6-6-6h-1c-0.552 0-1-0.448-1-1v-1c0-3.308-2.694-6-6-6-0.552 0-1-0.448-1-1 0-0.55 0.448-1 1-1 4.412 0 8 3.588 8 8 4.412 0 8 3.588 8 8 0 0.554-0.448 1-1 1z" fill="#000000"></path>
	<path d="M16.168 29.81c-0.552 0-1-0.448-1-1 0-2.674 2.462-5.014 4.838-5.55 0.126-2.976 2.782-5.45 5.912-5.45 0.55 0 1 0.45 1 1 0 0.552-0.45 1-1 1-2.086 0-3.916 1.714-3.916 3.668v0.664c0 0.552-0.448 1-1 1-1.48 0-3.834 1.678-3.834 3.668 0 0.554-0.448 1-1 1z" fill="#000000"></path>
	<path d="M6.158 29.81c-0.552 0-1-0.448-1-1 0-5.55 3.436-9.25 8.844-9.652v-0.278c0-5.252 4.686-9.692 10.232-9.692 0.552 0 1 0.448 1 1 0 0.55-0.448 1-1 1-4.386 0-8.232 3.594-8.232 7.692v1.24c0 0.55-0.448 1-1 1-4.912 0-7.844 2.876-7.844 7.69 0 0.554-0.448 1-1 1z" fill="#000000"></path>
</svg>
