<?xml version="1.0" encoding="utf-8"?>
<!-- Generated by IcoMoon.io -->
<!DOCTYPE svg PUBLIC "-//W3C//DTD SVG 1.1//EN" "http://www.w3.org/Graphics/SVG/1.1/DTD/svg11.dtd">
<svg version="1.1" xmlns="http://www.w3.org/2000/svg" xmlns:xlink="http://www.w3.org/1999/xlink" width="48" height="48" viewBox="0 0 48 48">
<g id="icomoon-ignore">
	<line stroke-width="1" x1="" y1="" x2="" y2="" stroke="#449FDB" opacity=""></line>
</g>
	<path d="M24 47.554c-0.552 0-1-0.45-1-1v-24c0-0.552 0.448-1 1-1s1 0.448 1 1v24c0 0.552-0.448 1-1 1z" fill="#000000"></path>
	<path d="M24 22.666c-3.982 0-8-2.956-8-9.556 0-5.978 3.42-12.666 8-12.666s8 6.688 8 12.666c0 6.6-4.018 9.556-8 9.556zM24 2.442c-3.028 0-6 5.284-6 10.666 0 4.59 2.356 7.556 6 7.556s6-2.966 6-7.556c0-5.382-2.972-10.666-6-10.666z" fill="#000000"></path>
</svg>
