<?xml version="1.0" encoding="utf-8"?>
<!-- Generated by IcoMoon.io -->
<!DOCTYPE svg PUBLIC "-//W3C//DTD SVG 1.1//EN" "http://www.w3.org/Graphics/SVG/1.1/DTD/svg11.dtd">
<svg version="1.1" xmlns="http://www.w3.org/2000/svg" xmlns:xlink="http://www.w3.org/1999/xlink" width="48" height="48" viewBox="0 0 48 48">
<g id="icomoon-ignore">
	<line stroke-width="1" x1="" y1="" x2="" y2="" stroke="#449FDB" opacity=""></line>
</g>
	<path d="M30.918 48h-13.834c-0.55 0-0.998-0.446-1-0.996l-0.076-26.496c-0.004-1.184 0.476-2.346 1.314-3.186 0.84-0.84 2-1.322 3.182-1.322h0.496v-10h-1c-0.55 0-1-0.45-1-1v-4c0-0.552 0.45-1 1-1h8c0.552 0 1 0.448 1 1v4c0 0.55-0.448 1-1 1h-1v10h0.496c1.184 0 2.344 0.482 3.18 1.32 0.84 0.84 1.32 2.002 1.316 3.188l-0.074 26.492c0 0.554-0.45 1-1 1zM18.082 46h11.84l0.070-25.498c0-0.658-0.266-1.302-0.73-1.77-0.466-0.466-1.11-0.732-1.766-0.732h-1.496c-0.55 0-1-0.448-1-1v-12c0-0.552 0.45-1 1-1h1v-2h-6v2h1c0.552 0 1 0.448 1 1v12c0 0.55-0.448 1-1 1h-1.494c-0.658 0-1.3 0.266-1.766 0.734-0.464 0.466-0.732 1.108-0.73 1.766l0.072 25.5z" fill="#000000"></path>
</svg>
