<svg width="149" height="11" viewBox="0 0 149 11" fill="none" xmlns="http://www.w3.org/2000/svg">
<path d="M147.137 0C143.222 0 141.232 2.362 139.633 4.26C138.054 6.133 137.061 7.192 135.017 7.192C132.972 7.192 131.981 6.132 130.402 4.26C128.804 2.362 126.814 0 122.898 0C118.984 0 116.994 2.363 115.395 4.26C113.82 6.133 112.827 7.192 110.786 7.192C108.747 7.192 107.756 6.132 106.181 4.261C104.584 2.363 102.596 0 98.683 0C94.771 0 92.783 2.362 91.184 4.26C89.609 6.133 88.618 7.192 86.575 7.192C84.536 7.192 83.545 6.133 81.97 4.261C80.373 2.363 78.385 0 74.47 0C70.559 0 68.57 2.362 66.974 4.26C65.398 6.133 64.407 7.192 62.366 7.192C60.328 7.192 59.336 6.133 57.761 4.261C56.164 2.363 54.176 0 50.262 0C46.35 0 44.364 2.363 42.767 4.26C41.191 6.133 40.202 7.192 38.163 7.192C36.126 7.192 35.135 6.132 33.561 4.261C31.966 2.363 29.981 0 26.07 0C22.155 0 20.167 2.363 18.57 4.26C16.995 6.133 16.004 7.192 13.965 7.192C11.926 7.192 10.935 6.132 9.36 4.261C7.763 2.363 5.775 0 1.863 0C0.832 0 0 0.805 0 1.798C0 2.791 0.833 3.596 1.863 3.596C3.901 3.596 4.893 4.656 6.468 6.528C8.065 8.426 10.053 10.788 13.965 10.788C17.877 10.788 19.865 8.427 21.462 6.528C23.038 4.656 24.029 3.596 26.07 3.596C28.107 3.596 29.096 4.655 30.67 6.526C32.265 8.426 34.253 10.788 38.163 10.788C42.075 10.788 44.062 8.426 45.659 6.528C47.234 4.656 48.223 3.596 50.262 3.596C52.302 3.596 53.294 4.656 54.869 6.529C56.466 8.427 58.454 10.789 62.366 10.789C66.281 10.789 68.269 8.426 69.866 6.528C71.441 4.655 72.432 3.596 74.471 3.596C76.511 3.596 77.503 4.656 79.078 6.529C80.675 8.427 82.663 10.789 86.575 10.789C90.489 10.789 92.477 8.426 94.076 6.528C95.651 4.656 96.643 3.596 98.683 3.596C100.723 3.596 101.713 4.656 103.289 6.528C104.886 8.426 106.874 10.788 110.786 10.788C114.7 10.788 116.688 8.427 118.286 6.528C119.864 4.656 120.856 3.596 122.898 3.596C124.942 3.596 125.935 4.656 127.514 6.529C129.113 8.427 131.103 10.789 135.017 10.789C138.933 10.789 140.922 8.427 142.521 6.529C144.1 4.656 145.093 3.596 147.138 3.596C148.167 3.596 149 2.791 149 1.798C149 0.805 148.167 0 147.137 0Z" fill="#043E30"/>
</svg>
