<svg width="202" height="202" viewBox="0 0 202 202" fill="none" xmlns="http://www.w3.org/2000/svg">
<path d="M2.17883 3.28345C3.00726 3.28345 3.67883 2.61187 3.67883 1.78345C3.67883 0.95502 3.00726 0.283447 2.17883 0.283447C1.35041 0.283447 0.678833 0.95502 0.678833 1.78345C0.678833 2.61187 1.35041 3.28345 2.17883 3.28345Z" fill="#93F17C"/>
<path d="M20.1788 3.28345C21.0072 3.28345 21.6788 2.61187 21.6788 1.78345C21.6788 0.95502 21.0072 0.283447 20.1788 0.283447C19.3504 0.283447 18.6788 0.95502 18.6788 1.78345C18.6788 2.61187 19.3504 3.28345 20.1788 3.28345Z" fill="#93F17C"/>
<path d="M38.1788 3.28345C39.0072 3.28345 39.6788 2.61187 39.6788 1.78345C39.6788 0.95502 39.0072 0.283447 38.1788 0.283447C37.3504 0.283447 36.6788 0.95502 36.6788 1.78345C36.6788 2.61187 37.3504 3.28345 38.1788 3.28345Z" fill="#93F17C"/>
<path d="M56.1788 3.28345C57.0072 3.28345 57.6788 2.61187 57.6788 1.78345C57.6788 0.95502 57.0072 0.283447 56.1788 0.283447C55.3504 0.283447 54.6788 0.95502 54.6788 1.78345C54.6788 2.61187 55.3504 3.28345 56.1788 3.28345Z" fill="#93F17C"/>
<path d="M74.1788 3.28345C75.0072 3.28345 75.6788 2.61187 75.6788 1.78345C75.6788 0.95502 75.0072 0.283447 74.1788 0.283447C73.3504 0.283447 72.6788 0.95502 72.6788 1.78345C72.6788 2.61187 73.3504 3.28345 74.1788 3.28345Z" fill="#93F17C"/>
<path d="M92.1788 3.28345C93.0072 3.28345 93.6788 2.61187 93.6788 1.78345C93.6788 0.95502 93.0072 0.283447 92.1788 0.283447C91.3504 0.283447 90.6788 0.95502 90.6788 1.78345C90.6788 2.61187 91.3504 3.28345 92.1788 3.28345Z" fill="#93F17C"/>
<path d="M110.179 3.28345C111.007 3.28345 111.679 2.61187 111.679 1.78345C111.679 0.95502 111.007 0.283447 110.179 0.283447C109.351 0.283447 108.679 0.95502 108.679 1.78345C108.679 2.61187 109.351 3.28345 110.179 3.28345Z" fill="#93F17C"/>
<path d="M128.179 3.28345C129.007 3.28345 129.679 2.61187 129.679 1.78345C129.679 0.95502 129.007 0.283447 128.179 0.283447C127.351 0.283447 126.679 0.95502 126.679 1.78345C126.679 2.61187 127.351 3.28345 128.179 3.28345Z" fill="#93F17C"/>
<path d="M146.179 3.28345C147.007 3.28345 147.679 2.61187 147.679 1.78345C147.679 0.95502 147.007 0.283447 146.179 0.283447C145.351 0.283447 144.679 0.95502 144.679 1.78345C144.679 2.61187 145.351 3.28345 146.179 3.28345Z" fill="#93F17C"/>
<path d="M164.179 3.28345C165.007 3.28345 165.679 2.61187 165.679 1.78345C165.679 0.95502 165.007 0.283447 164.179 0.283447C163.351 0.283447 162.679 0.95502 162.679 1.78345C162.679 2.61187 163.351 3.28345 164.179 3.28345Z" fill="#93F17C"/>
<path d="M182.179 3.28345C183.007 3.28345 183.679 2.61187 183.679 1.78345C183.679 0.95502 183.007 0.283447 182.179 0.283447C181.351 0.283447 180.679 0.95502 180.679 1.78345C180.679 2.61187 181.351 3.28345 182.179 3.28345Z" fill="#93F17C"/>
<path d="M200.179 3.28345C201.007 3.28345 201.679 2.61187 201.679 1.78345C201.679 0.95502 201.007 0.283447 200.179 0.283447C199.351 0.283447 198.679 0.95502 198.679 1.78345C198.679 2.61187 199.351 3.28345 200.179 3.28345Z" fill="#93F17C"/>
<path d="M2.17883 21.2834C3.00726 21.2834 3.67883 20.6118 3.67883 19.7834C3.67883 18.955 3.00726 18.2834 2.17883 18.2834C1.35041 18.2834 0.678833 18.955 0.678833 19.7834C0.678833 20.6118 1.35041 21.2834 2.17883 21.2834Z" fill="#93F17C"/>
<path d="M20.1788 21.2834C21.0072 21.2834 21.6788 20.6118 21.6788 19.7834C21.6788 18.955 21.0072 18.2834 20.1788 18.2834C19.3504 18.2834 18.6788 18.955 18.6788 19.7834C18.6788 20.6118 19.3504 21.2834 20.1788 21.2834Z" fill="#93F17C"/>
<path d="M38.1788 21.2834C39.0072 21.2834 39.6788 20.6118 39.6788 19.7834C39.6788 18.955 39.0072 18.2834 38.1788 18.2834C37.3504 18.2834 36.6788 18.955 36.6788 19.7834C36.6788 20.6118 37.3504 21.2834 38.1788 21.2834Z" fill="#93F17C"/>
<path d="M56.1788 21.2834C57.0072 21.2834 57.6788 20.6118 57.6788 19.7834C57.6788 18.955 57.0072 18.2834 56.1788 18.2834C55.3504 18.2834 54.6788 18.955 54.6788 19.7834C54.6788 20.6118 55.3504 21.2834 56.1788 21.2834Z" fill="#93F17C"/>
<path d="M74.1788 21.2834C75.0072 21.2834 75.6788 20.6118 75.6788 19.7834C75.6788 18.955 75.0072 18.2834 74.1788 18.2834C73.3504 18.2834 72.6788 18.955 72.6788 19.7834C72.6788 20.6118 73.3504 21.2834 74.1788 21.2834Z" fill="#93F17C"/>
<path d="M92.1788 21.2834C93.0072 21.2834 93.6788 20.6118 93.6788 19.7834C93.6788 18.955 93.0072 18.2834 92.1788 18.2834C91.3504 18.2834 90.6788 18.955 90.6788 19.7834C90.6788 20.6118 91.3504 21.2834 92.1788 21.2834Z" fill="#93F17C"/>
<path d="M110.179 21.2834C111.007 21.2834 111.679 20.6118 111.679 19.7834C111.679 18.955 111.007 18.2834 110.179 18.2834C109.351 18.2834 108.679 18.955 108.679 19.7834C108.679 20.6118 109.351 21.2834 110.179 21.2834Z" fill="#93F17C"/>
<path d="M128.179 21.2834C129.007 21.2834 129.679 20.6118 129.679 19.7834C129.679 18.955 129.007 18.2834 128.179 18.2834C127.351 18.2834 126.679 18.955 126.679 19.7834C126.679 20.6118 127.351 21.2834 128.179 21.2834Z" fill="#93F17C"/>
<path d="M146.179 21.2834C147.007 21.2834 147.679 20.6118 147.679 19.7834C147.679 18.955 147.007 18.2834 146.179 18.2834C145.351 18.2834 144.679 18.955 144.679 19.7834C144.679 20.6118 145.351 21.2834 146.179 21.2834Z" fill="#93F17C"/>
<path d="M164.179 21.2834C165.007 21.2834 165.679 20.6118 165.679 19.7834C165.679 18.955 165.007 18.2834 164.179 18.2834C163.351 18.2834 162.679 18.955 162.679 19.7834C162.679 20.6118 163.351 21.2834 164.179 21.2834Z" fill="#93F17C"/>
<path d="M182.179 21.2834C183.007 21.2834 183.679 20.6118 183.679 19.7834C183.679 18.955 183.007 18.2834 182.179 18.2834C181.351 18.2834 180.679 18.955 180.679 19.7834C180.679 20.6118 181.351 21.2834 182.179 21.2834Z" fill="#93F17C"/>
<path d="M200.179 21.2834C201.007 21.2834 201.679 20.6118 201.679 19.7834C201.679 18.955 201.007 18.2834 200.179 18.2834C199.351 18.2834 198.679 18.955 198.679 19.7834C198.679 20.6118 199.351 21.2834 200.179 21.2834Z" fill="#93F17C"/>
<path d="M2.17883 39.2834C3.00726 39.2834 3.67883 38.6118 3.67883 37.7834C3.67883 36.955 3.00726 36.2834 2.17883 36.2834C1.35041 36.2834 0.678833 36.955 0.678833 37.7834C0.678833 38.6118 1.35041 39.2834 2.17883 39.2834Z" fill="#93F17C"/>
<path d="M20.1788 39.2834C21.0072 39.2834 21.6788 38.6118 21.6788 37.7834C21.6788 36.955 21.0072 36.2834 20.1788 36.2834C19.3504 36.2834 18.6788 36.955 18.6788 37.7834C18.6788 38.6118 19.3504 39.2834 20.1788 39.2834Z" fill="#93F17C"/>
<path d="M38.1788 39.2834C39.0072 39.2834 39.6788 38.6118 39.6788 37.7834C39.6788 36.955 39.0072 36.2834 38.1788 36.2834C37.3504 36.2834 36.6788 36.955 36.6788 37.7834C36.6788 38.6118 37.3504 39.2834 38.1788 39.2834Z" fill="#93F17C"/>
<path d="M56.1788 39.2834C57.0072 39.2834 57.6788 38.6118 57.6788 37.7834C57.6788 36.955 57.0072 36.2834 56.1788 36.2834C55.3504 36.2834 54.6788 36.955 54.6788 37.7834C54.6788 38.6118 55.3504 39.2834 56.1788 39.2834Z" fill="#93F17C"/>
<path d="M74.1788 39.2834C75.0072 39.2834 75.6788 38.6118 75.6788 37.7834C75.6788 36.955 75.0072 36.2834 74.1788 36.2834C73.3504 36.2834 72.6788 36.955 72.6788 37.7834C72.6788 38.6118 73.3504 39.2834 74.1788 39.2834Z" fill="#93F17C"/>
<path d="M92.1788 39.2834C93.0072 39.2834 93.6788 38.6118 93.6788 37.7834C93.6788 36.955 93.0072 36.2834 92.1788 36.2834C91.3504 36.2834 90.6788 36.955 90.6788 37.7834C90.6788 38.6118 91.3504 39.2834 92.1788 39.2834Z" fill="#93F17C"/>
<path d="M110.179 39.2834C111.007 39.2834 111.679 38.6118 111.679 37.7834C111.679 36.955 111.007 36.2834 110.179 36.2834C109.351 36.2834 108.679 36.955 108.679 37.7834C108.679 38.6118 109.351 39.2834 110.179 39.2834Z" fill="#93F17C"/>
<path d="M128.179 39.2834C129.007 39.2834 129.679 38.6118 129.679 37.7834C129.679 36.955 129.007 36.2834 128.179 36.2834C127.351 36.2834 126.679 36.955 126.679 37.7834C126.679 38.6118 127.351 39.2834 128.179 39.2834Z" fill="#93F17C"/>
<path d="M146.179 39.2834C147.007 39.2834 147.679 38.6118 147.679 37.7834C147.679 36.955 147.007 36.2834 146.179 36.2834C145.351 36.2834 144.679 36.955 144.679 37.7834C144.679 38.6118 145.351 39.2834 146.179 39.2834Z" fill="#93F17C"/>
<path d="M164.179 39.2834C165.007 39.2834 165.679 38.6118 165.679 37.7834C165.679 36.955 165.007 36.2834 164.179 36.2834C163.351 36.2834 162.679 36.955 162.679 37.7834C162.679 38.6118 163.351 39.2834 164.179 39.2834Z" fill="#93F17C"/>
<path d="M182.179 39.2834C183.007 39.2834 183.679 38.6118 183.679 37.7834C183.679 36.955 183.007 36.2834 182.179 36.2834C181.351 36.2834 180.679 36.955 180.679 37.7834C180.679 38.6118 181.351 39.2834 182.179 39.2834Z" fill="#93F17C"/>
<path d="M200.179 39.2834C201.007 39.2834 201.679 38.6118 201.679 37.7834C201.679 36.955 201.007 36.2834 200.179 36.2834C199.351 36.2834 198.679 36.955 198.679 37.7834C198.679 38.6118 199.351 39.2834 200.179 39.2834Z" fill="#93F17C"/>
<path d="M2.17883 57.2834C3.00726 57.2834 3.67883 56.6118 3.67883 55.7834C3.67883 54.955 3.00726 54.2834 2.17883 54.2834C1.35041 54.2834 0.678833 54.955 0.678833 55.7834C0.678833 56.6118 1.35041 57.2834 2.17883 57.2834Z" fill="#93F17C"/>
<path d="M20.1788 57.2834C21.0072 57.2834 21.6788 56.6118 21.6788 55.7834C21.6788 54.955 21.0072 54.2834 20.1788 54.2834C19.3504 54.2834 18.6788 54.955 18.6788 55.7834C18.6788 56.6118 19.3504 57.2834 20.1788 57.2834Z" fill="#93F17C"/>
<path d="M38.1788 57.2834C39.0072 57.2834 39.6788 56.6118 39.6788 55.7834C39.6788 54.955 39.0072 54.2834 38.1788 54.2834C37.3504 54.2834 36.6788 54.955 36.6788 55.7834C36.6788 56.6118 37.3504 57.2834 38.1788 57.2834Z" fill="#93F17C"/>
<path d="M56.1788 57.2834C57.0072 57.2834 57.6788 56.6118 57.6788 55.7834C57.6788 54.955 57.0072 54.2834 56.1788 54.2834C55.3504 54.2834 54.6788 54.955 54.6788 55.7834C54.6788 56.6118 55.3504 57.2834 56.1788 57.2834Z" fill="#93F17C"/>
<path d="M74.1788 57.2834C75.0072 57.2834 75.6788 56.6118 75.6788 55.7834C75.6788 54.955 75.0072 54.2834 74.1788 54.2834C73.3504 54.2834 72.6788 54.955 72.6788 55.7834C72.6788 56.6118 73.3504 57.2834 74.1788 57.2834Z" fill="#93F17C"/>
<path d="M92.1788 57.2834C93.0072 57.2834 93.6788 56.6118 93.6788 55.7834C93.6788 54.955 93.0072 54.2834 92.1788 54.2834C91.3504 54.2834 90.6788 54.955 90.6788 55.7834C90.6788 56.6118 91.3504 57.2834 92.1788 57.2834Z" fill="#93F17C"/>
<path d="M110.179 57.2834C111.007 57.2834 111.679 56.6118 111.679 55.7834C111.679 54.955 111.007 54.2834 110.179 54.2834C109.351 54.2834 108.679 54.955 108.679 55.7834C108.679 56.6118 109.351 57.2834 110.179 57.2834Z" fill="#93F17C"/>
<path d="M128.179 57.2834C129.007 57.2834 129.679 56.6118 129.679 55.7834C129.679 54.955 129.007 54.2834 128.179 54.2834C127.351 54.2834 126.679 54.955 126.679 55.7834C126.679 56.6118 127.351 57.2834 128.179 57.2834Z" fill="#93F17C"/>
<path d="M146.179 57.2834C147.007 57.2834 147.679 56.6118 147.679 55.7834C147.679 54.955 147.007 54.2834 146.179 54.2834C145.351 54.2834 144.679 54.955 144.679 55.7834C144.679 56.6118 145.351 57.2834 146.179 57.2834Z" fill="#93F17C"/>
<path d="M164.179 57.2834C165.007 57.2834 165.679 56.6118 165.679 55.7834C165.679 54.955 165.007 54.2834 164.179 54.2834C163.351 54.2834 162.679 54.955 162.679 55.7834C162.679 56.6118 163.351 57.2834 164.179 57.2834Z" fill="#93F17C"/>
<path d="M182.179 57.2834C183.007 57.2834 183.679 56.6118 183.679 55.7834C183.679 54.955 183.007 54.2834 182.179 54.2834C181.351 54.2834 180.679 54.955 180.679 55.7834C180.679 56.6118 181.351 57.2834 182.179 57.2834Z" fill="#93F17C"/>
<path d="M200.179 57.2834C201.007 57.2834 201.679 56.6118 201.679 55.7834C201.679 54.955 201.007 54.2834 200.179 54.2834C199.351 54.2834 198.679 54.955 198.679 55.7834C198.679 56.6118 199.351 57.2834 200.179 57.2834Z" fill="#93F17C"/>
<path d="M2.17883 75.2834C3.00726 75.2834 3.67883 74.6118 3.67883 73.7834C3.67883 72.955 3.00726 72.2834 2.17883 72.2834C1.35041 72.2834 0.678833 72.955 0.678833 73.7834C0.678833 74.6118 1.35041 75.2834 2.17883 75.2834Z" fill="#93F17C"/>
<path d="M20.1788 75.2834C21.0072 75.2834 21.6788 74.6118 21.6788 73.7834C21.6788 72.955 21.0072 72.2834 20.1788 72.2834C19.3504 72.2834 18.6788 72.955 18.6788 73.7834C18.6788 74.6118 19.3504 75.2834 20.1788 75.2834Z" fill="#93F17C"/>
<path d="M38.1788 75.2834C39.0072 75.2834 39.6788 74.6118 39.6788 73.7834C39.6788 72.955 39.0072 72.2834 38.1788 72.2834C37.3504 72.2834 36.6788 72.955 36.6788 73.7834C36.6788 74.6118 37.3504 75.2834 38.1788 75.2834Z" fill="#93F17C"/>
<path d="M56.1788 75.2834C57.0072 75.2834 57.6788 74.6118 57.6788 73.7834C57.6788 72.955 57.0072 72.2834 56.1788 72.2834C55.3504 72.2834 54.6788 72.955 54.6788 73.7834C54.6788 74.6118 55.3504 75.2834 56.1788 75.2834Z" fill="#93F17C"/>
<path d="M74.1788 75.2834C75.0072 75.2834 75.6788 74.6118 75.6788 73.7834C75.6788 72.955 75.0072 72.2834 74.1788 72.2834C73.3504 72.2834 72.6788 72.955 72.6788 73.7834C72.6788 74.6118 73.3504 75.2834 74.1788 75.2834Z" fill="#93F17C"/>
<path d="M92.1788 75.2834C93.0072 75.2834 93.6788 74.6118 93.6788 73.7834C93.6788 72.955 93.0072 72.2834 92.1788 72.2834C91.3504 72.2834 90.6788 72.955 90.6788 73.7834C90.6788 74.6118 91.3504 75.2834 92.1788 75.2834Z" fill="#93F17C"/>
<path d="M110.179 75.2834C111.007 75.2834 111.679 74.6118 111.679 73.7834C111.679 72.955 111.007 72.2834 110.179 72.2834C109.351 72.2834 108.679 72.955 108.679 73.7834C108.679 74.6118 109.351 75.2834 110.179 75.2834Z" fill="#93F17C"/>
<path d="M128.179 75.2834C129.007 75.2834 129.679 74.6118 129.679 73.7834C129.679 72.955 129.007 72.2834 128.179 72.2834C127.351 72.2834 126.679 72.955 126.679 73.7834C126.679 74.6118 127.351 75.2834 128.179 75.2834Z" fill="#93F17C"/>
<path d="M146.179 75.2834C147.007 75.2834 147.679 74.6118 147.679 73.7834C147.679 72.955 147.007 72.2834 146.179 72.2834C145.351 72.2834 144.679 72.955 144.679 73.7834C144.679 74.6118 145.351 75.2834 146.179 75.2834Z" fill="#93F17C"/>
<path d="M164.179 75.2834C165.007 75.2834 165.679 74.6118 165.679 73.7834C165.679 72.955 165.007 72.2834 164.179 72.2834C163.351 72.2834 162.679 72.955 162.679 73.7834C162.679 74.6118 163.351 75.2834 164.179 75.2834Z" fill="#93F17C"/>
<path d="M182.179 75.2834C183.007 75.2834 183.679 74.6118 183.679 73.7834C183.679 72.955 183.007 72.2834 182.179 72.2834C181.351 72.2834 180.679 72.955 180.679 73.7834C180.679 74.6118 181.351 75.2834 182.179 75.2834Z" fill="#93F17C"/>
<path d="M200.179 75.2834C201.007 75.2834 201.679 74.6118 201.679 73.7834C201.679 72.955 201.007 72.2834 200.179 72.2834C199.351 72.2834 198.679 72.955 198.679 73.7834C198.679 74.6118 199.351 75.2834 200.179 75.2834Z" fill="#93F17C"/>
<path d="M2.17883 93.2834C3.00726 93.2834 3.67883 92.6118 3.67883 91.7834C3.67883 90.955 3.00726 90.2834 2.17883 90.2834C1.35041 90.2834 0.678833 90.955 0.678833 91.7834C0.678833 92.6118 1.35041 93.2834 2.17883 93.2834Z" fill="#93F17C"/>
<path d="M20.1788 93.2834C21.0072 93.2834 21.6788 92.6118 21.6788 91.7834C21.6788 90.955 21.0072 90.2834 20.1788 90.2834C19.3504 90.2834 18.6788 90.955 18.6788 91.7834C18.6788 92.6118 19.3504 93.2834 20.1788 93.2834Z" fill="#93F17C"/>
<path d="M38.1788 93.2834C39.0072 93.2834 39.6788 92.6118 39.6788 91.7834C39.6788 90.955 39.0072 90.2834 38.1788 90.2834C37.3504 90.2834 36.6788 90.955 36.6788 91.7834C36.6788 92.6118 37.3504 93.2834 38.1788 93.2834Z" fill="#93F17C"/>
<path d="M56.1788 93.2834C57.0072 93.2834 57.6788 92.6118 57.6788 91.7834C57.6788 90.955 57.0072 90.2834 56.1788 90.2834C55.3504 90.2834 54.6788 90.955 54.6788 91.7834C54.6788 92.6118 55.3504 93.2834 56.1788 93.2834Z" fill="#93F17C"/>
<path d="M74.1788 93.2834C75.0072 93.2834 75.6788 92.6118 75.6788 91.7834C75.6788 90.955 75.0072 90.2834 74.1788 90.2834C73.3504 90.2834 72.6788 90.955 72.6788 91.7834C72.6788 92.6118 73.3504 93.2834 74.1788 93.2834Z" fill="#93F17C"/>
<path d="M92.1788 93.2834C93.0072 93.2834 93.6788 92.6118 93.6788 91.7834C93.6788 90.955 93.0072 90.2834 92.1788 90.2834C91.3504 90.2834 90.6788 90.955 90.6788 91.7834C90.6788 92.6118 91.3504 93.2834 92.1788 93.2834Z" fill="#93F17C"/>
<path d="M110.179 93.2834C111.007 93.2834 111.679 92.6118 111.679 91.7834C111.679 90.955 111.007 90.2834 110.179 90.2834C109.351 90.2834 108.679 90.955 108.679 91.7834C108.679 92.6118 109.351 93.2834 110.179 93.2834Z" fill="#93F17C"/>
<path d="M128.179 93.2834C129.007 93.2834 129.679 92.6118 129.679 91.7834C129.679 90.955 129.007 90.2834 128.179 90.2834C127.351 90.2834 126.679 90.955 126.679 91.7834C126.679 92.6118 127.351 93.2834 128.179 93.2834Z" fill="#93F17C"/>
<path d="M146.179 93.2834C147.007 93.2834 147.679 92.6118 147.679 91.7834C147.679 90.955 147.007 90.2834 146.179 90.2834C145.351 90.2834 144.679 90.955 144.679 91.7834C144.679 92.6118 145.351 93.2834 146.179 93.2834Z" fill="#93F17C"/>
<path d="M164.179 93.2834C165.007 93.2834 165.679 92.6118 165.679 91.7834C165.679 90.955 165.007 90.2834 164.179 90.2834C163.351 90.2834 162.679 90.955 162.679 91.7834C162.679 92.6118 163.351 93.2834 164.179 93.2834Z" fill="#93F17C"/>
<path d="M182.179 93.2834C183.007 93.2834 183.679 92.6118 183.679 91.7834C183.679 90.955 183.007 90.2834 182.179 90.2834C181.351 90.2834 180.679 90.955 180.679 91.7834C180.679 92.6118 181.351 93.2834 182.179 93.2834Z" fill="#93F17C"/>
<path d="M200.179 93.2834C201.007 93.2834 201.679 92.6118 201.679 91.7834C201.679 90.955 201.007 90.2834 200.179 90.2834C199.351 90.2834 198.679 90.955 198.679 91.7834C198.679 92.6118 199.351 93.2834 200.179 93.2834Z" fill="#93F17C"/>
<path d="M2.17883 111.283C3.00726 111.283 3.67883 110.611 3.67883 109.783C3.67883 108.955 3.00726 108.283 2.17883 108.283C1.35041 108.283 0.678833 108.955 0.678833 109.783C0.678833 110.611 1.35041 111.283 2.17883 111.283Z" fill="#93F17C"/>
<path d="M20.1788 111.283C21.0072 111.283 21.6788 110.611 21.6788 109.783C21.6788 108.955 21.0072 108.283 20.1788 108.283C19.3504 108.283 18.6788 108.955 18.6788 109.783C18.6788 110.611 19.3504 111.283 20.1788 111.283Z" fill="#93F17C"/>
<path d="M38.1788 111.283C39.0072 111.283 39.6788 110.611 39.6788 109.783C39.6788 108.955 39.0072 108.283 38.1788 108.283C37.3504 108.283 36.6788 108.955 36.6788 109.783C36.6788 110.611 37.3504 111.283 38.1788 111.283Z" fill="#93F17C"/>
<path d="M56.1788 111.283C57.0072 111.283 57.6788 110.611 57.6788 109.783C57.6788 108.955 57.0072 108.283 56.1788 108.283C55.3504 108.283 54.6788 108.955 54.6788 109.783C54.6788 110.611 55.3504 111.283 56.1788 111.283Z" fill="#93F17C"/>
<path d="M74.1788 111.283C75.0072 111.283 75.6788 110.611 75.6788 109.783C75.6788 108.955 75.0072 108.283 74.1788 108.283C73.3504 108.283 72.6788 108.955 72.6788 109.783C72.6788 110.611 73.3504 111.283 74.1788 111.283Z" fill="#93F17C"/>
<path d="M92.1788 111.283C93.0072 111.283 93.6788 110.611 93.6788 109.783C93.6788 108.955 93.0072 108.283 92.1788 108.283C91.3504 108.283 90.6788 108.955 90.6788 109.783C90.6788 110.611 91.3504 111.283 92.1788 111.283Z" fill="#93F17C"/>
<path d="M110.179 111.283C111.007 111.283 111.679 110.611 111.679 109.783C111.679 108.955 111.007 108.283 110.179 108.283C109.351 108.283 108.679 108.955 108.679 109.783C108.679 110.611 109.351 111.283 110.179 111.283Z" fill="#93F17C"/>
<path d="M128.179 111.283C129.007 111.283 129.679 110.611 129.679 109.783C129.679 108.955 129.007 108.283 128.179 108.283C127.351 108.283 126.679 108.955 126.679 109.783C126.679 110.611 127.351 111.283 128.179 111.283Z" fill="#93F17C"/>
<path d="M146.179 111.283C147.007 111.283 147.679 110.611 147.679 109.783C147.679 108.955 147.007 108.283 146.179 108.283C145.351 108.283 144.679 108.955 144.679 109.783C144.679 110.611 145.351 111.283 146.179 111.283Z" fill="#93F17C"/>
<path d="M164.179 111.283C165.007 111.283 165.679 110.611 165.679 109.783C165.679 108.955 165.007 108.283 164.179 108.283C163.351 108.283 162.679 108.955 162.679 109.783C162.679 110.611 163.351 111.283 164.179 111.283Z" fill="#93F17C"/>
<path d="M182.179 111.283C183.007 111.283 183.679 110.611 183.679 109.783C183.679 108.955 183.007 108.283 182.179 108.283C181.351 108.283 180.679 108.955 180.679 109.783C180.679 110.611 181.351 111.283 182.179 111.283Z" fill="#93F17C"/>
<path d="M200.179 111.283C201.007 111.283 201.679 110.611 201.679 109.783C201.679 108.955 201.007 108.283 200.179 108.283C199.351 108.283 198.679 108.955 198.679 109.783C198.679 110.611 199.351 111.283 200.179 111.283Z" fill="#93F17C"/>
<path d="M2.17883 129.283C3.00726 129.283 3.67883 128.611 3.67883 127.783C3.67883 126.955 3.00726 126.283 2.17883 126.283C1.35041 126.283 0.678833 126.955 0.678833 127.783C0.678833 128.611 1.35041 129.283 2.17883 129.283Z" fill="#93F17C"/>
<path d="M20.1788 129.283C21.0072 129.283 21.6788 128.611 21.6788 127.783C21.6788 126.955 21.0072 126.283 20.1788 126.283C19.3504 126.283 18.6788 126.955 18.6788 127.783C18.6788 128.611 19.3504 129.283 20.1788 129.283Z" fill="#93F17C"/>
<path d="M38.1788 129.283C39.0072 129.283 39.6788 128.611 39.6788 127.783C39.6788 126.955 39.0072 126.283 38.1788 126.283C37.3504 126.283 36.6788 126.955 36.6788 127.783C36.6788 128.611 37.3504 129.283 38.1788 129.283Z" fill="#93F17C"/>
<path d="M56.1788 129.283C57.0072 129.283 57.6788 128.611 57.6788 127.783C57.6788 126.955 57.0072 126.283 56.1788 126.283C55.3504 126.283 54.6788 126.955 54.6788 127.783C54.6788 128.611 55.3504 129.283 56.1788 129.283Z" fill="#93F17C"/>
<path d="M74.1788 129.283C75.0072 129.283 75.6788 128.611 75.6788 127.783C75.6788 126.955 75.0072 126.283 74.1788 126.283C73.3504 126.283 72.6788 126.955 72.6788 127.783C72.6788 128.611 73.3504 129.283 74.1788 129.283Z" fill="#93F17C"/>
<path d="M92.1788 129.283C93.0072 129.283 93.6788 128.611 93.6788 127.783C93.6788 126.955 93.0072 126.283 92.1788 126.283C91.3504 126.283 90.6788 126.955 90.6788 127.783C90.6788 128.611 91.3504 129.283 92.1788 129.283Z" fill="#93F17C"/>
<path d="M110.179 129.283C111.007 129.283 111.679 128.611 111.679 127.783C111.679 126.955 111.007 126.283 110.179 126.283C109.351 126.283 108.679 126.955 108.679 127.783C108.679 128.611 109.351 129.283 110.179 129.283Z" fill="#93F17C"/>
<path d="M128.179 129.283C129.007 129.283 129.679 128.611 129.679 127.783C129.679 126.955 129.007 126.283 128.179 126.283C127.351 126.283 126.679 126.955 126.679 127.783C126.679 128.611 127.351 129.283 128.179 129.283Z" fill="#93F17C"/>
<path d="M146.179 129.283C147.007 129.283 147.679 128.611 147.679 127.783C147.679 126.955 147.007 126.283 146.179 126.283C145.351 126.283 144.679 126.955 144.679 127.783C144.679 128.611 145.351 129.283 146.179 129.283Z" fill="#93F17C"/>
<path d="M164.179 129.283C165.007 129.283 165.679 128.611 165.679 127.783C165.679 126.955 165.007 126.283 164.179 126.283C163.351 126.283 162.679 126.955 162.679 127.783C162.679 128.611 163.351 129.283 164.179 129.283Z" fill="#93F17C"/>
<path d="M182.179 129.283C183.007 129.283 183.679 128.611 183.679 127.783C183.679 126.955 183.007 126.283 182.179 126.283C181.351 126.283 180.679 126.955 180.679 127.783C180.679 128.611 181.351 129.283 182.179 129.283Z" fill="#93F17C"/>
<path d="M200.179 129.283C201.007 129.283 201.679 128.611 201.679 127.783C201.679 126.955 201.007 126.283 200.179 126.283C199.351 126.283 198.679 126.955 198.679 127.783C198.679 128.611 199.351 129.283 200.179 129.283Z" fill="#93F17C"/>
<path d="M2.17883 147.283C3.00726 147.283 3.67883 146.611 3.67883 145.783C3.67883 144.955 3.00726 144.283 2.17883 144.283C1.35041 144.283 0.678833 144.955 0.678833 145.783C0.678833 146.611 1.35041 147.283 2.17883 147.283Z" fill="#93F17C"/>
<path d="M20.1788 147.283C21.0072 147.283 21.6788 146.611 21.6788 145.783C21.6788 144.955 21.0072 144.283 20.1788 144.283C19.3504 144.283 18.6788 144.955 18.6788 145.783C18.6788 146.611 19.3504 147.283 20.1788 147.283Z" fill="#93F17C"/>
<path d="M38.1788 147.283C39.0072 147.283 39.6788 146.611 39.6788 145.783C39.6788 144.955 39.0072 144.283 38.1788 144.283C37.3504 144.283 36.6788 144.955 36.6788 145.783C36.6788 146.611 37.3504 147.283 38.1788 147.283Z" fill="#93F17C"/>
<path d="M56.1788 147.283C57.0072 147.283 57.6788 146.611 57.6788 145.783C57.6788 144.955 57.0072 144.283 56.1788 144.283C55.3504 144.283 54.6788 144.955 54.6788 145.783C54.6788 146.611 55.3504 147.283 56.1788 147.283Z" fill="#93F17C"/>
<path d="M74.1788 147.283C75.0072 147.283 75.6788 146.611 75.6788 145.783C75.6788 144.955 75.0072 144.283 74.1788 144.283C73.3504 144.283 72.6788 144.955 72.6788 145.783C72.6788 146.611 73.3504 147.283 74.1788 147.283Z" fill="#93F17C"/>
<path d="M92.1788 147.283C93.0072 147.283 93.6788 146.611 93.6788 145.783C93.6788 144.955 93.0072 144.283 92.1788 144.283C91.3504 144.283 90.6788 144.955 90.6788 145.783C90.6788 146.611 91.3504 147.283 92.1788 147.283Z" fill="#93F17C"/>
<path d="M110.179 147.283C111.007 147.283 111.679 146.611 111.679 145.783C111.679 144.955 111.007 144.283 110.179 144.283C109.351 144.283 108.679 144.955 108.679 145.783C108.679 146.611 109.351 147.283 110.179 147.283Z" fill="#93F17C"/>
<path d="M128.179 147.283C129.007 147.283 129.679 146.611 129.679 145.783C129.679 144.955 129.007 144.283 128.179 144.283C127.351 144.283 126.679 144.955 126.679 145.783C126.679 146.611 127.351 147.283 128.179 147.283Z" fill="#93F17C"/>
<path d="M146.179 147.283C147.007 147.283 147.679 146.611 147.679 145.783C147.679 144.955 147.007 144.283 146.179 144.283C145.351 144.283 144.679 144.955 144.679 145.783C144.679 146.611 145.351 147.283 146.179 147.283Z" fill="#93F17C"/>
<path d="M164.179 147.283C165.007 147.283 165.679 146.611 165.679 145.783C165.679 144.955 165.007 144.283 164.179 144.283C163.351 144.283 162.679 144.955 162.679 145.783C162.679 146.611 163.351 147.283 164.179 147.283Z" fill="#93F17C"/>
<path d="M182.179 147.283C183.007 147.283 183.679 146.611 183.679 145.783C183.679 144.955 183.007 144.283 182.179 144.283C181.351 144.283 180.679 144.955 180.679 145.783C180.679 146.611 181.351 147.283 182.179 147.283Z" fill="#93F17C"/>
<path d="M200.179 147.283C201.007 147.283 201.679 146.611 201.679 145.783C201.679 144.955 201.007 144.283 200.179 144.283C199.351 144.283 198.679 144.955 198.679 145.783C198.679 146.611 199.351 147.283 200.179 147.283Z" fill="#93F17C"/>
<path d="M2.17883 165.283C3.00726 165.283 3.67883 164.611 3.67883 163.783C3.67883 162.955 3.00726 162.283 2.17883 162.283C1.35041 162.283 0.678833 162.955 0.678833 163.783C0.678833 164.611 1.35041 165.283 2.17883 165.283Z" fill="#93F17C"/>
<path d="M20.1788 165.283C21.0072 165.283 21.6788 164.611 21.6788 163.783C21.6788 162.955 21.0072 162.283 20.1788 162.283C19.3504 162.283 18.6788 162.955 18.6788 163.783C18.6788 164.611 19.3504 165.283 20.1788 165.283Z" fill="#93F17C"/>
<path d="M38.1788 165.283C39.0072 165.283 39.6788 164.611 39.6788 163.783C39.6788 162.955 39.0072 162.283 38.1788 162.283C37.3504 162.283 36.6788 162.955 36.6788 163.783C36.6788 164.611 37.3504 165.283 38.1788 165.283Z" fill="#93F17C"/>
<path d="M56.1788 165.283C57.0072 165.283 57.6788 164.611 57.6788 163.783C57.6788 162.955 57.0072 162.283 56.1788 162.283C55.3504 162.283 54.6788 162.955 54.6788 163.783C54.6788 164.611 55.3504 165.283 56.1788 165.283Z" fill="#93F17C"/>
<path d="M74.1788 165.283C75.0072 165.283 75.6788 164.611 75.6788 163.783C75.6788 162.955 75.0072 162.283 74.1788 162.283C73.3504 162.283 72.6788 162.955 72.6788 163.783C72.6788 164.611 73.3504 165.283 74.1788 165.283Z" fill="#93F17C"/>
<path d="M92.1788 165.283C93.0072 165.283 93.6788 164.611 93.6788 163.783C93.6788 162.955 93.0072 162.283 92.1788 162.283C91.3504 162.283 90.6788 162.955 90.6788 163.783C90.6788 164.611 91.3504 165.283 92.1788 165.283Z" fill="#93F17C"/>
<path d="M110.179 165.283C111.007 165.283 111.679 164.611 111.679 163.783C111.679 162.955 111.007 162.283 110.179 162.283C109.351 162.283 108.679 162.955 108.679 163.783C108.679 164.611 109.351 165.283 110.179 165.283Z" fill="#93F17C"/>
<path d="M128.179 165.283C129.007 165.283 129.679 164.611 129.679 163.783C129.679 162.955 129.007 162.283 128.179 162.283C127.351 162.283 126.679 162.955 126.679 163.783C126.679 164.611 127.351 165.283 128.179 165.283Z" fill="#93F17C"/>
<path d="M146.179 165.283C147.007 165.283 147.679 164.611 147.679 163.783C147.679 162.955 147.007 162.283 146.179 162.283C145.351 162.283 144.679 162.955 144.679 163.783C144.679 164.611 145.351 165.283 146.179 165.283Z" fill="#93F17C"/>
<path d="M164.179 165.283C165.007 165.283 165.679 164.611 165.679 163.783C165.679 162.955 165.007 162.283 164.179 162.283C163.351 162.283 162.679 162.955 162.679 163.783C162.679 164.611 163.351 165.283 164.179 165.283Z" fill="#93F17C"/>
<path d="M182.179 165.283C183.007 165.283 183.679 164.611 183.679 163.783C183.679 162.955 183.007 162.283 182.179 162.283C181.351 162.283 180.679 162.955 180.679 163.783C180.679 164.611 181.351 165.283 182.179 165.283Z" fill="#93F17C"/>
<path d="M200.179 165.283C201.007 165.283 201.679 164.611 201.679 163.783C201.679 162.955 201.007 162.283 200.179 162.283C199.351 162.283 198.679 162.955 198.679 163.783C198.679 164.611 199.351 165.283 200.179 165.283Z" fill="#93F17C"/>
<path d="M2.17883 183.283C3.00726 183.283 3.67883 182.611 3.67883 181.783C3.67883 180.955 3.00726 180.283 2.17883 180.283C1.35041 180.283 0.678833 180.955 0.678833 181.783C0.678833 182.611 1.35041 183.283 2.17883 183.283Z" fill="#93F17C"/>
<path d="M20.1788 183.283C21.0072 183.283 21.6788 182.611 21.6788 181.783C21.6788 180.955 21.0072 180.283 20.1788 180.283C19.3504 180.283 18.6788 180.955 18.6788 181.783C18.6788 182.611 19.3504 183.283 20.1788 183.283Z" fill="#93F17C"/>
<path d="M38.1788 183.283C39.0072 183.283 39.6788 182.611 39.6788 181.783C39.6788 180.955 39.0072 180.283 38.1788 180.283C37.3504 180.283 36.6788 180.955 36.6788 181.783C36.6788 182.611 37.3504 183.283 38.1788 183.283Z" fill="#93F17C"/>
<path d="M56.1788 183.283C57.0072 183.283 57.6788 182.611 57.6788 181.783C57.6788 180.955 57.0072 180.283 56.1788 180.283C55.3504 180.283 54.6788 180.955 54.6788 181.783C54.6788 182.611 55.3504 183.283 56.1788 183.283Z" fill="#93F17C"/>
<path d="M74.1788 183.283C75.0072 183.283 75.6788 182.611 75.6788 181.783C75.6788 180.955 75.0072 180.283 74.1788 180.283C73.3504 180.283 72.6788 180.955 72.6788 181.783C72.6788 182.611 73.3504 183.283 74.1788 183.283Z" fill="#93F17C"/>
<path d="M92.1788 183.283C93.0072 183.283 93.6788 182.611 93.6788 181.783C93.6788 180.955 93.0072 180.283 92.1788 180.283C91.3504 180.283 90.6788 180.955 90.6788 181.783C90.6788 182.611 91.3504 183.283 92.1788 183.283Z" fill="#93F17C"/>
<path d="M110.179 183.283C111.007 183.283 111.679 182.611 111.679 181.783C111.679 180.955 111.007 180.283 110.179 180.283C109.351 180.283 108.679 180.955 108.679 181.783C108.679 182.611 109.351 183.283 110.179 183.283Z" fill="#93F17C"/>
<path d="M128.179 183.283C129.007 183.283 129.679 182.611 129.679 181.783C129.679 180.955 129.007 180.283 128.179 180.283C127.351 180.283 126.679 180.955 126.679 181.783C126.679 182.611 127.351 183.283 128.179 183.283Z" fill="#93F17C"/>
<path d="M146.179 183.283C147.007 183.283 147.679 182.611 147.679 181.783C147.679 180.955 147.007 180.283 146.179 180.283C145.351 180.283 144.679 180.955 144.679 181.783C144.679 182.611 145.351 183.283 146.179 183.283Z" fill="#93F17C"/>
<path d="M164.179 183.283C165.007 183.283 165.679 182.611 165.679 181.783C165.679 180.955 165.007 180.283 164.179 180.283C163.351 180.283 162.679 180.955 162.679 181.783C162.679 182.611 163.351 183.283 164.179 183.283Z" fill="#93F17C"/>
<path d="M182.179 183.283C183.007 183.283 183.679 182.611 183.679 181.783C183.679 180.955 183.007 180.283 182.179 180.283C181.351 180.283 180.679 180.955 180.679 181.783C180.679 182.611 181.351 183.283 182.179 183.283Z" fill="#93F17C"/>
<path d="M200.179 183.283C201.007 183.283 201.679 182.611 201.679 181.783C201.679 180.955 201.007 180.283 200.179 180.283C199.351 180.283 198.679 180.955 198.679 181.783C198.679 182.611 199.351 183.283 200.179 183.283Z" fill="#93F17C"/>
<path d="M2.17883 201.283C3.00726 201.283 3.67883 200.611 3.67883 199.783C3.67883 198.955 3.00726 198.283 2.17883 198.283C1.35041 198.283 0.678833 198.955 0.678833 199.783C0.678833 200.611 1.35041 201.283 2.17883 201.283Z" fill="#93F17C"/>
<path d="M20.1788 201.283C21.0072 201.283 21.6788 200.611 21.6788 199.783C21.6788 198.955 21.0072 198.283 20.1788 198.283C19.3504 198.283 18.6788 198.955 18.6788 199.783C18.6788 200.611 19.3504 201.283 20.1788 201.283Z" fill="#93F17C"/>
<path d="M38.1788 201.283C39.0072 201.283 39.6788 200.611 39.6788 199.783C39.6788 198.955 39.0072 198.283 38.1788 198.283C37.3504 198.283 36.6788 198.955 36.6788 199.783C36.6788 200.611 37.3504 201.283 38.1788 201.283Z" fill="#93F17C"/>
<path d="M56.1788 201.283C57.0072 201.283 57.6788 200.611 57.6788 199.783C57.6788 198.955 57.0072 198.283 56.1788 198.283C55.3504 198.283 54.6788 198.955 54.6788 199.783C54.6788 200.611 55.3504 201.283 56.1788 201.283Z" fill="#93F17C"/>
<path d="M74.1788 201.283C75.0072 201.283 75.6788 200.611 75.6788 199.783C75.6788 198.955 75.0072 198.283 74.1788 198.283C73.3504 198.283 72.6788 198.955 72.6788 199.783C72.6788 200.611 73.3504 201.283 74.1788 201.283Z" fill="#93F17C"/>
<path d="M92.1788 201.283C93.0072 201.283 93.6788 200.611 93.6788 199.783C93.6788 198.955 93.0072 198.283 92.1788 198.283C91.3504 198.283 90.6788 198.955 90.6788 199.783C90.6788 200.611 91.3504 201.283 92.1788 201.283Z" fill="#93F17C"/>
<path d="M110.179 201.283C111.007 201.283 111.679 200.611 111.679 199.783C111.679 198.955 111.007 198.283 110.179 198.283C109.351 198.283 108.679 198.955 108.679 199.783C108.679 200.611 109.351 201.283 110.179 201.283Z" fill="#93F17C"/>
<path d="M128.179 201.283C129.007 201.283 129.679 200.611 129.679 199.783C129.679 198.955 129.007 198.283 128.179 198.283C127.351 198.283 126.679 198.955 126.679 199.783C126.679 200.611 127.351 201.283 128.179 201.283Z" fill="#93F17C"/>
<path d="M146.179 201.283C147.007 201.283 147.679 200.611 147.679 199.783C147.679 198.955 147.007 198.283 146.179 198.283C145.351 198.283 144.679 198.955 144.679 199.783C144.679 200.611 145.351 201.283 146.179 201.283Z" fill="#93F17C"/>
<path d="M164.179 201.283C165.007 201.283 165.679 200.611 165.679 199.783C165.679 198.955 165.007 198.283 164.179 198.283C163.351 198.283 162.679 198.955 162.679 199.783C162.679 200.611 163.351 201.283 164.179 201.283Z" fill="#93F17C"/>
<path d="M182.179 201.283C183.007 201.283 183.679 200.611 183.679 199.783C183.679 198.955 183.007 198.283 182.179 198.283C181.351 198.283 180.679 198.955 180.679 199.783C180.679 200.611 181.351 201.283 182.179 201.283Z" fill="#93F17C"/>
<path d="M200.179 201.283C201.007 201.283 201.679 200.611 201.679 199.783C201.679 198.955 201.007 198.283 200.179 198.283C199.351 198.283 198.679 198.955 198.679 199.783C198.679 200.611 199.351 201.283 200.179 201.283Z" fill="#93F17C"/>
</svg>
