<?xml version="1.0" encoding="utf-8"?>
<!-- Generated by IcoMoon.io -->
<!DOCTYPE svg PUBLIC "-//W3C//DTD SVG 1.1//EN" "http://www.w3.org/Graphics/SVG/1.1/DTD/svg11.dtd">
<svg version="1.1" xmlns="http://www.w3.org/2000/svg" xmlns:xlink="http://www.w3.org/1999/xlink" width="48" height="48" viewBox="0 0 48 48">
<g id="icomoon-ignore">
	<line stroke-width="1" x1="" y1="" x2="" y2="" stroke="#449FDB" opacity=""></line>
</g>
	<path d="M32.094 47.532c-1.894 0-3.75-0.978-5.39-1.844-1.042-0.546-2.12-1.118-2.71-1.118-0.41 0-1.426 0.534-2.32 1.006-1.656 0.872-3.718 1.956-5.74 1.956-1.034 0-1.958-0.282-2.768-0.838-5.918-4.086-12.24-11.784-12.24-21.124 0-9.374 6.032-17.292 13.172-17.292 2.43 0 4.078 1.244 5.534 2.342 1.386 1.044 2.588 1.95 4.368 1.95s2.976-0.904 4.366-1.95c1.458-1.098 3.106-2.342 5.536-2.342 7.14 0 13.172 7.918 13.172 17.292 0 9.338-6.32 17.036-12.246 21.124-0.812 0.556-1.73 0.838-2.734 0.838zM23.994 42.57c1.084 0 2.268 0.626 3.64 1.348 2.046 1.082 4.48 2.214 6.046 1.128 5.504-3.798 11.378-10.914 11.378-19.476 0-8.29-5.118-15.292-11.172-15.292-1.762 0-2.954 0.898-4.332 1.938-1.458 1.104-3.118 2.354-5.57 2.354-2.45 0-4.106-1.25-5.566-2.354-1.378-1.038-2.57-1.936-4.33-1.936-6.056 0-11.174 7.002-11.174 15.292 0 8.564 5.878 15.678 11.378 19.476 1.622 1.124 4.376-0.156 6.438-1.24 1.322-0.694 2.356-1.238 3.264-1.238z" fill="#000000"></path>
	<path d="M24.688 8.804c-0.308 0-0.6-0.142-0.792-0.388-0.194-0.25-0.258-0.578-0.172-0.884 0.082-0.288 2.058-7.062 7.866-7.062 0.906 0 1.864 0.174 2.84 0.52 0.476 0.168 0.758 0.67 0.64 1.164-0.95 4.188-7.778 6.592-10.36 6.652-0.006-0.002-0.014-0.002-0.022-0.002zM31.586 2.468c-2.832 0-4.508 2.428-5.32 4.088 2.312-0.584 5.376-2.132 6.484-3.966-0.398-0.080-0.79-0.122-1.164-0.122z" fill="#000000"></path>
	<path d="M24.024 14.57c-0.55 0-1-0.45-1-1 0-9.014-1.922-10-6-10-0.55 0-1-0.45-1-1 0-0.552 0.45-1 1-1 6.054 0 8 2.916 8 12 0 0.552-0.448 1-1 1z" fill="#000000"></path>
</svg>
