<?xml version="1.0" encoding="utf-8"?>
<!-- Generated by IcoMoon.io -->
<!DOCTYPE svg PUBLIC "-//W3C//DTD SVG 1.1//EN" "http://www.w3.org/Graphics/SVG/1.1/DTD/svg11.dtd">
<svg version="1.1" xmlns="http://www.w3.org/2000/svg" xmlns:xlink="http://www.w3.org/1999/xlink" width="48" height="48" viewBox="0 0 48 48">
<g id="icomoon-ignore">
	<line stroke-width="1" x1="" y1="" x2="" y2="" stroke="#449FDB" opacity=""></line>
</g>
	<path d="M32 48h-24c-2.206 0-4-1.792-4-4v-40c0-2.206 1.794-4 4-4h24c2.208 0 4 1.794 4 4v40c0 2.208-1.792 4-4 4zM8 2c-1.102 0-2 0.898-2 2v40c0 1.102 0.898 2 2 2h24c1.102 0 2-0.898 2-2v-40c0-1.102-0.898-2-2-2h-24z" fill="#000000"></path>
	<path d="M38.266 36h-3.266c-0.55 0-1-0.45-1-1v-24c0-0.552 0.45-1 1-1h3.266c3.43 0 5.734 1.93 5.734 4.8v15.334c0 3.124-2.678 5.866-5.734 5.866zM36 34h2.266c1.952 0 3.734-1.842 3.734-3.868v-15.332c0-2.066-1.928-2.8-3.734-2.8h-2.266v22z" fill="#000000"></path>
	<path d="M11 41c-0.552 0-1-0.45-1-1v-28c0-0.552 0.448-1 1-1s1 0.448 1 1v28c0 0.55-0.448 1-1 1z" fill="#000000"></path>
	<path d="M34 12h-28c-0.552 0-1-0.448-1-1s0.448-1 1-1h28c0.55 0 1 0.448 1 1s-0.45 1-1 1z" fill="#000000"></path>
	<path d="M17 41c-0.552 0-1-0.45-1-1v-28c0-0.552 0.448-1 1-1s1 0.448 1 1v28c0 0.55-0.448 1-1 1z" fill="#000000"></path>
	<path d="M23 41c-0.552 0-1-0.45-1-1v-28c0-0.552 0.448-1 1-1s1 0.448 1 1v28c0 0.55-0.448 1-1 1z" fill="#000000"></path>
	<path d="M29 41c-0.55 0-1-0.45-1-1v-28c0-0.552 0.45-1 1-1s1 0.448 1 1v28c0 0.55-0.45 1-1 1z" fill="#000000"></path>
</svg>
