<?xml version="1.0" encoding="utf-8"?>
<!-- Generated by IcoMoon.io -->
<!DOCTYPE svg PUBLIC "-//W3C//DTD SVG 1.1//EN" "http://www.w3.org/Graphics/SVG/1.1/DTD/svg11.dtd">
<svg version="1.1" xmlns="http://www.w3.org/2000/svg" xmlns:xlink="http://www.w3.org/1999/xlink" width="48" height="48" viewBox="0 0 48 48">
<g id="icomoon-ignore">
	<line stroke-width="1" x1="" y1="" x2="" y2="" stroke="#449FDB" opacity=""></line>
</g>
	<path d="M36.496 48.012h-22c-0.552 0-1-0.448-1-1v-30c0-0.55 0.448-1 1-1h22c0.552 0 1 0.45 1 1v30c0 0.552-0.448 1-1 1zM15.498 46.012h20v-28h-20v28z" fill="#000000"></path>
	<path d="M39.496 40.012h-3c-0.55 0-1-0.448-1-1v-16c0-0.55 0.45-1 1-1h3c2.208 0 4 1.794 4 4v10c0 2.206-1.792 4-4 4zM37.496 38.012h2c1.102 0 2-0.898 2-2v-10c0-1.102-0.898-2-2-2h-2v14z" fill="#000000"></path>
	<path d="M20.498 41.012c-0.552 0-1-0.448-1-1v-18c0-0.55 0.448-1 1-1s1 0.45 1 1v18c0 0.552-0.45 1-1 1z" fill="#000000"></path>
	<path d="M30.496 41.012c-0.55 0-1-0.448-1-1v-18c0-0.55 0.45-1 1-1 0.552 0 1 0.45 1 1v18c0 0.552-0.448 1-1 1z" fill="#000000"></path>
	<path d="M9.498 37.012c-2.756 0-5-2.244-5-5 0-0.69 0.144-1.362 0.432-2-0.288-0.636-0.432-1.31-0.432-2 0-0.786 1.292-2.868 3.008-4.026 1.248-0.842 1.992-2.244 1.992-3.752v-2.382c-1.272-1.306-1.992-3.052-1.992-4.86 0-1.042 0.236-2.044 0.7-3-0.464-0.958-0.7-1.962-0.7-3 0-3.86 3.14-7 7-7 0.948 0 1.882 0.204 2.786 0.604 1.846-0.71 3.702-0.846 5.912-0.152 0.116 0.036 0.228 0.066 0.336 0.108 0.69 0.248 1.348 0.584 1.96 0.998 1.5-1.022 3.212-1.556 5.004-1.556 4.018 0 7.57 2.724 8.656 6.552 2.622 1.072 4.344 3.598 4.344 6.448 0 3.86-3.14 7-7 7-0.552 0-1-0.448-1-1s0.448-1 1-1c2.754 0 5-2.244 5-5 0-2.168-1.402-4.072-3.492-4.738-0.34-0.11-0.598-0.392-0.672-0.742-0.692-3.2-3.564-5.52-6.836-5.52-1.582 0-3.094 0.542-4.374 1.58-0.37 0.292-0.888 0.292-1.256 0-0.614-0.496-1.294-0.878-2.020-1.142l-0.2-0.062c-2.074-0.65-3.46-0.446-4.99 0.238-0.278 0.124-0.594 0.112-0.868-0.030-0.748-0.388-1.516-0.586-2.294-0.586-2.756 0-5 2.244-5 5 0 0.864 0.234 1.704 0.696 2.496 0.18 0.312 0.18 0.696 0 1.006-0.46 0.796-0.696 1.634-0.696 2.498 0 1.414 0.59 2.724 1.664 3.696 0.21 0.192 0.33 0.458 0.33 0.742v2.806c0 2.174-1.074 4.196-2.874 5.41-1.268 0.856-2.060 2.266-2.148 2.546 0.022 0.336 0.162 0.838 0.44 1.316 0.18 0.312 0.18 0.698 0 1.008-0.278 0.476-0.418 0.98-0.418 1.496 0 1.654 1.346 3 3 3 3.516 0 4-1.442 4-3v-4c0-0.55 0.448-1 1-1s1 0.45 1 1v4c0.002 3.318-2.016 5-5.998 5z" fill="#000000"></path>
</svg>
