<?xml version="1.0" encoding="utf-8"?>
<!-- Generated by IcoMoon.io -->
<!DOCTYPE svg PUBLIC "-//W3C//DTD SVG 1.1//EN" "http://www.w3.org/Graphics/SVG/1.1/DTD/svg11.dtd">
<svg version="1.1" xmlns="http://www.w3.org/2000/svg" xmlns:xlink="http://www.w3.org/1999/xlink" width="48" height="48" viewBox="0 0 48 48">
<g id="icomoon-ignore">
	<line stroke-width="1" x1="" y1="" x2="" y2="" stroke="#449FDB" opacity=""></line>
</g>
	<path d="M30.336 47.47h-22c-0.552 0-1-0.448-1-1v-21.262c-2.456-1.686-3.796-3.948-3.796-6.418 0-5.106 4.676-10.26 15.124-10.26 10.372 0 15.798 5.162 15.798 10.26 0 2.734-1.078 4.938-3.126 6.41v21.272c0 0.552-0.448 0.998-1 0.998zM9.336 45.47h20v-20.802c0-0.348 0.18-0.666 0.472-0.85 1.762-1.094 2.652-2.786 2.652-5.028 0-4.104-4.74-8.26-13.798-8.26-9.066 0-13.124 4.148-13.124 8.26 0 2.574 2.084 4.254 3.328 5.028 0.292 0.184 0.472 0.502 0.472 0.85l-0.002 20.802z" fill="#000000"></path>
	<path d="M40.336 39.47h-9c-0.55 0-1-0.448-1-1 0-0.55 0.45-1 1-1h8v-20.802c0-0.348 0.18-0.666 0.472-0.85 1.762-1.094 2.652-2.786 2.652-5.028 0-4.104-4.74-8.26-13.796-8.26-7.15 0-11.878 2.68-12.658 7.17-0.092 0.542-0.606 0.906-1.156 0.816-0.544-0.094-0.908-0.614-0.812-1.156 0.958-5.53 6.424-8.83 14.626-8.83 10.372 0 15.796 5.162 15.796 10.26 0 2.734-1.078 4.938-3.126 6.41v21.272c0.002 0.552-0.446 0.998-0.998 0.998z" fill="#000000"></path>
</svg>
