<?xml version="1.0" encoding="utf-8"?>
<!-- Generated by IcoMoon.io -->
<!DOCTYPE svg PUBLIC "-//W3C//DTD SVG 1.1//EN" "http://www.w3.org/Graphics/SVG/1.1/DTD/svg11.dtd">
<svg version="1.1" xmlns="http://www.w3.org/2000/svg" xmlns:xlink="http://www.w3.org/1999/xlink" width="48" height="48" viewBox="0 0 48 48">
<g id="icomoon-ignore">
	<line stroke-width="1" x1="" y1="" x2="" y2="" stroke="#449FDB" opacity=""></line>
</g>
	<path d="M44 47.5h-40c-2.206 0-4-1.792-4-4v-24c0-2.206 1.794-4 4-4h40c2.208 0 4 1.794 4 4v24c0 2.208-1.792 4-4 4zM4 17.5c-1.102 0-2 0.898-2 2v24c0 1.102 0.898 2 2 2h40c1.102 0 2-0.898 2-2v-24c0-1.102-0.898-2-2-2h-40z" fill="#000000"></path>
	<path d="M38.392 28.76c-5.050 0-9.646-0.466-13.864-0.892-7.904-0.804-14.728-1.496-22.248 0.716-0.53 0.164-1.084-0.148-1.242-0.676-0.158-0.53 0.146-1.084 0.676-1.242 7.89-2.326 15.236-1.582 23.014-0.792 6.478 0.66 13.176 1.336 21.166 0.504 0.558-0.060 1.042 0.342 1.098 0.89 0.058 0.548-0.34 1.042-0.89 1.098-2.682 0.284-5.25 0.394-7.71 0.394z" fill="#000000"></path>
	<path d="M38.392 36.76c-5.050 0-9.646-0.466-13.864-0.892-7.904-0.804-14.728-1.496-22.248 0.716-0.53 0.162-1.084-0.148-1.242-0.676-0.158-0.53 0.146-1.084 0.676-1.242 7.89-2.326 15.236-1.582 23.014-0.792 6.478 0.66 13.176 1.336 21.166 0.504 0.558-0.068 1.042 0.342 1.098 0.89 0.058 0.548-0.34 1.042-0.89 1.098-2.682 0.284-5.25 0.394-7.71 0.394z" fill="#000000"></path>
	<path d="M13 16.5c-0.552 0-1-0.448-1-1v-8c0-0.552 0.448-1 1-1s1 0.448 1 1v8c0 0.552-0.448 1-1 1z" fill="#000000"></path>
	<path d="M21 16.5c-0.552 0-1-0.448-1-1v-8c0-0.552 0.448-1 1-1s1 0.448 1 1v8c0 0.552-0.448 1-1 1z" fill="#000000"></path>
	<path d="M29 16.5c-0.55 0-1-0.448-1-1v-8c0-0.552 0.45-1 1-1s1 0.448 1 1v8c0 0.552-0.45 1-1 1z" fill="#000000"></path>
	<path d="M37 16.5c-0.55 0-1-0.448-1-1v-8c0-0.552 0.45-1 1-1s1 0.448 1 1v8c0 0.552-0.45 1-1 1z" fill="#000000"></path>
	<path d="M13 4.5c-0.552 0-1-0.448-1-1v-2c0-0.552 0.448-1 1-1s1 0.448 1 1v2c0 0.552-0.448 1-1 1z" fill="#000000"></path>
	<path d="M21 4.5c-0.552 0-1-0.448-1-1v-2c0-0.552 0.448-1 1-1s1 0.448 1 1v2c0 0.552-0.448 1-1 1z" fill="#000000"></path>
	<path d="M29 4.5c-0.55 0-1-0.448-1-1v-2c0-0.552 0.45-1 1-1s1 0.448 1 1v2c0 0.552-0.45 1-1 1z" fill="#000000"></path>
	<path d="M37 4.5c-0.55 0-1-0.448-1-1v-2c0-0.552 0.45-1 1-1s1 0.448 1 1v2c0 0.552-0.45 1-1 1z" fill="#000000"></path>
</svg>
