<?xml version="1.0" encoding="utf-8"?>
<!-- Generated by IcoMoon.io -->
<!DOCTYPE svg PUBLIC "-//W3C//DTD SVG 1.1//EN" "http://www.w3.org/Graphics/SVG/1.1/DTD/svg11.dtd">
<svg version="1.1" xmlns="http://www.w3.org/2000/svg" xmlns:xlink="http://www.w3.org/1999/xlink" width="48" height="48" viewBox="0 0 48 48">
<g id="icomoon-ignore">
	<line stroke-width="1" x1="" y1="" x2="" y2="" stroke="#449FDB" opacity=""></line>
</g>
	<path d="M29.998 47.484h-12c-0.55 0-1-0.448-1-1 0-1.102-0.896-2-2-2-0.55 0-1-0.448-1-1 0-0.55 0.45-1 1-1 1.864 0 3.428 1.278 3.876 3h10.254c0.448-1.722 2.012-3 3.876-3 0.55 0 1 0.45 1 1 0 0.552-0.45 1-1 1-1.104 0-2 0.898-2 2-0.006 0.554-0.456 1-1.006 1z" fill="#000000"></path>
	<path d="M32.998 44.484c-0.55 0-1-0.448-1-1v-27.686c-1.2-0.452-2.106-1.614-2.564-2.312h-10.844c-0.456 0.764-1.37 2.052-2.592 2.548v27.452c0 0.552-0.45 1-1 1s-1-0.448-1-1v-28.25c0-0.552 0.45-1 1-1 0.674 0 1.654-1.272 2.102-2.188 0.168-0.344 0.516-0.562 0.898-0.562h12c0.368 0 0.708 0.204 0.878 0.526 0.434 0.796 1.402 1.974 2.122 1.974 0.55 0 1 0.448 1 1v28.5c0 0.552-0.45 0.998-1 0.998z" fill="#000000"></path>
	<path d="M31.998 19.486h-16c-0.55 0-1-0.448-1-1s0.45-1 1-1h16c0.55 0 1 0.448 1 1s-0.45 1-1 1z" fill="#000000"></path>
	<path d="M24.998 12.486c-0.55 0-1-0.448-1-1v-8.032c0-0.382 0.218-0.732 0.558-0.898l3.968-1.938c0.496-0.244 1.094-0.038 1.34 0.46 0.242 0.496 0.038 1.094-0.458 1.336l-3.408 1.666v7.406c0 0.552-0.45 1-1 1z" fill="#000000"></path>
	<path d="M31.998 41.484h-16c-0.55 0-1-0.448-1-1 0-0.55 0.45-1 1-1h16c0.55 0 1 0.45 1 1 0 0.554-0.45 1-1 1z" fill="#000000"></path>
	<path d="M26.374 41.484c-0.336 0-0.668-0.172-0.856-0.48-2.23-3.696-1.242-9.31-0.37-14.266 0.568-3.222 1.154-6.552 0.392-7.7-0.306-0.46-0.184-1.080 0.278-1.386 0.454-0.306 1.078-0.184 1.386 0.278 1.208 1.812 0.632 5.052-0.086 9.154-0.812 4.61-1.734 9.832 0.11 12.882 0.286 0.474 0.132 1.090-0.34 1.376-0.16 0.098-0.34 0.142-0.514 0.142z" fill="#000000"></path>
</svg>
