<?xml version="1.0" encoding="utf-8"?>
<!-- Generated by IcoMoon.io -->
<!DOCTYPE svg PUBLIC "-//W3C//DTD SVG 1.1//EN" "http://www.w3.org/Graphics/SVG/1.1/DTD/svg11.dtd">
<svg version="1.1" xmlns="http://www.w3.org/2000/svg" xmlns:xlink="http://www.w3.org/1999/xlink" width="48" height="48" viewBox="0 0 48 48">
<g id="icomoon-ignore">
	<line stroke-width="1" x1="" y1="" x2="" y2="" stroke="#449FDB" opacity=""></line>
</g>
	<path d="M35.262 46.704h-22c-0.55 0-1-0.45-1-1v-17.012c-6.638-0.258-11.396-4.772-11.396-10.918 0-6.334 5.048-10.93 12.006-10.93 0.334 0 0.66 0.030 0.984 0.070 2.2-3.48 6.008-5.614 10.108-5.614s7.916 2.134 10.112 5.616c0.358-0.044 0.684-0.072 1.010-0.072 6.644 0 12.050 5.384 12.050 12.002 0 6.26-4.792 11.424-10.874 11.956v14.902c0 0.55-0.448 1-1 1zM14.262 44.704h20v-14.856c0-0.55 0.448-1 0.998-1 5.448-0.018 9.876-4.502 9.876-10.002 0-5.514-4.508-10.002-10.050-10.002-0.418 0-0.84 0.064-1.246 0.122-0.412 0.058-0.958-0.122-1.16-0.484-1.774-3.196-5.114-5.18-8.714-5.18s-6.94 1.986-8.712 5.18c-0.202 0.36-0.6 0.564-1.014 0.504-0.576-0.086-0.964-0.144-1.366-0.144-5.89 0-10.006 3.672-10.006 8.93s4.116 8.93 10.004 8.93h0.392c0.552 0 1 0.448 1 1l-0.002 17.002z" fill="#000000"></path>
	<path d="M41.554 19.844c-0.552 0-1-0.448-1-1 0-3.226-2.476-5.752-5.636-5.752-0.552 0-1-0.448-1-1s0.448-1 1-1c4.282 0 7.636 3.406 7.636 7.752 0 0.554-0.446 1-1 1z" fill="#000000"></path>
	<path d="M34.262 40.704h-20c-0.55 0-1-0.45-1-1 0-0.552 0.45-1 1-1h20c0.552 0 1 0.448 1 1 0 0.55-0.448 1-1 1z" fill="#000000"></path>
	<path d="M31.262 37.704c-0.55 0-1-0.45-1-1v-4c0-0.552 0.45-1 1-1 0.552 0 1 0.448 1 1v4c0 0.55-0.448 1-1 1z" fill="#000000"></path>
</svg>
