<?xml version="1.0" encoding="utf-8"?>
<!-- Generated by IcoMoon.io -->
<!DOCTYPE svg PUBLIC "-//W3C//DTD SVG 1.1//EN" "http://www.w3.org/Graphics/SVG/1.1/DTD/svg11.dtd">
<svg version="1.1" xmlns="http://www.w3.org/2000/svg" xmlns:xlink="http://www.w3.org/1999/xlink" width="48" height="48" viewBox="0 0 48 48">
<g id="icomoon-ignore">
	<line stroke-width="1" x1="" y1="" x2="" y2="" stroke="#449FDB" opacity=""></line>
</g>
	<path d="M23.418 46.918c-12.158 0-22.418-13.77-22.418-22.418 0-0.552 0.448-1 1-1h42.834c0.552 0 1 0.448 1 1 0 8.648-10.258 22.418-22.416 22.418zM3.048 25.5c0.728 7.892 9.754 19.418 20.37 19.418 10.618 0 19.64-11.526 20.372-19.418h-40.742z" fill="#000000"></path>
	<path d="M30 47.5h-14c-0.552 0-1-0.45-1-1s0.448-1 1-1h14c0.55 0 1 0.45 1 1s-0.45 1-1 1z" fill="#000000"></path>
	<path d="M24.808 22.764c-0.264 0-0.526-0.104-0.722-0.308-0.382-0.4-0.368-1.032 0.032-1.414l21.19-20.264c0.398-0.382 1.034-0.366 1.414 0.032 0.378 0.4 0.37 1.032-0.032 1.414l-21.19 20.262c-0.196 0.186-0.442 0.278-0.692 0.278z" fill="#000000"></path>
	<path d="M17.736 15.692c-0.244 0-0.488-0.088-0.68-0.268-0.404-0.376-0.428-1.008-0.052-1.414l12.264-13.192c0.378-0.404 1.010-0.426 1.414-0.052 0.404 0.376 0.428 1.008 0.052 1.414l-12.264 13.192c-0.198 0.212-0.466 0.32-0.734 0.32z" fill="#000000"></path>
	<path d="M22.73 19.682c-0.8 0-1.554-0.312-2.122-0.878-0.568-0.568-0.88-1.322-0.878-2.124 0-0.8 0.312-1.554 0.88-2.12 1.13-1.13 3.108-1.132 4.242 0 0.566 0.564 0.878 1.318 0.878 2.118 0 0.802-0.312 1.556-0.878 2.124s-1.32 0.88-2.122 0.88zM22.73 15.682c-0.266 0-0.518 0.104-0.708 0.292s-0.292 0.44-0.292 0.706c0 0.268 0.104 0.518 0.292 0.708 0.378 0.376 1.036 0.376 1.414 0 0.19-0.19 0.292-0.44 0.292-0.708 0-0.266-0.104-0.518-0.292-0.706s-0.438-0.292-0.706-0.292z" fill="#000000"></path>
</svg>
