<?xml version="1.0" encoding="utf-8"?>
<!-- Generated by IcoMoon.io -->
<!DOCTYPE svg PUBLIC "-//W3C//DTD SVG 1.1//EN" "http://www.w3.org/Graphics/SVG/1.1/DTD/svg11.dtd">
<svg version="1.1" xmlns="http://www.w3.org/2000/svg" xmlns:xlink="http://www.w3.org/1999/xlink" width="48" height="48" viewBox="0 0 48 48">
<g id="icomoon-ignore">
	<line stroke-width="1" x1="" y1="" x2="" y2="" stroke="#449FDB" opacity=""></line>
</g>
	<path d="M22.142 46.392c-19 0-19-9.334-19-19.212 0-5.588 2.422-10.734 7.2-15.294l0.29-0.278h23.028l0.292 0.278c4.842 4.626 7.198 9.592 7.198 15.188-0.008 9.934-0.008 19.318-19.008 19.318zM11.436 13.608c-4.176 4.098-6.292 8.662-6.292 13.57 0 9.994 0 17.212 17 17.212s17-7.264 17-17.32c0-4.908-2.054-9.316-6.292-13.462h-21.416z" fill="#000000"></path>
	<path d="M32.858 13.608h-22c-0.552 0-1-0.45-1-1v-2.542l-5.65-4.842c-0.222-0.19-0.35-0.466-0.35-0.76v-1.856c0-0.552 0.448-1 1-1h28c0.55 0 1 0.448 1 1v10c0 0.55-0.45 1-1 1zM11.858 11.608h20v-8h-26v0.398l5.65 4.842c0.22 0.19 0.35 0.466 0.35 0.76v2z" fill="#000000"></path>
	<path d="M43.858 26.608c-0.55 0-1-0.45-1-1 0-10.934-2.442-15-9-15-0.55 0-1-0.45-1-1 0-0.552 0.45-1 1-1 9.668 0 11 8.17 11 17 0 0.55-0.45 1-1 1z" fill="#000000"></path>
	<path d="M3.858 23.608h36v2h-36v-2z" fill="#000000"></path>
</svg>
