<?xml version="1.0" encoding="utf-8"?>
<!-- Generated by IcoMoon.io -->
<!DOCTYPE svg PUBLIC "-//W3C//DTD SVG 1.1//EN" "http://www.w3.org/Graphics/SVG/1.1/DTD/svg11.dtd">
<svg version="1.1" xmlns="http://www.w3.org/2000/svg" xmlns:xlink="http://www.w3.org/1999/xlink" width="48" height="48" viewBox="0 0 48 48">
<g id="icomoon-ignore">
	<line stroke-width="1" x1="" y1="" x2="" y2="" stroke="#449FDB" opacity=""></line>
</g>
	<path d="M36.108 39.168c-3.646 0-6.796-1.602-8.87-4.512-0.32-0.45-0.214-1.074 0.234-1.394 0.452-0.32 1.074-0.212 1.394 0.234 1.686 2.368 4.256 3.672 7.238 3.672 5.748 0 9.458-4.626 9.458-11.788 0-8.294-4.686-16.438-9.458-16.438-3.894 0-7.896 5.476-9.114 12.466-0.096 0.544-0.614 0.908-1.156 0.814s-0.908-0.614-0.812-1.156c1.218-7.018 5.418-14.126 11.082-14.126 6.558 0 11.458 9.734 11.458 18.438 0.004 9.526-5.752 13.79-11.454 13.79z" fill="#000000"></path>
	<path d="M13.758 39.854c-9.526 0-13.788-5.756-13.788-11.458 0-5.708 4.262-11.462 13.788-11.462 8.704 0 18.436 4.902 18.436 11.462s-9.736 11.458-18.436 11.458zM13.758 18.93c-7.16 0-11.788 3.714-11.788 9.462s4.626 9.458 11.788 9.458c8.292 0 16.436-4.686 16.436-9.458s-8.144-9.462-16.436-9.462z" fill="#000000"></path>
	<path d="M47.030 41.056h-44c-0.552 0-1-0.45-1-1 0-0.552 0.448-1 1-1h44c0.55 0 1 0.448 1 1s-0.45 1-1 1z" fill="#000000"></path>
</svg>
