<?xml version="1.0" encoding="utf-8"?>
<!-- Generated by IcoMoon.io -->
<!DOCTYPE svg PUBLIC "-//W3C//DTD SVG 1.1//EN" "http://www.w3.org/Graphics/SVG/1.1/DTD/svg11.dtd">
<svg version="1.1" xmlns="http://www.w3.org/2000/svg" xmlns:xlink="http://www.w3.org/1999/xlink" width="48" height="48" viewBox="0 0 48 48">
<g id="icomoon-ignore">
	<line stroke-width="1" x1="" y1="" x2="" y2="" stroke="#449FDB" opacity=""></line>
</g>
	<path d="M34 48h-20c-0.356 0-0.684-0.19-0.864-0.498-4.142-7.112-4.14-18.154-4.136-32.134v-14.368c0-0.552 0.448-1 1-1h28c0.55 0 1 0.448 1 1v14.374c0.002 13.978 0.006 25.018-4.136 32.128-0.18 0.308-0.51 0.498-0.864 0.498zM14.586 46h18.828c3.592-6.68 3.59-17.286 3.586-30.626v-13.374h-26v13.368c-0.004 13.342-0.006 23.952 3.586 30.632z" fill="#000000"></path>
	<path d="M11 40h26v2h-26v-2z" fill="#000000"></path>
	<path d="M31.024 14.24c-2.996 0-6.006-1.086-8.82-2.1-4.22-1.524-8.208-2.962-11.72-1.014l-0.968-1.75c4.308-2.386 8.916-0.724 13.368 0.882 5.174 1.868 10.066 3.628 14.41-0.714l1.414 1.414c-2.45 2.448-5.060 3.282-7.684 3.282z" fill="#000000"></path>
</svg>
