<?xml version="1.0" encoding="utf-8"?>
<!-- Generated by IcoMoon.io -->
<!DOCTYPE svg PUBLIC "-//W3C//DTD SVG 1.1//EN" "http://www.w3.org/Graphics/SVG/1.1/DTD/svg11.dtd">
<svg version="1.1" xmlns="http://www.w3.org/2000/svg" xmlns:xlink="http://www.w3.org/1999/xlink" width="48" height="48" viewBox="0 0 48 48">
<g id="icomoon-ignore">
	<line stroke-width="1" x1="" y1="" x2="" y2="" stroke="#449FDB" opacity=""></line>
</g>
	<path d="M23.998 41.074c-7.378 0-14.488-2.214-20.562-6.406-1.132-0.778-1.894-1.954-2.142-3.304s0.044-2.722 0.826-3.856c1.554-2.258 4.902-2.88 7.166-1.316 4.346 2.996 9.434 4.58 14.714 4.58 5.282 0 10.368-1.584 14.714-4.582 2.258-1.564 5.61-0.94 7.164 1.318 0.784 1.132 1.074 2.5 0.828 3.854-0.25 1.354-1.012 2.53-2.142 3.306-6.078 4.192-13.188 6.406-20.566 6.406zM6.366 27.282c-1.040 0-2.010 0.51-2.6 1.368-0.478 0.692-0.656 1.528-0.504 2.356s0.618 1.542 1.31 2.022c5.74 3.958 12.458 6.048 19.428 6.048 6.968 0 13.688-2.090 19.428-6.048 0.694-0.478 1.158-1.198 1.31-2.022 0.152-0.828-0.028-1.664-0.504-2.356-0.954-1.38-2.996-1.768-4.382-0.808-4.682 3.23-10.164 4.936-15.852 4.936s-11.168-1.706-15.85-4.936c-0.53-0.37-1.148-0.56-1.784-0.56z" fill="#000000"></path>
	<path d="M20.54 21.51c-0.256 0-0.512-0.098-0.708-0.292-1.486-1.484-0.796-3.554-0.242-5.218 0.532-1.592 0.812-2.602 0.242-3.172-0.39-0.39-0.39-1.024 0-1.414s1.024-0.39 1.414 0c1.486 1.486 0.796 3.556 0.242 5.218-0.53 1.594-0.812 2.602-0.242 3.172 0.39 0.39 0.39 1.024 0 1.414-0.196 0.196-0.452 0.292-0.706 0.292z" fill="#000000"></path>
	<path d="M24.734 21.51c-0.256 0-0.512-0.098-0.708-0.292-1.428-1.428-0.868-4.23-0.274-7.198 0.398-1.992 0.944-4.718 0.274-5.388-0.39-0.39-0.39-1.024 0-1.414s1.024-0.39 1.416 0c1.426 1.426 0.866 4.228 0.274 7.196-0.398 1.992-0.946 4.72-0.274 5.39 0.388 0.39 0.388 1.024 0 1.414-0.196 0.196-0.452 0.292-0.708 0.292z" fill="#000000"></path>
	<path d="M28.928 21.51c-0.256 0-0.512-0.098-0.708-0.292-1.486-1.484-0.796-3.554-0.242-5.218 0.53-1.592 0.81-2.602 0.24-3.172-0.388-0.39-0.388-1.024 0-1.414 0.39-0.39 1.026-0.39 1.414 0 1.488 1.486 0.796 3.556 0.242 5.218-0.53 1.592-0.81 2.602-0.242 3.172 0.39 0.39 0.39 1.024 0 1.414-0.19 0.196-0.448 0.292-0.704 0.292z" fill="#000000"></path>
	<path d="M5.582 26.358c0.056-0.414 0.178-0.816 0.422-1.17 0.506-0.734 1.342-1.172 2.236-1.172 0.548 0 1.080 0.166 1.532 0.478 4.2 2.898 9.124 4.428 14.224 4.428s10.024-1.532 14.222-4.428c1.194-0.824 2.956-0.492 3.77 0.694 0.244 0.354 0.366 0.756 0.422 1.17 0.734 0.138 1.424 0.482 1.996 1 0.16-1.166-0.102-2.332-0.774-3.306-1.418-2.060-4.472-2.632-6.548-1.208-3.866 2.666-8.392 4.076-13.088 4.076s-9.224-1.41-13.088-4.076c-2.066-1.426-5.126-0.856-6.55 1.208-0.672 0.974-0.932 2.142-0.772 3.306 0.574-0.518 1.264-0.862 1.996-1z" fill="#000000"></path>
</svg>
