<?xml version="1.0" encoding="utf-8"?>
<!-- Generated by IcoMoon.io -->
<!DOCTYPE svg PUBLIC "-//W3C//DTD SVG 1.1//EN" "http://www.w3.org/Graphics/SVG/1.1/DTD/svg11.dtd">
<svg version="1.1" xmlns="http://www.w3.org/2000/svg" xmlns:xlink="http://www.w3.org/1999/xlink" width="48" height="48" viewBox="0 0 48 48">
<g id="icomoon-ignore">
	<line stroke-width="1" x1="" y1="" x2="" y2="" stroke="#449FDB" opacity=""></line>
</g>
	<path d="M30 48h-14c-0.552 0-1-0.45-1-1s0.45-1 1-1h14c0.552 0 1 0.45 1 1s-0.448 1-1 1z" fill="#000000"></path>
	<path d="M23 47c-0.552 0-1-0.45-1-1v-18c0-0.55 0.448-1 1-1s1 0.45 1 1v18c0 0.55-0.448 1-1 1z" fill="#000000"></path>
	<path d="M23 29c-0.008 0-0.016 0-0.024 0-0.31-0.008-0.6-0.158-0.784-0.41l-19.784-27c-0.222-0.304-0.254-0.708-0.082-1.042 0.17-0.336 0.512-0.548 0.89-0.548h41.568c0.382 0 0.734 0.222 0.902 0.568 0.164 0.348 0.118 0.76-0.126 1.060l-21.784 27c-0.188 0.236-0.474 0.372-0.776 0.372zM5.188 2l17.85 24.36 19.656-24.36h-37.506z" fill="#000000"></path>
	<path d="M36 12h-24l-2-2h28z" fill="#000000"></path>
</svg>
