<?xml version="1.0" encoding="utf-8"?>
<!-- Generated by IcoMoon.io -->
<!DOCTYPE svg PUBLIC "-//W3C//DTD SVG 1.1//EN" "http://www.w3.org/Graphics/SVG/1.1/DTD/svg11.dtd">
<svg version="1.1" xmlns="http://www.w3.org/2000/svg" xmlns:xlink="http://www.w3.org/1999/xlink" width="48" height="48" viewBox="0 0 48 48">
<g id="icomoon-ignore">
	<line stroke-width="1" x1="" y1="" x2="" y2="" stroke="#449FDB" opacity=""></line>
</g>
	<path d="M37 48h-26c-0.552 0-1-0.45-1-1v-34c0-0.198 0.058-0.39 0.168-0.554l4-6c0.186-0.278 0.498-0.446 0.832-0.446h18c0.334 0 0.646 0.166 0.832 0.446l4 6c0.11 0.164 0.168 0.358 0.168 0.554v34c0 0.55-0.45 1-1 1zM12 46h24v-32.698l-3.536-5.302h-16.93l-3.536 5.302 0.002 32.698z" fill="#000000"></path>
	<path d="M29 47c-0.55 0-1-0.45-1-1v-33c0-0.21 0.068-0.416 0.192-0.588l4-5.5c0.324-0.448 0.95-0.546 1.396-0.22 0.448 0.324 0.544 0.95 0.22 1.396l-3.808 5.238v32.674c0 0.55-0.45 1-1 1z" fill="#000000"></path>
	<path d="M36 14h-24c-0.552 0-1-0.448-1-1s0.448-1 1-1h24c0.55 0 1 0.448 1 1s-0.45 1-1 1z" fill="#000000"></path>
	<path d="M33 8h-18c-0.552 0-1-0.448-1-1v-6c0-0.552 0.448-1 1-1h18c0.55 0 1 0.448 1 1v6c0 0.552-0.45 1-1 1zM16 6h16v-4h-16v4z" fill="#000000"></path>
</svg>
