<?xml version="1.0" encoding="utf-8"?>
<!-- Generated by IcoMoon.io -->
<!DOCTYPE svg PUBLIC "-//W3C//DTD SVG 1.1//EN" "http://www.w3.org/Graphics/SVG/1.1/DTD/svg11.dtd">
<svg version="1.1" xmlns="http://www.w3.org/2000/svg" xmlns:xlink="http://www.w3.org/1999/xlink" width="48" height="48" viewBox="0 0 48 48">
<g id="icomoon-ignore">
	<line stroke-width="1" x1="" y1="" x2="" y2="" stroke="#449FDB" opacity=""></line>
</g>
	<path d="M6.634 31.73c-0.504 0-0.938-0.38-0.992-0.894-0.492-4.608 0.64-11.066 4.296-14.352 0.32-0.29 0.79-0.336 1.156-0.13 0.376 0.208 0.572 0.632 0.496 1.052-0.678 3.708-0.086 5.656 0.696 6.242 0.45 0.338 0.958 0.206 1.3 0.034 0.954-0.47 1.912-1.848 1.918-3.854 0.004-1.512-0.246-3.086-0.514-4.754-0.766-4.804-1.634-10.248 4.246-14.532 0.348-0.252 0.816-0.258 1.17-0.008 0.352 0.25 0.502 0.698 0.376 1.11-1.984 6.478-0.782 9.686 0.13 10.476 0.292 0.26 0.458 0.186 0.508 0.16 0.336-0.158 0.958-1.030 0.908-3.196-0.008-0.392 0.208-0.752 0.56-0.924 0.358-0.168 0.776-0.12 1.074 0.128 3.178 2.64 4.452 6.582 4.3 9.318-0.078 1.436-0.726 3.012-1.352 4.54-0.602 1.458-1.418 3.454-0.856 3.774 0.21 0.122 0.414 0.156 0.726-0.050 1.192-0.77 2.426-4 2.168-6.67-0.036-0.36 0.128-0.71 0.43-0.916 0.296-0.208 0.684-0.232 1.008-0.076 2.98 1.466 5.27 6.504 5.102 10.904-0.024 0.542-0.464 1.23-1 1.23-0.012 0-0.028 0-0.040 0-0.55 0-0.984-0.754-0.96-1.306 0.118-3.008-1.102-6.098-2.574-7.762-0.282 2.552-1.376 5.26-3.042 6.344-0.906 0.584-1.898 0.588-2.8 0.076-2.096-1.19-0.988-3.906-0.012-6.29 0.562-1.374 1.144-2.798 1.208-3.896 0.094-1.71-0.558-4.158-2.136-6.184-0.304 1.368-0.948 2.336-1.864 2.768-0.876 0.406-1.868 0.238-2.672-0.458-1.376-1.192-2.428-4.222-1.564-9.144-2.214 3.074-1.656 6.59-1.066 10.27 0.266 1.672 0.542 3.402 0.538 5.074-0.006 2.514-1.198 4.728-3.030 5.64-1.184 0.586-2.418 0.506-3.394-0.226-0.714-0.542-1.71-1.794-1.786-4.608-1.492 2.926-2.004 6.852-1.668 9.982 0.054 0.548-0.34 1.042-0.886 1.102-0.032 0.004-0.068 0.006-0.106 0.006z" fill="#000000"></path>
	<path d="M27.086 47.65v0c-0.594 0-1.208-0.010-1.824-0.034-10.98-0.382-17.726-5.058-22.878-9.582-2.078-1.824-2.888-4.042-2.18-5.936 0.958-2.548 4.48-3.396 7.626-1.602 5.138 2.934 11.646 3.23 17.474 0.702 8.96-3.888 15.508-2.516 17.122 3.404 0.934 3.426 0.566 6.262-1.090 8.428-2.34 3.066-7.136 4.62-14.25 4.62zM4.334 31.49c-1.086 0-1.954 0.504-2.256 1.316-0.408 1.082 0.202 2.472 1.626 3.726 4.882 4.292 11.274 8.724 21.624 9.086 0.598 0.022 1.184 0.034 1.754 0.034 0.004 0 0.004 0 0.004 0 6.368 0 10.742-1.326 12.66-3.832 1.254-1.646 1.508-3.896 0.746-6.688-0.754-2.776-2.796-4.182-6.078-4.182-2.328 0-5.128 0.704-8.312 2.086-6.394 2.782-13.584 2.448-19.264-0.798-0.856-0.49-1.72-0.748-2.504-0.748z" fill="#000000"></path>
	<path d="M37.958 35.704c-0.488 0-0.914-0.36-0.988-0.858-0.078-0.544 0.3-1.052 0.852-1.13 2.57-0.376 3.128-1.818 3.84-3.648 0.73-1.906 1.644-4.28 5.386-4.28 0.55 0 1 0.448 1 1 0 0.55-0.45 1-1 1-2.372 0-2.832 1.192-3.528 2.998-0.75 1.946-1.684 4.368-5.418 4.906-0.052 0.008-0.094 0.012-0.144 0.012z" fill="#000000"></path>
	<path d="M37.562 45.618c-0.218 0-0.446-0.072-0.628-0.222-0.426-0.348-0.492-0.978-0.144-1.406 0.376-0.458 0.71-1.136 0.204-1.768-0.688-0.838-2.458-1.198-4.41-0.208-0.454 0.224-0.996 0.086-1.282-0.33-0.282-0.414-0.21-0.974 0.16-1.308 1.418-1.268 1.528-2.51 1.184-3.188-0.36-0.718-1.226-1.020-2.312-0.792-0.5 0.092-0.954-0.162-1.128-0.612-0.18-0.45-0.012-0.96 0.398-1.216 1.274-0.796 1.348-1.804 1.028-2.428-0.126-0.248-0.446-0.626-0.82-0.468-0.512 0.212-1.094-0.034-1.304-0.542s0.032-1.096 0.542-1.304c1.258-0.522 2.676 0.064 3.364 1.398 0.476 0.928 0.55 2.166-0.058 3.31 0.918 0.296 1.66 0.902 2.090 1.758 0.484 0.96 0.496 2.064 0.094 3.14 1.77-0.11 3.222 0.55 4.020 1.536 1.004 1.248 0.934 2.89-0.204 4.286-0.216 0.238-0.5 0.364-0.794 0.364z" fill="#000000"></path>
</svg>
