<?xml version="1.0" encoding="utf-8"?>
<!-- Generated by IcoMoon.io -->
<!DOCTYPE svg PUBLIC "-//W3C//DTD SVG 1.1//EN" "http://www.w3.org/Graphics/SVG/1.1/DTD/svg11.dtd">
<svg version="1.1" xmlns="http://www.w3.org/2000/svg" xmlns:xlink="http://www.w3.org/1999/xlink" width="48" height="48" viewBox="0 0 48 48">
<g id="icomoon-ignore">
	<line stroke-width="1" x1="" y1="" x2="" y2="" stroke="#449FDB" opacity=""></line>
</g>
	<path d="M24 2c12.128 0 22 9.87 22 22 0 12.128-9.872 22-22 22-12.13 0-22-9.872-22-22 0-12.13 9.87-22 22-22zM24 0c-13.254 0-24 10.746-24 24s10.746 24 24 24 24-10.746 24-24-10.746-24-24-24v0z" fill="#000000"></path>
	<path d="M24 6c9.924 0 18 8.074 18 18s-8.076 18-18 18-18-8.074-18-18 8.076-18 18-18zM24 4c-11.046 0-20 8.954-20 20s8.954 20 20 20c11.042 0 20-8.954 20-20s-8.958-20-20-20v0z" fill="#000000"></path>
	<path d="M24 13c-1.654 0-3-1.346-3-3s1.346-3 3-3 3 1.346 3 3-1.346 3-3 3zM24 9c-0.552 0-1 0.448-1 1s0.448 1 1 1 1-0.448 1-1-0.448-1-1-1z" fill="#000000"></path>
	<path d="M24 41c-1.654 0-3-1.346-3-3s1.346-3 3-3 3 1.346 3 3-1.346 3-3 3zM24 37c-0.552 0-1 0.45-1 1s0.448 1 1 1 1-0.45 1-1-0.448-1-1-1z" fill="#000000"></path>
	<path d="M10 27c-1.654 0-3-1.346-3-3s1.346-3 3-3 3 1.346 3 3-1.346 3-3 3zM10 23c-0.552 0-1 0.448-1 1s0.448 1 1 1 1-0.448 1-1-0.448-1-1-1z" fill="#000000"></path>
	<path d="M38 27c-1.654 0-3-1.346-3-3s1.346-3 3-3 3 1.346 3 3-1.346 3-3 3zM38 23c-0.55 0-1 0.448-1 1s0.45 1 1 1 1-0.448 1-1-0.45-1-1-1z" fill="#000000"></path>
	<path d="M14.102 17.102c-0.8 0-1.554-0.312-2.122-0.876-0.568-0.568-0.88-1.322-0.88-2.126 0-0.8 0.314-1.554 0.88-2.12 1.13-1.13 3.108-1.132 4.242 0 1.17 1.17 1.17 3.072 0 4.242-0.566 0.568-1.32 0.88-2.12 0.88zM14.102 13.102c-0.266 0-0.518 0.104-0.708 0.292-0.19 0.19-0.294 0.44-0.294 0.706 0 0.268 0.104 0.52 0.294 0.708 0.378 0.376 1.036 0.376 1.414 0 0.39-0.39 0.39-1.024 0-1.414-0.188-0.188-0.44-0.292-0.706-0.292z" fill="#000000"></path>
	<path d="M33.9 36.9c-0.8 0-1.554-0.312-2.124-0.88-1.168-1.166-1.168-3.070 0-4.242 1.138-1.134 3.114-1.132 4.246 0 1.172 1.172 1.172 3.072 0 4.242-0.564 0.566-1.318 0.88-2.122 0.88zM33.9 32.898c-0.268 0-0.522 0.104-0.708 0.292-0.39 0.39-0.39 1.026 0 1.412 0.378 0.38 1.040 0.38 1.414 0 0.39-0.39 0.39-1.024 0-1.414-0.188-0.186-0.438-0.29-0.706-0.29v0z" fill="#000000"></path>
	<path d="M14.1 36.9c-0.802 0-1.554-0.312-2.122-0.88-0.566-0.562-0.878-1.316-0.878-2.118s0.312-1.556 0.88-2.126c1.132-1.13 3.11-1.13 4.242 0 1.17 1.172 1.168 3.076 0 4.244-0.566 0.566-1.32 0.88-2.122 0.88zM14.102 32.898c-0.266 0-0.518 0.104-0.708 0.292-0.19 0.19-0.294 0.444-0.294 0.708s0.104 0.516 0.292 0.704c0.38 0.38 1.036 0.38 1.416 0 0.39-0.39 0.39-1.024 0-1.416-0.188-0.184-0.44-0.288-0.706-0.288z" fill="#000000"></path>
	<path d="M33.9 17.1c-0.8 0-1.554-0.312-2.124-0.876-1.168-1.17-1.168-3.074 0-4.244 1.138-1.134 3.106-1.134 4.244 0 1.17 1.17 1.17 3.074 0 4.244-0.566 0.566-1.32 0.876-2.12 0.876zM33.9 13.102c-0.268 0-0.518 0.104-0.708 0.294-0.386 0.388-0.386 1.024 0 1.414 0.378 0.376 1.042 0.376 1.418 0 0.388-0.388 0.388-1.024 0-1.414-0.192-0.19-0.444-0.294-0.71-0.294z" fill="#000000"></path>
	<path d="M24 27c-1.654 0-3-1.346-3-3s1.346-3 3-3 3 1.346 3 3-1.346 3-3 3zM24 23c-0.552 0-1 0.448-1 1s0.448 1 1 1 1-0.448 1-1-0.448-1-1-1z" fill="#000000"></path>
	<path d="M22 17c-0.256 0-0.512-0.098-0.708-0.292l-2-2c-0.39-0.39-0.39-1.024 0-1.414s1.024-0.39 1.414 0l2 2c0.39 0.39 0.39 1.024 0 1.414-0.194 0.194-0.45 0.292-0.706 0.292z" fill="#000000"></path>
	<path d="M26 17c-0.256 0-0.512-0.098-0.708-0.292-0.39-0.39-0.39-1.024 0-1.414l2-2c0.388-0.39 1.024-0.39 1.414 0 0.388 0.39 0.388 1.024 0 1.414l-2 2c-0.194 0.194-0.45 0.292-0.706 0.292z" fill="#000000"></path>
	<path d="M16 23c-0.256 0-0.512-0.098-0.708-0.292l-2-2c-0.39-0.39-0.39-1.024 0-1.414s1.024-0.39 1.414 0l2 2c0.39 0.39 0.39 1.024 0 1.414-0.194 0.194-0.45 0.292-0.706 0.292z" fill="#000000"></path>
	<path d="M16 30h-2c-0.552 0-1-0.45-1-1s0.448-1 1-1h2c0.552 0 1 0.45 1 1s-0.448 1-1 1z" fill="#000000"></path>
	<path d="M23 33c-0.552 0-1-0.45-1-1v-2c0-0.55 0.448-1 1-1s1 0.45 1 1v2c0 0.55-0.448 1-1 1z" fill="#000000"></path>
	<path d="M32 30h-2c-0.55 0-1-0.45-1-1s0.45-1 1-1h2c0.55 0 1 0.45 1 1s-0.45 1-1 1z" fill="#000000"></path>
	<path d="M30 25c-0.256 0-0.512-0.098-0.708-0.292-0.39-0.39-0.39-1.024 0-1.414l2-2c0.388-0.39 1.024-0.39 1.414 0 0.388 0.39 0.388 1.024 0 1.414l-2 2c-0.194 0.194-0.45 0.292-0.706 0.292z" fill="#000000"></path>
</svg>
