<?xml version="1.0" encoding="utf-8"?>
<!-- Generated by IcoMoon.io -->
<!DOCTYPE svg PUBLIC "-//W3C//DTD SVG 1.1//EN" "http://www.w3.org/Graphics/SVG/1.1/DTD/svg11.dtd">
<svg version="1.1" xmlns="http://www.w3.org/2000/svg" xmlns:xlink="http://www.w3.org/1999/xlink" width="48" height="48" viewBox="0 0 48 48">
<g id="icomoon-ignore">
	<line stroke-width="1" x1="" y1="" x2="" y2="" stroke="#449FDB" opacity=""></line>
</g>
	<path d="M13 36h-6c-0.552 0-1-0.448-1-1v-6c0-0.55 0.448-1 1-1h6c0.552 0 1 0.45 1 1v6c0 0.552-0.448 1-1 1zM8 34h4v-4h-4v4z" fill="#000000"></path>
	<path d="M41 36h-6c-0.55 0-1-0.448-1-1v-6c0-0.55 0.45-1 1-1h6c0.55 0 1 0.45 1 1v6c0 0.552-0.45 1-1 1zM36 34h4v-4h-4v4z" fill="#000000"></path>
	<path d="M47 30h-46c-0.552 0-1-0.448-1-1v-4c0-0.55 0.448-1 1-1h46c0.55 0 1 0.448 1 1v4c0 0.552-0.45 1-1 1zM2 28h44v-2h-44v2z" fill="#000000"></path>
	<path d="M37.636 24h-7.274c-1.304 0-2.366-1.060-2.366-2.364v-7.272c0-1.302 1.060-2.364 2.366-2.364h7.274c1.302 0 2.364 1.060 2.364 2.364v7.274c0 1.302-1.058 2.362-2.364 2.362zM30.364 14c-0.2 0-0.364 0.166-0.364 0.366v7.274c0 0.2 0.164 0.364 0.364 0.364h7.274c0.202 0 0.366-0.164 0.366-0.364v-7.274c0-0.2-0.164-0.364-0.366-0.364h-7.274z" fill="#000000"></path>
	<path d="M34 21c-1.654 0-3-1.346-3-3s1.346-3 3-3 3 1.346 3 3-1.346 3-3 3zM34 17c-0.55 0-1 0.448-1 1s0.45 1 1 1 1-0.448 1-1-0.45-1-1-1z" fill="#000000"></path>
	<path d="M23.636 24h-7.274c-1.302 0-2.364-1.060-2.364-2.364v-7.272c0-1.302 1.060-2.364 2.364-2.364h7.274c1.302 0 2.364 1.060 2.364 2.364v7.274c0 1.302-1.060 2.362-2.364 2.362zM16.364 14c-0.2 0-0.364 0.166-0.364 0.366v7.274c0 0.2 0.164 0.364 0.364 0.364h7.274c0.2 0 0.364-0.164 0.364-0.364v-7.274c0-0.2-0.164-0.364-0.364-0.364h-7.274z" fill="#000000"></path>
	<path d="M20 21c-1.654 0-3-1.346-3-3s1.346-3 3-3 3 1.346 3 3-1.346 3-3 3zM20 17c-0.552 0-1 0.45-1 1s0.448 1 1 1 1-0.448 1-1-0.448-1-1-1z" fill="#000000"></path>
</svg>
