<?xml version="1.0" encoding="utf-8"?>
<!-- Generated by IcoMoon.io -->
<!DOCTYPE svg PUBLIC "-//W3C//DTD SVG 1.1//EN" "http://www.w3.org/Graphics/SVG/1.1/DTD/svg11.dtd">
<svg version="1.1" xmlns="http://www.w3.org/2000/svg" xmlns:xlink="http://www.w3.org/1999/xlink" width="48" height="48" viewBox="0 0 48 48">
<g id="icomoon-ignore">
	<line stroke-width="1" x1="" y1="" x2="" y2="" stroke="#449FDB" opacity=""></line>
</g>
	<path d="M24 45.028c-12.126 0-21.99-9.328-21.99-20.792 0-7.712 5.3-12.696 13.504-12.696 2.806 0 5.742 0.63 8.518 1.824 3.34-1.21 6.478-1.824 9.33-1.824 7.906 0 12.626 4.746 12.626 12.696 0.004 11.464-9.862 20.792-21.988 20.792zM15.516 13.54c-5.308 0-11.504 2.802-11.504 10.696 0 10.362 8.966 18.792 19.99 18.792s19.99-8.43 19.99-18.792c0-6.896-3.774-10.696-10.626-10.696-2.722 0-5.754 0.62-9.012 1.838l-0.386 0.144-0.376-0.17c-2.632-1.186-5.424-1.812-8.076-1.812z" fill="#000000"></path>
	<path d="M6.912 26.054c-0.552 0-1-0.45-1-1 0-6.060 4.086-10.182 10.412-10.5 0.57-0.028 1.022 0.396 1.050 0.948 0.026 0.552-0.398 1.022-0.95 1.050-4.116 0.208-8.51 2.55-8.51 8.502-0.002 0.552-0.452 1-1.002 1z" fill="#000000"></path>
	<path d="M24 16.812c-0.552 0-1-0.448-1-1 0-3.536 1.854-8.794 6.962-8.794 0.552 0 1 0.448 1 1s-0.448 1-1 1c-4.070 0-4.962 4.906-4.962 6.794 0 0.552-0.448 1-1 1z" fill="#000000"></path>
	<path d="M24 16.352c-0.49 0-0.918-0.36-0.99-0.86-0.726-5.132-0.268-8.442 1.444-10.412 1.212-1.398 3.064-2.106 5.508-2.106 0.552 0 1 0.448 1 1s-0.448 1-1 1c-1.866 0-3.17 0.464-4 1.416-1.286 1.48-1.604 4.364-0.972 8.82 0.080 0.546-0.304 1.052-0.85 1.13-0.048 0.010-0.094 0.012-0.14 0.012z" fill="#000000"></path>
	<path d="M23.962 16.812c-0.552 0-1-0.448-1-1 0-1.89-0.892-6.794-4.962-6.794-0.552 0-1-0.448-1-1s0.448-1 1-1c5.108 0 6.962 5.26 6.962 8.794 0 0.552-0.446 1-1 1z" fill="#000000"></path>
</svg>
