<svg width="45" height="15" viewBox="0 0 45 15" fill="none" xmlns="http://www.w3.org/2000/svg">
<circle cx="1.5" cy="1.61328" r="1" fill="#043E30"/>
<circle cx="7.5" cy="1.61328" r="1" fill="#043E30"/>
<circle cx="13.5" cy="1.61328" r="1" fill="#043E30"/>
<circle cx="19.5" cy="1.61328" r="1" fill="#043E30"/>
<circle cx="1.5" cy="7.61328" r="1" fill="#043E30"/>
<circle cx="7.5" cy="7.61328" r="1" fill="#043E30"/>
<circle cx="13.5" cy="7.61328" r="1" fill="#043E30"/>
<circle cx="19.5" cy="7.61328" r="1" fill="#043E30"/>
<circle cx="1.5" cy="13.6133" r="1" fill="#043E30"/>
<circle cx="7.5" cy="13.6133" r="1" fill="#043E30"/>
<circle cx="13.5" cy="13.6133" r="1" fill="#043E30"/>
<circle cx="19.5" cy="13.6133" r="1" fill="#043E30"/>
<circle cx="25.5" cy="1.61328" r="1" fill="#043E30"/>
<circle cx="31.5" cy="1.61328" r="1" fill="#043E30"/>
<circle cx="37.5" cy="1.61328" r="1" fill="#043E30"/>
<circle cx="43.5" cy="1.61328" r="1" fill="#043E30"/>
<circle cx="25.5" cy="7.61328" r="1" fill="#043E30"/>
<circle cx="31.5" cy="7.61328" r="1" fill="#043E30"/>
<circle cx="37.5" cy="7.61328" r="1" fill="#043E30"/>
<circle cx="43.5" cy="7.61328" r="1" fill="#043E30"/>
<circle cx="25.5" cy="13.6133" r="1" fill="#043E30"/>
<circle cx="31.5" cy="13.6133" r="1" fill="#043E30"/>
<circle cx="37.5" cy="13.6133" r="1" fill="#043E30"/>
<circle cx="43.5" cy="13.6133" r="1" fill="#043E30"/>
</svg>
