<svg width="520" height="151" viewBox="0 0 520 151" fill="none" xmlns="http://www.w3.org/2000/svg">
<path d="M0 141.492L35.136 53.164C36.112 50.724 36.4373 48.9347 36.112 47.796C35.9493 46.6573 35.2173 46.088 33.916 46.088C32.452 46.088 30.1747 47.6333 27.084 50.724C23.9933 53.8147 20.6587 57.556 17.08 61.948C13.664 66.34 10.6547 70.5693 8.052 74.636L3.172 71.464C13.42 56.9867 22.1227 46.2507 29.28 39.256C36.6 32.2613 43.5133 28.764 50.02 28.764C55.7133 28.764 59.6173 30.7973 61.732 34.864C63.8467 38.768 63.5213 43.9733 60.756 50.48L41.968 93.668H42.456C45.872 87.4867 49.6947 80.6547 53.924 73.172C58.316 65.6893 62.952 58.6133 67.832 51.944C72.8747 45.112 78.2427 39.5 83.936 35.108C89.6293 30.716 95.5667 28.52 101.748 28.52C107.441 28.52 111.752 30.0653 114.68 33.156C117.771 36.084 119.316 39.6627 119.316 43.892C119.316 48.9347 117.771 52.92 114.68 55.848C111.752 58.776 108.417 60.24 104.676 60.24C102.561 60.24 100.853 59.752 99.552 58.776C98.2507 57.8 97.2747 56.7427 96.624 55.604C95.4853 53.3267 94.3467 51.3747 93.208 49.748C92.232 47.9587 90.6053 47.064 88.328 47.064C84.7493 47.064 80.3573 49.5853 75.152 54.628C70.1093 59.508 64.66 66.2587 58.804 74.88C53.1107 83.5013 47.4173 93.3427 41.724 104.404C36.0307 115.303 30.744 126.689 25.864 138.564L0 141.492Z" fill="white"/>
<path d="M132.482 140.516C125.325 140.516 120.038 138.157 116.622 133.44C113.206 128.56 111.498 122.623 111.498 115.628C111.498 105.38 113.45 95.7827 117.354 86.836C121.421 77.7267 126.545 69.512 132.726 62.192C138.908 54.7093 145.252 48.2027 151.758 42.672C157.126 38.1173 162.576 34.62 168.106 32.18C173.8 29.74 178.924 28.52 183.478 28.52C189.66 28.52 194.214 29.9027 197.142 32.668C200.233 35.4333 201.778 38.8493 201.778 42.916C201.778 48.772 199.42 54.628 194.702 60.484C190.148 66.34 182.584 71.6267 172.01 76.344C161.437 80.8987 147.041 84.396 128.822 86.836L129.31 79.76C140.046 78.9467 148.993 76.832 156.15 73.416C163.308 69.8373 168.594 65.852 172.01 61.46C175.589 56.9053 177.378 52.8387 177.378 49.26C177.378 44.868 175.264 42.672 171.034 42.672C166.642 42.672 162.332 44.4613 158.102 48.04C154.036 51.456 150.294 56.0107 146.878 61.704C143.625 67.3973 140.941 73.5787 138.826 80.248C136.874 86.9173 135.898 93.5053 135.898 100.012C135.898 106.356 137.118 111.155 139.558 114.408C142.161 117.499 145.902 119.044 150.782 119.044C154.198 119.044 157.696 118.149 161.274 116.36C164.853 114.571 168.513 111.805 172.254 108.064C175.996 104.16 179.574 99.28 182.99 93.424L187.626 96.352C183.072 104.323 177.622 111.643 171.278 118.312C164.934 124.981 158.346 130.349 151.514 134.416C144.682 138.483 138.338 140.516 132.482 140.516Z" fill="white"/>
<path d="M229.436 140.516C223.255 140.516 217.562 139.459 212.356 137.344C207.151 135.229 203.003 132.057 199.912 127.828C196.822 123.436 195.276 118.149 195.276 111.968C195.276 106.437 196.74 102.371 199.668 99.768C202.596 97.0027 205.687 95.62 208.94 95.62C212.194 95.62 215.04 96.6773 217.48 98.792C220.083 100.744 221.384 103.428 221.384 106.844C221.384 108.796 220.978 110.504 220.164 111.968C219.351 113.269 218.538 114.489 217.724 115.628C216.586 116.929 215.528 118.231 214.552 119.532C213.576 120.833 213.088 122.379 213.088 124.168C213.088 126.608 214.634 128.804 217.724 130.756C220.815 132.545 224.394 133.44 228.46 133.44C233.34 133.44 237.407 131.895 240.66 128.804C243.914 125.551 245.54 120.671 245.54 114.164C245.54 110.423 244.564 106.681 242.612 102.94C240.66 99.036 238.22 95.0507 235.292 90.984C231.714 85.7787 228.298 80.492 225.044 75.124C221.954 69.756 220.408 63.7373 220.408 57.068C220.408 51.7 221.791 46.9013 224.556 42.672C227.322 38.28 231.307 34.7827 236.512 32.18C241.718 29.5773 247.818 28.276 254.812 28.276C262.946 28.276 270.022 30.228 276.04 34.132C282.222 37.8733 285.312 43.5667 285.312 51.212C285.312 54.3027 284.336 57.068 282.384 59.508C280.432 61.7853 277.586 62.924 273.844 62.924C269.94 62.924 267.094 61.8667 265.304 59.752C263.515 57.6373 262.62 55.0347 262.62 51.944C262.62 51.456 262.62 50.8867 262.62 50.236C262.783 49.4227 262.946 48.6907 263.108 48.04C263.271 47.2267 263.434 46.4133 263.596 45.6C263.759 44.624 263.84 43.892 263.84 43.404C263.84 40.964 262.864 38.9307 260.912 37.304C258.96 35.6773 256.358 34.864 253.104 34.864C250.014 34.864 247.248 36.0027 244.808 38.28C242.368 40.5573 241.148 44.2987 241.148 49.504C241.148 53.5707 242.45 57.8813 245.052 62.436C247.818 66.828 250.664 71.0573 253.592 75.124C257.334 80.1667 260.506 84.9653 263.108 89.52C265.711 93.912 267.012 99.768 267.012 107.088C267.012 114.571 265.142 120.833 261.4 125.876C257.822 130.756 253.104 134.416 247.248 136.856C241.555 139.296 235.618 140.516 229.436 140.516Z" fill="white"/>
<path d="M299.914 140.516C293.407 140.516 289.097 138.401 286.982 134.172C285.03 129.78 285.355 124.331 287.958 117.824L318.458 39.5H302.11L305.526 30.96H322.362L330.17 11.44L355.79 9L347.006 30.716H367.014L363.598 39.256H343.59L314.066 114.164C312.927 117.255 312.602 119.532 313.09 120.996C313.741 122.46 314.879 123.192 316.506 123.192C317.807 123.192 319.922 121.647 322.85 118.556C325.778 115.465 328.869 111.724 332.122 107.332C335.375 102.777 338.222 98.548 340.662 94.644L345.542 97.816C335.619 112.456 327.079 123.273 319.922 130.268C312.765 137.1 306.095 140.516 299.914 140.516Z" fill="white"/>
<path d="M401.767 140.76C390.706 140.76 381.678 137.913 374.683 132.22C367.688 126.364 364.191 117.824 364.191 106.6C364.191 95.864 365.899 85.86 369.315 76.588C372.894 67.1533 377.611 58.8573 383.467 51.7C389.486 44.38 396.236 38.6867 403.719 34.62C411.364 30.5533 419.172 28.52 427.143 28.52C438.53 28.52 447.395 31.7733 453.739 38.28C460.083 44.7867 463.255 53.0013 463.255 62.924C463.255 73.3347 461.628 83.2573 458.375 92.692C455.122 101.964 450.648 110.26 444.955 117.58C439.262 124.737 432.674 130.431 425.191 134.66C417.871 138.727 410.063 140.76 401.767 140.76ZM396.887 132.952C400.791 132.952 404.776 131 408.843 127.096C413.072 123.192 417.058 118.149 420.799 111.968C424.54 105.624 427.875 98.792 430.803 91.472C433.894 84.152 436.334 77.076 438.123 70.244C439.912 63.2493 440.807 57.2307 440.807 52.188C440.807 41.7773 437.391 36.572 430.559 36.572C426.655 36.572 422.67 38.524 418.603 42.428C414.536 46.332 410.551 51.3747 406.647 57.556C402.906 63.7373 399.571 70.488 396.643 77.808C393.715 85.128 391.356 92.2853 389.567 99.28C387.778 106.112 386.883 112.049 386.883 117.092C386.883 122.135 387.778 126.039 389.567 128.804C391.356 131.569 393.796 132.952 396.887 132.952Z" fill="white"/>
<path d="M491.231 141.248C485.7 141.248 480.902 139.296 476.835 135.392C472.931 131.325 470.979 126.527 470.979 120.996C470.979 115.303 472.931 110.504 476.835 106.6C480.902 102.533 485.7 100.5 491.231 100.5C496.924 100.5 501.723 102.533 505.627 106.6C509.531 110.504 511.483 115.303 511.483 120.996C511.483 126.527 509.531 131.325 505.627 135.392C501.723 139.296 496.924 141.248 491.231 141.248Z" fill="white"/>
</svg>
