<svg width="185" height="185" viewBox="0 0 185 185" fill="none" xmlns="http://www.w3.org/2000/svg">
<g clip-path="url(#clip0)">
<path d="M2.34327 103.264C-1.96146 93.4096 2.34325 86.8627 2.34325 76.6261C5.01715 57.6119 9.44941 52.8913 14.0694 46.8479C22.5627 35.738 27.0882 25.3744 39.1117 18.1345C45.4752 14.3028 54.0584 11.9185 61.2723 10.4506C68.0353 9.07451 75.2841 3.57559 88.6996 1.35131C99.432 1.3513 104.141 1.18018 107.084 3.57559C110.027 5.97099 116.652 7.39342 120.996 9.0352C126.866 11.2533 131.633 13.8893 137.89 16.0113C146.797 19.0322 150.411 21.3698 157.566 34.1088C164.721 46.8479 166.51 45.028 172.77 56.8572C179.031 68.6864 182.609 76.6399 182.609 87.6939C182.609 91.8973 181.813 93.3557 181.813 105.084C181.813 116.812 180.494 115.714 178.633 121.867C175.588 131.937 166.51 141.481 157.566 154.22C150.315 164.548 145.944 168.128 137.89 173.43C127.666 180.161 120.21 179.959 108.077 182.428C94.9115 185.107 82.255 182.121 69.5204 181.518C61.5144 181.139 51.8302 179.858 46.4149 173.43C43.0869 169.48 33.7424 165.68 29.6713 162.409C27.2678 160.479 21.7549 157.012 20.2306 154.22C18.0237 150.178 17.9654 144.454 14.0694 141.481C6.94518 136.045 8.63605 124.777 7.2126 116.812C6.43623 112.467 4.07134 107.22 2.34327 103.264Z" fill="#043E30"/>
</g>
<defs>
<clipPath id="clip0">
<rect width="184" height="184" fill="white" transform="translate(0.151978 0.44043)"/>
</clipPath>
</defs>
</svg>
