<svg width="106" height="100" viewBox="0 0 106 100" fill="none" xmlns="http://www.w3.org/2000/svg">
<path d="M9.69592 82.64C9.32879 81.8656 8.67345 81.2645 7.86865 80.9641C7.42015 80.7656 7.47125 80.3205 7.47536 79.9795C7.52642 79.6946 7.48938 79.4011 7.36915 79.1381C7.34067 79.0512 7.33437 78.9586 7.35084 78.8686C7.36731 78.7786 7.40602 78.6941 7.46347 78.6227C7.78139 78.268 8.13088 77.9428 8.50764 77.651C9.97632 76.7472 11.5715 76.0665 13.2407 75.6312C14.9052 75.0726 16.6072 74.6328 18.3339 74.3151C18.8763 74.2337 18.8747 74.2236 19.1082 74.8553C18.168 75.0679 17.2227 75.2474 16.2984 75.5014C15.5647 75.7023 14.8563 75.9933 14.0712 76.2666C14.162 76.3523 14.2762 76.4093 14.3995 76.4306C14.5228 76.4518 14.6497 76.4364 14.7643 76.3861C16.3186 75.7969 17.9251 75.3558 19.5623 75.0688L19.7057 75.5007L19.4657 75.6626L20.0056 75.8065L19.9355 76.8473C19.7182 77.1051 19.1577 77.1058 18.9625 77.5733C18.4379 77.4169 18.0503 77.8063 17.6011 77.9362C17.0861 78.111 16.5828 78.3182 16.0941 78.5565C16.0519 78.8787 16.0324 79.1231 15.9846 79.362C15.8199 80.2023 15.7996 80.1733 15.2063 80.5675C14.5491 81.0045 13.7359 81.2063 13.2168 81.8569C13.1949 81.8794 13.1682 81.8967 13.1387 81.9075C13.1091 81.9182 13.0776 81.9222 13.0463 81.9191C12.5088 81.8006 12.2361 82.0458 11.9706 82.5081C11.7493 82.8966 11.2766 82.8976 10.8376 82.8016C10.501 82.7281 10.154 82.7012 9.69559 82.6372" fill="#1E2A95"/>
<path d="M91.2461 25.5592C90.7904 26.0708 90.7904 26.0708 91.325 26.5536C91.3556 26.992 90.9436 27.4077 91.2173 27.8721C90.9847 28.2447 90.7721 28.6294 90.5806 29.0245C90.3063 29.6731 89.6903 29.8817 89.1459 30.1444C88.778 30.3228 88.4051 30.5133 88.0175 30.6629C87.5637 30.8378 87.1351 31.0769 86.682 31.2531C86.2712 31.4126 85.843 31.5287 85.4201 31.6548C85.3051 31.7039 85.1784 31.7193 85.055 31.699C84.932 31.6535 84.7999 31.6382 84.6696 31.6546C84.5394 31.6709 84.415 31.7183 84.307 31.7928C83.8144 32.0736 83.252 31.8915 82.7303 31.8961C82.2273 31.8547 81.7351 31.7283 81.2748 31.5224C81.0943 31.4581 80.7068 31.3291 81.1065 31.001C81.1349 30.9779 81.0216 30.7961 80.9907 30.683C80.9597 30.5698 80.8907 30.3579 80.9323 30.3297C81.424 30.0024 81.183 29.8264 80.864 29.5317C80.3937 29.0982 80.4813 28.9333 80.8282 28.1975C81.0396 27.7499 81.1901 27.2559 81.672 27.089C82.9796 26.6398 84.2828 26.1711 85.7248 26.4429C86.0182 26.5192 86.3239 26.5366 86.6243 26.494C86.9247 26.4514 87.2136 26.3497 87.4744 26.1947C87.9349 25.8871 88.51 25.7542 88.8517 25.2574C88.9551 25.108 89.1856 25.0393 89.3661 24.9497C89.7378 24.7557 90.1688 24.7078 90.5737 24.8153C91.0286 24.9284 91.0324 25.314 91.2447 25.5583" fill="#1E2A95"/>
<path d="M37.275 78.7366C37.8879 78.3836 38.4701 78.1047 38.9902 77.7382C40.4813 76.6833 42.2454 76.467 43.9464 76.0532C44.7095 75.8671 45.4291 76.1701 46.1449 76.3774C46.2688 76.4137 46.3437 76.6181 46.4474 76.7533L45.4236 76.9678L46.7569 77.323C46.7828 77.6155 46.8461 77.9035 46.9452 78.1799C47.0007 78.3008 47.0228 78.4344 47.0093 78.5668C46.9957 78.6993 46.947 78.8258 46.8681 78.9333C46.6885 79.1652 46.4754 79.3694 46.2359 79.5393C45.5924 79.27 44.8696 79.256 44.215 79.5001C44.2154 79.8266 43.9016 80.1281 44.1327 80.5167C44.1506 80.5807 44.1524 80.6483 44.138 80.7132C44.1236 80.7782 44.0933 80.8387 44.0499 80.8894C43.3956 81.5154 42.9113 82.3689 41.8846 82.5004C41.6993 82.5236 41.4636 82.5415 41.3528 82.6583C41.1856 82.8343 40.8868 82.5568 40.7779 82.9064C40.6884 83.1939 40.4412 82.9291 40.2656 82.9382C40.0484 82.9626 39.8297 82.9716 39.6112 82.9651C39.4127 82.932 39.2174 82.8824 39.0272 82.817C38.5717 81.9273 37.9052 81.1621 37.0855 80.5879L37.2743 78.737" fill="#1E2A95"/>
<path d="M104.631 9.87614C104.825 10.1183 104.99 10.3101 105.139 10.5138C105.189 10.5955 105.224 10.6857 105.242 10.7801C105.309 11.0431 104.901 11.1099 104.991 11.408C105.07 11.6434 105.097 11.8936 105.069 12.1407C105.035 12.3357 104.73 12.5561 104.776 12.6776C104.88 12.9488 104.892 13.0979 104.617 13.2363C104.566 13.2621 104.56 13.4052 104.558 13.4945C104.542 14.1554 104.542 14.1549 103.848 14.3272L104.259 14.6038C104.021 14.6406 103.782 14.6611 103.541 14.6649C103.282 14.6429 103.025 14.6009 102.772 14.5391C102.513 14.4544 102.238 14.4338 101.969 14.4789L102.882 14.8232L102.859 14.9246C102.687 14.9058 102.516 14.8782 102.346 14.842C101.501 14.6226 100.665 14.3575 99.8112 14.1811C99.0789 14.0606 98.4108 13.6928 97.9191 13.1392C98.1122 13.0229 98.3797 12.935 98.0642 12.6594C97.7194 12.3584 97.8339 12.0539 98.1252 11.698C97.7112 11.5156 97.2101 11.3499 97.5657 10.6798L98.6433 10.9669L98.7106 10.8316L97.685 10.1916C97.9856 9.92906 98.2815 9.7277 98.7204 9.9C98.8429 9.94769 99.0209 9.83754 99.1745 9.8279C99.8432 9.78607 99.8435 9.79098 99.9955 9.28561C100.025 9.18907 100.048 9.09143 100.074 8.9941L100.146 8.72768C100.46 8.54713 100.757 8.38862 101.041 8.20937C101.629 7.88221 102.317 7.78045 102.975 7.92322C103.308 7.96886 103.621 8.12605 103.953 8.16614C104.269 8.23291 104.548 8.41808 104.73 8.68348C105.137 9.13216 105.105 9.30914 104.629 9.87573" fill="#1E2A95"/>
<path d="M81.6228 64.5448C81.452 64.0546 81.2762 63.5792 81.1337 63.0943C81.1198 63.0476 81.3059 62.9418 81.4578 62.8145C81.3189 62.6963 81.1891 62.5679 81.0697 62.4304C80.9583 62.2627 80.8557 62.0895 80.7622 61.9113C80.5529 61.5619 80.3088 61.2135 80.8487 60.9234C80.8898 60.901 80.8825 60.7979 80.9068 60.7361C81.0799 60.2945 81.0823 59.83 81.572 59.47C81.9437 59.1251 82.3387 58.8061 82.7543 58.5153C83.1686 58.2543 83.618 58.0535 84.0891 57.9191C84.8183 57.6654 85.6113 57.6626 86.3414 57.9109C86.5461 58.04 86.7346 58.1931 86.9026 58.3669L86.2437 58.8367C86.7281 59.1357 87.3496 59.2663 87.683 59.8772L87.0646 60.3643L87.7749 60.5535C87.7803 61.2058 87.7094 61.8566 87.5638 62.4928C87.466 62.8314 87.2491 63.1238 86.9528 63.3163C86.6117 63.5847 86.2407 63.8131 85.8471 63.9967C85.4546 64.1287 85.095 64.3561 84.6883 64.4946C84.0198 64.6498 83.3399 64.7503 82.6552 64.7951C82.2978 64.78 81.947 64.6949 81.6228 64.5448Z" fill="#1E2A95"/>
<path d="M74.042 18.3553L71.9473 17.7973C72.4263 18.0816 72.9494 18.2849 73.4953 18.399C73.7086 18.4601 74.0018 18.4307 74.0593 18.7251C74.1333 19.0258 74.1605 19.3361 74.1399 19.6452C74.1274 19.7494 73.8414 19.8743 73.6716 19.8899C73.4706 19.8736 73.2735 19.8253 73.088 19.7467C73.1118 19.9262 73.1644 20.043 73.1317 20.1262C73.0636 20.2985 72.8327 20.4988 72.8751 20.6075C73.1119 21.2126 72.7173 21.7017 72.6054 22.2323C72.5695 22.3683 72.5032 22.4945 72.4116 22.6016C72.32 22.7086 72.2053 22.7938 72.0762 22.8506C71.5267 23.0027 71.2302 23.526 70.5928 23.6718C70.2856 23.5869 69.9584 23.6086 69.6649 23.7333C69.4079 23.8661 69.1256 23.9429 68.8368 23.9587C68.548 23.9744 68.2592 23.9288 67.9896 23.8248C67.6893 23.7166 67.3811 23.6316 67.0676 23.5706C66.8518 22.8017 66.6549 22.0087 66.4043 21.2332C66.1429 20.4214 66.6142 19.8716 67.0827 19.3645C67.4251 18.9948 67.6866 18.4455 68.3288 18.4596C69.0224 17.6156 70.0848 17.7152 70.991 17.4065C71.5783 17.2823 72.1854 17.2861 72.7707 17.4176C73.2437 17.457 73.681 17.915 74.134 18.1863L74.042 18.3553Z" fill="#1E2A95"/>
<path d="M58.4052 34.3574L60.1017 33.3804C60.4692 33.4576 60.831 33.5601 61.1843 33.6871C61.3185 33.7433 61.4056 33.9821 61.4472 34.1535C61.4636 34.2186 61.2925 34.3274 61.2043 34.4201C61.4469 34.6364 61.8044 34.8203 61.5828 35.2738C61.532 35.3588 61.5149 35.4595 61.5346 35.5563C61.6205 35.685 61.6735 35.8327 61.6891 35.9866C61.7047 36.1406 61.6824 36.296 61.6242 36.4395C61.3856 36.9819 61.0285 37.4645 60.5791 37.852C59.6388 38.5522 58.5437 39.0168 57.3862 39.2065C56.6749 39.2998 55.9563 39.3245 55.2405 39.2802C55.0567 39.2673 54.8805 39.2029 54.732 39.0944C54.5835 38.986 54.4689 38.8379 54.4012 38.6673C54.1618 38.0119 53.8861 37.3668 53.6693 36.7034C53.59 36.4637 53.5876 36.2052 53.6623 35.9637C53.8519 35.289 54.2705 34.7003 54.8467 34.2984C55.4229 33.8965 56.1208 33.7062 56.8212 33.7601C57.0673 33.7182 57.3189 33.7209 57.5638 33.7681C57.865 33.9336 58.147 34.1314 58.405 34.3579" fill="#1E2A95"/>
<path d="M22.4549 27.3661L23.0732 27.4066C22.2966 27.1997 22.2272 26.3021 21.6152 25.9482C21.5664 25.9154 21.5255 25.8723 21.4953 25.8219C21.4652 25.7715 21.4466 25.7151 21.4408 25.6566C21.4351 25.5982 21.4423 25.5392 21.462 25.4838C21.4818 25.4285 21.5135 25.3781 21.555 25.3363C21.8318 25.1579 21.7195 24.9564 21.6684 24.8003C21.601 24.6243 21.5914 24.4314 21.6411 24.2494C21.6908 24.0674 21.7972 23.9058 21.9448 23.7877C22.8344 22.9111 23.6835 21.9882 24.965 21.673C25.5651 21.0419 26.4367 21.0428 27.1782 20.7505C27.5837 20.6475 28.0005 20.5959 28.4188 20.597C28.7419 20.974 28.5305 21.3398 28.1635 21.7529C28.3586 21.7958 28.56 21.803 28.7579 21.7741C28.9686 21.6905 29.0004 21.8484 29.0117 21.9305C29.0243 22.3084 29.1092 22.6803 29.2617 23.0262C29.3092 23.1099 29.2326 23.2938 29.1638 23.4029C29.0428 23.5976 28.8581 23.7425 28.9864 24.0284C29.0222 24.1094 28.8559 24.298 28.7589 24.4178C27.9981 25.4955 26.9141 26.3052 25.6632 26.7302C25.4541 26.8196 25.2559 26.9328 25.0729 27.0677C24.5305 27.4072 23.895 27.3287 23.3475 27.5571C23.1974 27.6206 23.0313 27.6364 22.872 27.6023C22.7127 27.5683 22.568 27.486 22.4575 27.3668" fill="#1E2A95"/>
<path d="M52.1003 98.5645C52.2735 98.6381 52.447 98.7106 52.6377 98.7932C52.5683 98.8505 52.5297 98.9074 52.4854 98.9139C51.8112 99.0421 51.1275 99.1134 50.4415 99.1271C50.0051 99.1098 49.58 99.1224 49.3658 98.6394C49.2205 98.3109 48.5191 98.4182 48.7186 97.819C48.3337 97.4089 48.504 96.9617 48.6544 96.5302C48.3759 96.3735 48.1083 96.1982 47.8535 96.0055C47.5911 95.7791 47.6305 95.2896 47.9088 94.8276C47.9724 94.7219 48.1133 94.6412 48.1324 94.5344C48.2801 93.7053 48.2737 93.7052 49.0066 93.5348C49.3668 93.4303 49.7327 93.346 50.1024 93.2825C50.3116 93.2645 50.5146 93.2017 50.6975 93.0986C50.8805 92.9954 51.0391 92.8543 51.1625 92.6847C51.3636 92.4265 51.6274 92.2237 51.929 92.0955C52.2305 91.9672 52.5598 91.9179 52.8856 91.9521C53.1852 91.9934 53.4674 92.1162 53.7012 92.3071C53.9351 92.4979 54.1116 92.7494 54.2112 93.0339L52.8579 93.5913C53.3297 93.717 53.6485 93.7965 53.9646 93.8861C54.2806 93.9756 54.2051 93.9937 54.2952 94.5511C54.3595 94.9501 54.0258 95.4134 54.4651 95.7498L54.221 96.814C54.0716 97.4695 53.8454 98.026 53.0411 98.1354C52.7085 98.2331 52.3917 98.3778 52.1002 98.565" fill="#1E2A95"/>
<path d="M73.183 1.40217C73.3107 1.1257 73.5259 0.89855 73.7955 0.755671C74.0652 0.612791 74.3743 0.562099 74.6752 0.611394C75.3267 0.621043 75.9747 0.704718 76.6069 0.860798C77.4333 1.14801 78.2803 1.3726 79.1408 1.53264C79.5566 1.61112 79.7881 1.95253 80.1711 2.04812C80.2717 2.07494 80.4253 2.26162 80.4043 2.32542C80.2402 2.81965 80.7206 3.20209 80.5817 3.72886C80.4893 4.07706 80.723 4.51049 80.8223 4.95601C80.3325 5.23812 80.5884 6.18476 79.6535 6.26923C79.1108 5.9057 78.4481 6.27464 77.7891 6.28413C77.6971 6.28543 77.5965 6.35439 77.5157 6.33394C76.5489 6.08498 75.5851 5.82498 74.5369 5.54573L74.99 5.24791C74.75 5.23777 74.5759 5.18332 74.4988 5.24509C74.4217 5.30686 74.4369 5.50242 74.3663 5.6084C74.3344 5.6564 74.1868 5.64774 74.0988 5.6302C74.0582 5.62262 73.994 5.51297 74.0089 5.4836C74.1188 5.26005 74.2459 5.04485 74.378 4.80729L73.4311 4.02084L73.6322 3.44932C73.2766 3.65205 73.262 3.30605 73.121 3.14527C72.9729 2.99058 72.8171 2.8435 72.6541 2.70458C72.8859 2.10949 73.3435 1.98665 73.9122 1.96387L73.1823 1.40468" fill="#1E2A95"/>
<path d="M8.97632 61.0053C9.12582 60.5072 9.39186 60.065 8.89752 59.6724C9.55197 59.4057 9.95039 59.4602 10.2672 59.9932C10.5369 60.3334 10.771 60.7004 10.9656 61.0883C11.1057 61.4725 11.5704 61.7232 11.8154 62.0843C11.9753 62.3908 12.0988 62.7148 12.1832 63.0499L11.7791 63.2881L11.5769 62.7443L11.4462 62.7632L11.3687 63.4859C11.2502 63.5253 10.9737 63.5345 10.8432 63.6767C10.0377 64.451 9.04918 65.01 7.96963 65.3015C7.60509 65.3799 7.23575 65.4339 6.86408 65.4631C5.96105 65.6437 5.78627 65.7058 5.09395 65.3933C4.55086 65.2104 4.07899 64.8628 3.74426 64.3991C3.62762 64.1748 3.43975 63.9954 3.20994 63.8888C2.67185 63.7224 2.66524 63.4011 2.81062 62.9703C2.85105 62.8469 2.87129 62.7179 2.87057 62.5882C2.87064 61.7685 2.91354 61.6955 3.60363 61.4705C4.63151 61.2038 5.68865 61.0666 6.7503 61.062C7.49615 61.0122 8.24686 61.0223 8.97655 61.0064" fill="#1E2A95"/>
<path d="M23.0246 51.5049C23.4426 51.0221 23.9256 50.5992 24.4599 50.2483C25.513 49.6485 26.5291 48.9744 27.6204 48.4553C28.7215 47.8419 29.9057 47.3908 31.1361 47.1161C31.5547 47.2814 30.9441 47.7199 31.4508 47.8662C31.5954 47.9079 31.6399 48.3005 31.7245 48.5344C31.9346 49.1147 31.9183 49.4028 31.4419 49.6577C31.0231 49.8985 30.6943 50.2688 30.5054 50.7123C30.1626 51.3829 29.483 51.7273 28.9819 52.2455C28.4099 52.7442 27.7758 53.1672 27.0953 53.5041C26.7829 53.7404 26.4562 53.9574 26.1171 54.1539C25.7612 54.3271 25.3716 54.4201 24.9759 54.4263C24.8392 54.3951 24.7101 54.3371 24.5962 54.2556C24.4823 54.1741 24.3858 54.0708 24.3125 53.9517C24.1287 53.6833 23.8101 53.4952 23.7911 53.1062C23.7806 52.8813 23.5407 52.8491 23.3605 52.7576C23.1537 52.653 22.9031 52.5206 23.2812 52.2143C23.545 52.0001 23.3327 51.7037 23.0261 51.5011" fill="#1E2A95"/>
<path d="M18.1314 92.1727C18.8891 91.1854 19.8677 90.9347 20.8258 90.6816C21.667 90.4549 22.5231 90.2875 23.3877 90.1809C24.2505 90.0773 25.1328 89.7353 26.0475 90.2366C25.3674 90.8083 24.446 90.4999 23.6372 91.0068C24.6597 91.1469 25.5665 90.8382 26.6785 90.8602L26.1537 91.4061C26.3184 91.4812 26.4891 91.5621 26.6568 91.6402L26.5832 92.6123C26.4133 92.6644 26.1663 92.7261 25.9294 92.8146C25.0062 93.1603 25.0097 93.1612 24.3822 94.0697C24.3072 94.1686 24.2217 94.2591 24.1271 94.3395C23.4695 95.0218 22.6337 95.5071 21.7143 95.7405C21.2774 95.8382 20.8258 95.8501 20.3846 95.7757C20.2909 95.7647 20.196 95.7848 20.1147 95.8328C20.0797 95.8566 20.039 95.8709 19.9968 95.8744C19.9546 95.8778 19.9122 95.8702 19.8739 95.8523C19.8356 95.8345 19.8026 95.8069 19.7782 95.7725C19.7538 95.738 19.7388 95.6978 19.7348 95.6558C19.6053 95.1523 19.1698 94.8335 18.9833 94.3676C18.941 94.2805 18.8804 94.2035 18.8055 94.1419C18.7307 94.0803 18.6434 94.0355 18.5496 94.0105C18.401 93.8956 18.2886 93.7406 18.2257 93.564C18.1627 93.3873 18.1518 93.1963 18.1942 93.0134C18.2734 92.8656 18.5907 92.841 18.4347 92.5698C18.3427 92.43 18.2417 92.2963 18.1322 92.1697" fill="#1E2A95"/>
<path d="M49.3757 66.7493L49.4353 66.1284L48.9226 66.2478L47.8671 64.4236C47.8997 64.336 47.9241 64.2457 47.94 64.1537C48.0333 63.0082 48.8495 62.4458 49.7627 62.0394C50.4825 61.7164 51.2409 61.4873 52.0192 61.3578C52.5211 61.2206 53.056 61.2738 53.5202 61.507L51.2431 61.8895L51.2509 62.0604C51.38 62.0813 51.5108 62.0892 51.6415 62.0838C52.1661 62.0122 52.6862 61.9098 53.2118 61.8503C53.4443 61.824 53.7538 61.7166 53.7298 62.1932C53.7225 62.3402 54.0009 62.5015 54.1499 62.6547C54.2808 62.7891 54.4146 62.921 54.5205 63.0282C54.4394 63.4944 54.0392 63.3927 53.7982 63.6323L54.6899 63.6354L54.9708 64.283C54.8154 64.3734 54.5763 64.4839 54.8953 64.7308C55.2394 64.9983 55.3255 65.281 54.9652 65.6029C54.9324 65.6324 54.8944 65.7013 54.9077 65.7301C55.1603 66.2847 54.7128 66.4522 54.3703 66.5863C53.5348 66.8423 52.669 66.986 51.7958 67.0137C51.5926 67.0354 51.1193 67.0745 51.2379 66.551C51.2458 66.5219 51.089 66.4576 51.0072 66.4068C50.9519 66.5077 50.8237 66.651 50.8539 66.7031C50.8896 66.7431 50.9106 66.7941 50.9134 66.8476C50.9163 66.9011 50.9009 66.954 50.8697 66.9977C50.8385 67.0414 50.7933 67.0733 50.7417 67.0881C50.69 67.103 50.6348 67.1 50.5851 67.0795C50.2212 66.7954 49.7146 67.094 49.3734 66.7476" fill="#1E2A95"/>
<path d="M71.1714 68.7855L70.6606 69.0796C70.9283 69.1848 71.148 69.2719 71.3892 69.3673C71.3649 69.791 71.3599 70.2312 71.3081 70.667C71.2771 70.9337 71.2068 71.1944 71.0993 71.4406C71.0171 71.6253 70.6977 71.3783 70.5694 71.7297C70.4861 71.9565 70.0425 72.0298 69.7222 72.1214C69.4621 72.1962 69.0324 71.8661 68.9235 72.3835C68.6022 72.3165 68.2805 72.2498 67.9584 72.1834C67.9267 72.1779 67.8948 72.1741 67.8628 72.1719L66.0221 73.232C65.9901 73.3933 65.9457 73.5519 65.8892 73.7064C65.7847 73.9377 65.4746 74.1337 65.3591 73.9701C65.1024 73.6065 64.7403 74.0392 64.5229 73.7716C64.4529 73.2083 64.5534 72.6367 64.8116 72.1303C64.4377 72.1952 64.1119 72.2515 63.7019 72.3219C63.6342 72.199 63.4396 72.0089 63.4744 71.8821C63.6971 71.081 63.7209 70.1833 64.4843 69.6204C64.6746 69.4469 64.8831 69.2946 65.1063 69.166C65.6307 68.9373 66.1747 68.7515 66.7145 68.5598C66.9806 68.465 67.2567 68.3971 67.5262 68.3097C67.9399 68.1752 68.4326 68.3796 68.7999 68.0257C69.1999 68.1322 69.6224 68.1209 70.0166 67.9933C70.145 67.9664 70.2775 67.9657 70.4061 67.9913C70.5347 68.0169 70.6566 68.0682 70.7646 68.1423C70.8726 68.2163 70.9644 68.3114 71.0343 68.4219C71.1043 68.5324 71.1509 68.6559 71.1715 68.785" fill="#1E2A95"/>
<path d="M93.7334 42.6343L93.4911 43.5322C93.3974 43.8793 93.3538 44.2704 92.8288 44.2161C92.7862 44.2255 92.7467 44.2456 92.714 44.2746C92.6814 44.3035 92.6567 44.3404 92.6424 44.3815C92.5928 44.8092 92.1742 44.8117 91.9348 45.0178C91.286 45.5757 90.4924 45.4718 89.7378 45.4552C89.3091 45.4453 89.0524 45.2377 88.9012 44.7054C88.7312 44.1085 88.7109 43.4126 88.2475 42.9101C88.3256 42.5965 87.9051 42.2108 88.3952 41.951C88.4704 41.892 88.5213 41.8076 88.5385 41.7138C88.8462 40.4796 89.7607 39.9 90.8773 39.5081C91.4167 39.2417 92.0035 39.0841 92.6038 39.0443C92.8601 39.0578 93.1151 39.0898 93.3667 39.14C93.4492 39.156 93.5761 39.2409 93.5811 39.3046C93.6253 39.8439 93.9505 40.3171 93.994 40.8411C94.0458 41.4506 93.9566 42.064 93.7334 42.6343Z" fill="#1E2A95"/>
<path d="M46.7694 28.4222L45.9367 28.6844C46.2645 28.8206 46.376 28.8692 46.4892 28.9133C46.8647 29.0585 46.8644 29.0574 46.7826 29.5583C46.7727 29.6213 46.7408 29.7133 46.7677 29.7436C46.8995 29.8745 46.9812 30.0472 46.9987 30.232C47.0162 30.4167 46.9684 30.6019 46.8635 30.7555C46.6526 31.1378 46.3679 31.4749 46.0259 31.7472C44.6746 32.6066 43.1243 33.1044 41.525 33.1925C41.2338 33.17 40.9486 33.0988 40.6813 32.9818L40.8234 32.6211C40.4646 32.5519 40.2283 32.4045 40.256 31.9741C40.2491 31.8937 40.2226 31.8163 40.1789 31.7484C40.1352 31.6805 40.0756 31.6243 40.0052 31.5846C39.5947 31.4312 39.9165 31.0539 39.7378 30.8449C40.1867 30.7063 39.8328 30.1711 40.1812 29.9713C40.5138 29.7819 40.8122 29.4812 41.1668 29.3922C41.9456 29.1758 42.7453 29.0435 43.5522 28.9978C43.7277 29.0054 43.9031 28.9778 44.0678 28.9165C44.2326 28.8553 44.3833 28.7617 44.5112 28.6413C44.8913 28.2422 45.3881 27.973 45.9304 27.8723C46.4009 27.7916 46.3992 27.782 46.7694 28.4222Z" fill="#1E2A95"/>
<path d="M53.2245 49.6884C53.3451 49.7069 53.4628 49.7412 53.5744 49.7903C53.6497 49.8329 53.6673 49.9855 53.7419 50.0188C53.8165 50.0521 53.9459 49.9822 54.0399 50.0073C54.1219 50.0292 54.1917 50.1703 54.2581 50.1638C54.3867 50.1447 54.5083 50.093 54.6114 50.0138C54.6824 49.9329 54.739 49.8405 54.7789 49.7406C54.5512 49.7451 54.3676 49.7483 54.1826 49.7523C54.4863 49.4621 54.7574 49.123 55.2181 49.428L54.8997 49.8304C55.4919 50.0478 55.329 49.4005 55.6758 49.2601C55.5524 49.5676 55.7146 49.8377 55.5861 50.146C55.5259 50.2913 55.79 50.5655 55.9445 50.8502L54.7673 51.6959L55.3769 51.9702L55.268 53.4748C54.8819 53.6408 54.5392 53.756 54.2253 53.9262C53.9535 54.0742 53.7334 54.3183 53.4581 54.4574C52.6766 54.7931 51.8296 54.9494 50.98 54.9147C50.6781 54.9224 50.2114 54.8954 50.2803 54.3427C49.7672 54.206 49.8352 53.6482 49.5759 53.3184C49.4249 53.0913 49.3568 52.8192 49.3829 52.5477C49.4091 52.2762 49.5279 52.0217 49.7196 51.8268C50.3245 51.1309 51.0954 50.5978 51.9609 50.2767C52.3692 50.0865 52.768 49.8572 53.224 49.6883" fill="#1E2A95"/>
<path d="M36.238 62.336L35.9432 62.7749C36.7549 63.0288 37.2136 62.2442 38.0012 62.3276C37.9151 62.4589 37.8145 62.5802 37.7013 62.6893C37.4983 62.8234 37.2886 62.947 37.0728 63.0597C37.3744 63.1186 37.6873 63.0685 37.9556 62.9183C38.4395 63.5991 38.4395 63.5991 38.2771 64.2013C37.7733 64.38 37.2976 64.6297 36.8646 64.9427C36.4494 65.336 35.9205 65.3436 35.4747 65.5944C35.0207 65.8135 34.5364 65.9637 34.038 66.0399C33.7632 66.1133 33.473 66.1045 33.2035 66.0145C32.9031 65.8807 32.4777 65.6243 32.4484 65.3793C32.3998 64.9758 32.1196 64.9888 31.9282 64.8147C31.7808 64.7066 31.6622 64.5642 31.5826 64.3999C31.5031 64.2355 31.4651 64.0543 31.4718 63.8718C31.4962 63.6314 31.3941 63.3105 31.5157 63.1617C31.8036 62.7839 32.1616 62.4648 32.5702 62.2216C33.3448 61.8193 34.1446 61.4671 34.9645 61.1674C35.1683 61.092 35.4532 61.2292 35.8017 61.2828L35.407 61.5703C35.9243 61.6318 35.9778 62.1112 36.2385 62.3361" fill="#1E2A95"/>
<path d="M1.78403 47.6629L2.20961 47.2208C1.47583 46.7908 1.44921 46.7257 1.90944 46.1551C1.465 46.2196 1.10961 46.2717 0.722946 46.3278L0.560425 45.7312L1.81566 45.01C1.39664 44.6725 1.02081 45.1941 0.574455 45.0138C0.642405 44.4743 1.07841 44.2673 1.48571 44.0548C1.70792 43.9386 1.98048 43.9177 2.19778 43.7938C3.16558 43.2526 4.17234 42.7838 5.20971 42.3914C5.30216 42.3498 5.39079 42.3002 5.47457 42.2431C5.68407 42.0688 5.92679 41.9385 6.18804 41.8603C6.4493 41.782 6.72367 41.7573 6.99457 41.7877C7.1249 42.2279 6.71245 42.3336 6.42166 42.532C6.78512 42.9095 7.00637 42.3194 7.319 42.4317C7.69911 42.5577 7.00911 43.1585 7.69015 43.1404L7.40585 44.1939C7.11184 44.4382 6.81835 44.6886 6.51856 44.9303C6.18015 45.1243 5.86186 45.3514 5.56839 45.608C5.30033 45.92 4.8259 46.0496 4.46324 46.2886C4.22627 46.4454 3.94157 46.5093 3.77153 46.8157C3.64864 47.0373 3.25321 47.068 3.20279 47.4407C3.18879 47.5445 2.95832 47.6773 2.81536 47.6935C2.47124 47.7066 2.12667 47.6964 1.78403 47.6629Z" fill="#1E2A95"/>
<path d="M68.9212 58.42C68.8087 58.7488 68.9194 59.0262 68.6158 59.2739L68.5861 58.8465C68.1637 58.8571 67.7407 58.8816 67.3185 58.8697C67.2114 58.8669 67.0245 58.7602 67.0135 58.6809C66.9532 58.2491 66.5636 58.0162 66.4137 57.6504C66.361 57.4704 66.3551 57.2799 66.3965 57.0967C66.4108 57.0059 66.5721 56.9376 66.5869 56.8468C66.5815 56.7212 66.553 56.5977 66.5029 56.4824C67.1402 56.4731 67.1615 56.4879 67.5639 55.8901C67.805 55.5322 68.2149 55.5537 68.5337 55.3418L68.178 55.0432C68.3092 54.9706 68.4477 54.8289 68.5408 54.8537C69.7026 55.1686 69.729 55.1746 70.5686 54.8309C70.1235 54.3923 69.6647 54.8832 69.1422 54.7773C69.2025 54.6417 69.2425 54.4276 69.3106 54.4172C69.9837 54.3309 70.6599 54.105 71.2809 54.6872C71.4743 54.8678 71.5866 54.9214 71.5185 55.1936C71.4911 55.3785 71.5123 55.5672 71.5799 55.7413C71.7205 56.1918 71.8863 56.6345 72.0567 57.1219L71.7729 57.2205C71.4577 57.4851 71.9785 57.9873 71.3274 57.872C71.1421 57.8393 71.4658 58.3584 70.9909 58.2319C70.8078 58.1831 70.5336 58.4699 70.3184 58.5938L69.9069 58.2943L69.7674 58.4115L70.2187 58.8275C69.8755 58.9222 69.6766 58.9778 69.416 59.0504L68.9212 58.42Z" fill="#1E2A95"/>
<path d="M48.5482 17.9357L49.4693 17.5396L49.0275 17.1567C49.2977 16.8605 49.6418 16.641 50.0247 16.5205C50.8226 16.2254 51.6611 16.0557 52.4625 15.754C52.7155 15.6766 52.9821 15.654 53.2444 15.6876C53.5067 15.7212 53.7586 15.8103 53.9834 15.9489C53.9538 16.4164 53.4051 16.3734 53.173 16.708L54.1233 16.9611L53.8676 19.0258C53.1727 19.4857 52.381 19.7798 51.5542 19.8852C51.0932 19.9469 50.687 20.221 50.1814 20.2025C49.9822 20.1952 49.7949 19.8882 49.5747 20.1484C49.5038 20.1014 49.4354 20.0507 49.3698 19.9965C49.6739 19.5613 49.0169 19.212 49.2547 18.7784C49.2704 18.7504 49.1129 18.6207 49.0267 18.5483C48.9241 18.4793 48.8257 18.4042 48.732 18.3235C48.6559 18.2026 48.594 18.0733 48.5475 17.9383" fill="#1E2A95"/>
<path d="M30.9282 36.3226L29.9308 36.4699C30.1504 36.6273 30.2512 36.6993 30.3577 36.7761C30.3193 36.8127 30.2815 36.8789 30.2437 36.8791C29.892 36.8756 29.5453 36.9631 29.2374 37.1332C29.0376 37.2296 28.8255 37.2981 28.6071 37.3369C28.4228 37.3666 28.2486 37.4412 28.1 37.5539C27.9514 37.6666 27.8328 37.814 27.7548 37.9832L28.031 38.2245L27.4845 38.6511C27.3628 38.6187 27.3069 38.6178 27.3009 38.6022C27.2337 38.3956 27.1738 38.186 27.1171 37.9945C26.8369 37.9737 26.5845 37.95 26.2049 37.9177L26.7236 37.3245L26.0368 36.7205L26.1101 36.235L25.6764 36.1195C25.6151 36.0077 25.5774 35.8845 25.5657 35.7576C25.5539 35.6306 25.5684 35.5025 25.6081 35.3812C25.6479 35.2599 25.7121 35.148 25.7968 35.0523C25.8815 34.9566 25.985 34.8791 26.1008 34.8247C26.6481 34.4752 27.1453 34.0495 27.7757 33.7114L28.0105 34.416C28.4408 34.4091 28.8649 34.3113 29.2548 34.1291C29.6921 33.98 30.1432 33.875 30.6013 33.8155C30.8765 34.1943 30.5551 34.3501 30.3743 34.5827C30.4719 34.6205 30.5604 34.6925 30.6416 34.6813C31.1345 34.6029 31.3295 34.7457 31.2371 35.1642C31.1502 35.5579 31.0306 35.9433 30.9282 36.3226Z" fill="#1E2A95"/>
<path d="M34.523 7.60648L33.7114 7.88615C33.8346 7.96521 33.9062 8.0456 33.9822 8.05349C34.3523 8.08108 34.7242 8.0898 35.1464 8.10387L34.9937 8.66984L34.4579 8.77074L35.2554 8.98317C35.2515 9.08322 35.2608 9.1833 35.2829 9.28092C35.3549 9.46147 35.5463 9.76952 35.5196 9.78875C35.2485 9.98169 35.2896 10.3191 35.1325 10.5354C35.0359 10.7134 34.8839 10.8555 34.6995 10.9403C34.5151 11.0251 34.3082 11.048 34.1099 11.0057C33.973 10.9692 33.8703 10.7466 33.7492 10.7434C33.6497 10.7406 33.5616 10.985 33.4358 11.0316C33.3712 11.0476 33.3037 11.0473 33.2394 11.0307C33.175 11.0141 33.1158 10.9818 33.0672 10.9366C32.9337 10.6321 32.6569 10.6165 32.4078 10.5684C32.2757 10.5575 32.1531 10.4956 32.0662 10.396C31.9793 10.2963 31.9349 10.1666 31.9425 10.0346C31.9379 9.72364 31.7706 9.60645 31.5097 9.47189C31.327 9.39464 31.1815 9.2498 31.1037 9.06776C31.026 8.88572 31.022 8.6806 31.0927 8.49543C31.1451 8.34038 31.1777 8.17938 31.1896 8.01625C31.209 7.60675 31.4342 7.14399 31.7507 7.1003C32.5247 6.98972 33.2959 6.73801 34.092 7.03508C34.4021 7.15103 34.4411 7.36632 34.523 7.60648Z" fill="#1E2A95"/>
<path d="M43.6985 43.4908L43.2448 44.2329C43.3625 44.3537 43.5171 44.4321 43.6844 44.4559C43.8517 44.4798 44.0223 44.4477 44.1696 44.3648C44.3884 44.7887 43.8582 44.8911 43.8187 45.2392C43.9815 45.3154 44.151 45.3966 44.3165 45.4767C44.527 45.8134 43.9447 45.9116 44.1037 46.2932C44.2628 46.6749 43.7041 46.6213 43.5679 46.8802C43.4563 47.0293 43.302 47.1412 43.1254 47.2011C42.577 47.447 41.9259 47.3343 41.4006 47.7224C41.2752 47.8154 40.9697 47.6668 40.6744 47.6161C41.0903 47.1419 40.231 46.8774 40.5783 46.4075C40.3594 46.176 39.8428 46.2019 39.946 45.5938L40.5392 45.4297L40.1106 45.0639C40.1209 44.7117 40.4487 44.6361 40.6602 44.5758C41.3473 44.3846 41.9744 44.022 42.4823 43.5222C42.5576 43.4363 42.65 43.3669 42.7536 43.3184C42.8571 43.2698 42.9696 43.2432 43.084 43.2403C43.1983 43.2373 43.312 43.2581 43.4177 43.3012C43.5235 43.3443 43.6192 43.4089 43.6985 43.4908Z" fill="#1E2A95"/>
<path d="M70.9267 45.6919L70.2888 44.1976L70.5095 43.3799C71.0572 43.1844 71.6923 43.2428 72.2003 42.8748C72.8553 42.9971 73.3743 42.6601 73.9258 42.3967C74.1024 42.3098 74.3669 42.4067 74.646 42.4272C74.6474 42.5782 74.6067 42.7168 74.6559 42.8063C75.1546 43.7414 74.5702 44.3428 73.9303 44.8079C73.3656 45.2007 72.7436 45.5041 72.0862 45.7072C71.7014 45.7688 71.309 45.7636 70.9262 45.6918" fill="#1E2A95"/>
</svg>
