<svg width="183" height="158" viewBox="0 0 183 158" fill="none" xmlns="http://www.w3.org/2000/svg">
<g clip-path="url(#clip0)">
<path d="M0.569336 0.813232H182.569V157.813H0.569336V0.813232Z" fill="#F7DF1E"/>
<path d="M48.4241 132.014L62.3513 124.743C65.0387 128.852 67.4829 132.33 73.346 132.33C78.9659 132.33 82.5099 130.433 82.5099 123.057V72.8917H99.6129V123.265C99.6129 138.546 89.229 145.502 74.0789 145.502C60.3969 145.502 52.4551 139.39 48.4233 132.013L48.4241 132.014ZM108.903 130.433L122.829 123.478C126.495 128.642 131.26 132.436 139.688 132.436C146.776 132.436 151.295 129.379 151.295 125.163C151.295 120.105 146.652 118.313 138.833 115.363L134.558 113.781C122.219 109.251 114.034 103.559 114.034 91.5453C114.034 80.4792 123.807 72.0479 139.078 72.0479C149.952 72.0479 157.77 75.3154 163.39 83.8517L150.072 91.2294C147.14 86.6979 143.965 84.9065 139.078 84.9065C134.069 84.9065 130.892 87.6466 130.892 91.2294C130.892 95.6555 134.069 97.4481 141.398 100.188L145.674 101.769C160.213 107.144 168.398 112.624 168.398 124.953C168.398 138.233 156.303 145.504 140.055 145.504C124.173 145.504 113.911 138.97 108.902 130.433" fill="black"/>
</g>
<defs>
<clipPath id="clip0">
<rect width="182" height="157" fill="white" transform="translate(0.569336 0.813232)"/>
</clipPath>
</defs>
</svg>
