<?xml version="1.0" encoding="utf-8"?>
<!-- Generated by IcoMoon.io -->
<!DOCTYPE svg PUBLIC "-//W3C//DTD SVG 1.1//EN" "http://www.w3.org/Graphics/SVG/1.1/DTD/svg11.dtd">
<svg version="1.1" xmlns="http://www.w3.org/2000/svg" xmlns:xlink="http://www.w3.org/1999/xlink" width="48" height="48" viewBox="0 0 48 48">
<g id="icomoon-ignore">
	<line stroke-width="1" x1="" y1="" x2="" y2="" stroke="#449FDB" opacity=""></line>
</g>
	<path d="M22.722 35.938c-19.080 0-21.876-14.39-22.136-16.034-0.128-0.822 0.118-1.664 0.668-2.31 0.59-0.688 1.444-1.082 2.344-1.082 1.256 0 2.394 0.764 3.136 2.102 1.768 2.082 6.772 6.72 16.23 6.72 6.198 0 11.492-1.732 15.732-5.146 0.954-0.768 0.958-1.396 0.97-2.656 0.014-1.26 0.030-2.83 1.072-4.918 0.17-0.338 0.516-0.55 0.894-0.55h4.812c0.436 0 0.822 0.284 0.954 0.7s-0.024 0.872-0.378 1.122c-0.87 0.606-1.866 1.548-2.114 2.1 1.28 3.898 0.606 8.114-1.868 11.614-2.194 3.114-7.758 8.338-20.316 8.338zM3.598 18.514c-0.312 0-0.622 0.142-0.824 0.38-0.126 0.146-0.262 0.384-0.214 0.702 0.376 2.394 3.106 14.342 20.16 14.342 8.512 0 15.324-2.732 18.686-7.494 2.156-3.052 2.708-6.73 1.514-10.092-0.052-0.152-0.068-0.316-0.046-0.476 0.090-0.626 0.476-1.254 0.95-1.81h-1.544c-0.586 1.406-0.598 2.506-0.61 3.492-0.014 1.39-0.028 2.834-1.716 4.194-4.604 3.708-10.32 5.588-16.986 5.588-10.416 0-15.936-5.254-17.826-7.512-0.044-0.056-0.088-0.116-0.12-0.174-0.39-0.736-0.896-1.14-1.424-1.14z" fill="#000000"></path>
	<path d="M22.964 31.338c-7.982 0-13.076-3.034-15.944-5.58-0.414-0.368-0.452-1-0.084-1.412 0.368-0.416 1-0.452 1.412-0.084 2.608 2.316 7.262 5.076 14.616 5.076 6.198 0 11.492-1.732 15.732-5.146 0.43-0.348 1.056-0.28 1.406 0.152 0.346 0.43 0.278 1.060-0.152 1.406-4.602 3.708-10.32 5.588-16.986 5.588z" fill="#000000"></path>
	<path d="M2.756 24.7c-0.098 0-0.196-0.014-0.292-0.042-0.528-0.162-0.824-0.722-0.66-1.25 0.424-1.376 1.932-3.408 3.992-4.626 0.474-0.28 1.088-0.124 1.37 0.354 0.284 0.472 0.126 1.088-0.352 1.37-1.526 0.904-2.794 2.518-3.098 3.496-0.136 0.424-0.53 0.698-0.96 0.698z" fill="#000000"></path>
	<path d="M44.534 21.4c-0.37 0-0.72-0.204-0.896-0.552-0.064-0.126-0.18-0.292-0.498-0.392-0.724-0.228-1.888 0.050-2.416 0.332-0.49 0.26-1.092 0.078-1.354-0.408-0.26-0.488-0.078-1.094 0.41-1.356 0.818-0.436 2.546-0.926 3.962-0.472 0.76 0.24 1.342 0.724 1.68 1.402 0.248 0.494 0.046 1.096-0.448 1.344-0.138 0.068-0.288 0.102-0.44 0.102z" fill="#000000"></path>
</svg>
