<?xml version="1.0" encoding="utf-8"?>
<!-- Generated by IcoMoon.io -->
<!DOCTYPE svg PUBLIC "-//W3C//DTD SVG 1.1//EN" "http://www.w3.org/Graphics/SVG/1.1/DTD/svg11.dtd">
<svg version="1.1" xmlns="http://www.w3.org/2000/svg" xmlns:xlink="http://www.w3.org/1999/xlink" width="48" height="48" viewBox="0 0 48 48">
<g id="icomoon-ignore">
	<line stroke-width="1" x1="" y1="" x2="" y2="" stroke="#449FDB" opacity=""></line>
</g>
	<path d="M20.002 43.468c-9.102 0-16.56-4.422-19.004-11.266-3.466-9.726 4.030-21.324 16.71-25.846 3.388-1.21 6.856-1.824 10.292-1.824 9.108 0 16.564 4.422 19.004 11.264 3.47 9.728-4.028 21.326-16.708 25.848-3.396 1.21-6.856 1.824-10.294 1.824zM27.998 6.53c-3.208 0-6.446 0.574-9.622 1.708-11.644 4.154-18.596 14.604-15.498 23.294 2.154 6.036 8.876 9.938 17.124 9.938 3.208 0 6.448-0.574 9.622-1.708 11.644-4.156 18.6-14.606 15.502-23.294-2.16-6.038-8.878-9.938-17.128-9.938z" fill="#000000"></path>
	<path d="M6.98 33.274c-0.408 0-0.794-0.254-0.942-0.664-3.042-8.536 3.518-18.704 14.624-22.664 0.524-0.188 1.094 0.084 1.282 0.606 0.186 0.52-0.090 1.092-0.61 1.278-10.066 3.588-16.082 12.612-13.41 20.11 0.188 0.522-0.086 1.092-0.606 1.28-0.112 0.036-0.226 0.054-0.338 0.054z" fill="#000000"></path>
	<path d="M34.376 12.394c0 0.552-0.448 1-1 1s-1-0.448-1-1c0-0.552 0.448-1 1-1s1 0.448 1 1z" fill="#000000"></path>
	<path d="M32.376 18.394c0 0.552-0.448 1-1 1s-1-0.448-1-1c0-0.552 0.448-1 1-1s1 0.448 1 1z" fill="#000000"></path>
	<path d="M40.376 16.394c0 0.552-0.448 1-1 1s-1-0.448-1-1c0-0.552 0.448-1 1-1s1 0.448 1 1z" fill="#000000"></path>
</svg>
