<?xml version="1.0" encoding="utf-8"?>
<!-- Generated by IcoMoon.io -->
<!DOCTYPE svg PUBLIC "-//W3C//DTD SVG 1.1//EN" "http://www.w3.org/Graphics/SVG/1.1/DTD/svg11.dtd">
<svg version="1.1" xmlns="http://www.w3.org/2000/svg" xmlns:xlink="http://www.w3.org/1999/xlink" width="48" height="48" viewBox="0 0 48 48">
<g id="icomoon-ignore">
	<line stroke-width="1" x1="" y1="" x2="" y2="" stroke="#449FDB" opacity=""></line>
</g>
	<path d="M24.4 48v0c-9.808 0-17.792-10.944-17.792-24.396 0.002-15.498 11.222-23.604 17.24-23.604 9.672 0 16.414 11.336 17.342 22.296 1.134 13.396-2.486 21.016-11.742 24.708-1.656 0.662-3.352 0.996-5.048 0.996zM23.85 2c-4.198 0-15.238 6.642-15.238 21.604 0 12.35 7.084 22.396 15.79 22.396 1.44 0 2.886-0.29 4.306-0.854 8.416-3.358 11.554-10.14 10.492-22.68-0.854-10.060-6.83-20.466-15.35-20.466z" fill="#000000"></path>
	<path d="M29.19 46.49c-14.376-13.506-10.888-19.35-7.2-25.538 2.864-4.796 5.82-9.758 0.96-19.504l1.79-0.892c5.348 10.726 1.958 16.408-1.032 21.422-3.548 5.952-6.352 10.652 6.848 23.056l-1.366 1.456z" fill="#000000"></path>
</svg>
