<?xml version="1.0" encoding="utf-8"?>
<!-- Generated by IcoMoon.io -->
<!DOCTYPE svg PUBLIC "-//W3C//DTD SVG 1.1//EN" "http://www.w3.org/Graphics/SVG/1.1/DTD/svg11.dtd">
<svg version="1.1" xmlns="http://www.w3.org/2000/svg" xmlns:xlink="http://www.w3.org/1999/xlink" width="48" height="48" viewBox="0 0 48 48">
<g id="icomoon-ignore">
	<line stroke-width="1" x1="" y1="" x2="" y2="" stroke="#449FDB" opacity=""></line>
</g>
	<path d="M32 48h-16c-0.51 0-0.938-0.382-0.994-0.89l-4-36c-0.034-0.282 0.058-0.566 0.248-0.778 0.192-0.212 0.46-0.334 0.746-0.334h24c0.286 0 0.554 0.122 0.746 0.334 0.19 0.212 0.282 0.496 0.248 0.778l-4 36c-0.056 0.508-0.484 0.89-0.994 0.89zM16.894 46h14.208l3.782-34h-21.766l3.776 34z" fill="#000000"></path>
	<path d="M38 12h-28c-0.55 0-1-0.448-1-1v-6c0-0.552 0.45-1 1-1h28c0.55 0 1 0.448 1 1v6c0 0.552-0.45 1-1 1zM11 10h26v-4h-26v4z" fill="#000000"></path>
	<path d="M34 6h-20c-0.55 0-1-0.448-1-1v-4c0-0.552 0.45-1 1-1h20c0.55 0 1 0.448 1 1v4c0 0.552-0.45 1-1 1zM15 4h18v-2h-18v2z" fill="#000000"></path>
	<path d="M24 33c-3.308 0-6-2.692-6-6s2.692-6 6-6 6 2.692 6 6-2.692 6-6 6zM24 23c-2.208 0-4 1.794-4 4 0 2.208 1.792 4 4 4s4-1.792 4-4c0-2.206-1.792-4-4-4z" fill="#000000"></path>
</svg>
