<?xml version="1.0" encoding="utf-8"?>
<!-- Generated by IcoMoon.io -->
<!DOCTYPE svg PUBLIC "-//W3C//DTD SVG 1.1//EN" "http://www.w3.org/Graphics/SVG/1.1/DTD/svg11.dtd">
<svg version="1.1" xmlns="http://www.w3.org/2000/svg" xmlns:xlink="http://www.w3.org/1999/xlink" width="48" height="48" viewBox="0 0 48 48">
<g id="icomoon-ignore">
	<line stroke-width="1" x1="" y1="" x2="" y2="" stroke="#449FDB" opacity=""></line>
</g>
	<path d="M17.48 28.39c-0.15 0-0.298-0.032-0.434-0.098-0.252-0.124-0.44-0.344-0.522-0.612-1.542-5.074-2.516-7.724-4.112-11.746-0.306-0.772-0.178-1.666 0.354-2.452 0.474-0.7 1.25-1.27 2.128-1.566 6.802-2.302 11.376-2.306 18.196-0.004 0.878 0.296 1.658 0.866 2.128 1.562 0.532 0.786 0.66 1.678 0.354 2.454-1.582 3.996-2.548 6.64-4.104 11.75-0.082 0.268-0.27 0.488-0.52 0.612-0.25 0.122-0.542 0.13-0.802 0.028-5.030-1.986-7.258-1.984-12.298 0.004-0.118 0.046-0.244 0.068-0.368 0.068zM23.994 12.228c-2.58 0-5.266 0.502-8.458 1.584-0.466 0.158-0.882 0.454-1.114 0.794-0.152 0.224-0.208 0.446-0.15 0.592 1.506 3.798 2.464 6.388 3.852 10.876 4.55-1.638 7.206-1.636 11.748-0.004 1.258-4.082 2.18-6.678 3.844-10.88 0.056-0.146 0-0.376-0.148-0.596-0.228-0.336-0.644-0.63-1.114-0.79-3.198-1.074-5.884-1.576-8.46-1.576z" fill="#000000"></path>
	<path d="M9.974 33.676c-0.002 0-0.002 0-0.004 0-0.284 0-0.554-0.126-0.744-0.336-2.462-2.778-4.092-4.292-6.98-6.5-0.66-0.51-0.964-1.344-0.836-2.292 0.112-0.814 0.53-1.644 1.178-2.338 3.372-3.606 6.004-5.464 10.436-7.37 0.25-0.106 0.53-0.108 0.78-0.004s0.446 0.304 0.544 0.556c1.824 4.616 2.664 7.024 4.090 11.712 0.152 0.5-0.106 1.030-0.59 1.22-3.198 1.262-4.664 2.292-7.13 5.026-0.192 0.204-0.462 0.326-0.744 0.326zM12.868 17.092c-3.626 1.656-5.872 3.326-8.82 6.478-0.358 0.384-0.604 0.848-0.658 1.242-0.032 0.236 0.016 0.396 0.074 0.438 2.706 2.066 4.35 3.554 6.522 5.94 2.062-2.166 3.642-3.266 6.272-4.38-1.166-3.79-1.94-6.010-3.39-9.718z" fill="#000000"></path>
	<path d="M4.854 37.812v0c-0.376 0-0.752-0.044-1.118-0.136-1.82-0.458-3.168-1.954-3.436-3.808-0.51-3.558 0.156-6.738 1.828-8.726 0.352-0.418 0.982-0.478 1.406-0.124 3.036 2.534 4.514 3.97 7.19 6.992 0.338 0.38 0.336 0.956-0.006 1.334-0.922 1.022-1.586 1.82-2.152 2.594-0.866 1.176-2.254 1.874-3.712 1.874zM3.090 27.262c-0.864 1.572-1.166 3.848-0.812 6.32 0.15 1.050 0.914 1.894 1.942 2.152 1.014 0.254 2.116-0.146 2.73-0.982 0.476-0.646 1.010-1.306 1.684-2.080-2.016-2.244-3.332-3.532-5.544-5.41z" fill="#000000"></path>
	<path d="M43.144 37.804c-1.458 0-2.844-0.704-3.708-1.876-0.568-0.776-1.232-1.574-2.154-2.594-0.342-0.376-0.344-0.952-0.004-1.334 2.68-3.028 4.16-4.464 7.188-6.992 0.422-0.356 1.050-0.298 1.406 0.126 1.672 1.984 2.34 5.164 1.828 8.722-0.266 1.856-1.616 3.352-3.436 3.808-0.368 0.094-0.744 0.14-1.12 0.14zM39.364 32.666c0.672 0.768 1.208 1.428 1.684 2.080 0.614 0.834 1.72 1.234 2.73 0.98 1.030-0.258 1.792-1.102 1.942-2.152 0.356-2.47 0.050-4.75-0.812-6.318-2.208 1.872-3.526 3.16-5.544 5.41z" fill="#000000"></path>
	<path d="M38.024 33.666c-0.282 0-0.55-0.12-0.742-0.33-2.46-2.724-3.928-3.758-7.132-5.020-0.486-0.192-0.742-0.72-0.59-1.22 1.436-4.722 2.276-7.132 4.082-11.716 0.1-0.252 0.294-0.452 0.544-0.556s0.53-0.102 0.78 0.004c4.436 1.9 7.070 3.756 10.44 7.354 0.638 0.682 1.068 1.534 1.178 2.338 0.128 0.954-0.174 1.79-0.836 2.292-2.856 2.184-4.484 3.708-6.968 6.512-0.196 0.218-0.488 0.372-0.756 0.342zM31.738 26.804c2.636 1.118 4.214 2.214 6.274 4.376 2.192-2.414 3.834-3.904 6.52-5.958 0.054-0.042 0.102-0.198 0.068-0.432-0.052-0.398-0.298-0.862-0.654-1.242-2.95-3.148-5.2-4.816-8.824-6.466-1.44 3.684-2.212 5.906-3.384 9.722z" fill="#000000"></path>
</svg>
