<?xml version="1.0" encoding="utf-8"?>
<!-- Generated by IcoMoon.io -->
<!DOCTYPE svg PUBLIC "-//W3C//DTD SVG 1.1//EN" "http://www.w3.org/Graphics/SVG/1.1/DTD/svg11.dtd">
<svg version="1.1" xmlns="http://www.w3.org/2000/svg" xmlns:xlink="http://www.w3.org/1999/xlink" width="48" height="48" viewBox="0 0 48 48">
<g id="icomoon-ignore">
	<line stroke-width="1" x1="" y1="" x2="" y2="" stroke="#449FDB" opacity=""></line>
</g>
	<path d="M40.982 27.526h-33.816c-1.982 0-3.478-1.328-3.478-3.090 0-1.556 0.928-2.878 2.208-3.334 0.45-8.8 8.016-15.578 17.594-15.578h0.584c9.728 0 17.414 6.832 17.884 15.706 1.376 0.394 2.354 1.608 2.354 3.080 0.002 1.804-1.462 3.216-3.33 3.216zM23.492 7.526c-8.756 0-15.616 6.33-15.616 14.408 0 0.55-0.45 1-1 1-0.71 0-1.188 0.776-1.188 1.502 0 0.708 0.762 1.090 1.478 1.090h33.816c0.772 0 1.332-0.51 1.332-1.214 0-0.796-0.67-1.212-1.332-1.212-0.552 0-1-0.45-1-1 0-8.17-6.988-14.57-15.908-14.57l-0.582-0.004z" fill="#000000"></path>
	<path d="M34.568 23.506c-0.552 0-1-0.45-1-1 0-4.5-1.718-8.068-4.598-9.544-0.492-0.252-0.688-0.854-0.436-1.346s0.856-0.684 1.348-0.434c3.558 1.824 5.686 6.054 5.686 11.324 0 0.552-0.446 1-1 1z" fill="#000000"></path>
	<path d="M23.782 7.138c-1.836 0-3.332-1.496-3.332-3.332s1.496-3.332 3.332-3.332 3.332 1.496 3.332 3.332-1.494 3.332-3.332 3.332zM23.782 2.474c-0.732 0-1.332 0.598-1.332 1.332s0.6 1.332 1.332 1.332c0.734 0 1.332-0.598 1.332-1.332s-0.596-1.332-1.332-1.332z" fill="#000000"></path>
	<path d="M36.222 47.526h-23.126c-0.456 0-0.852-0.306-0.966-0.746l-4.86-18.542c-0.138-0.534 0.18-1.082 0.714-1.22 0.534-0.132 1.082 0.18 1.22 0.712l4.662 17.792h21.582l4.664-17.966c0.138-0.534 0.688-0.864 1.218-0.714 0.536 0.136 0.856 0.684 0.716 1.216l-4.86 18.714c-0.112 0.444-0.51 0.754-0.964 0.754z" fill="#000000"></path>
	<path d="M17.564 40.526c-0.552 0-1-0.45-1-1v-6c0-0.552 0.448-1 1-1 0.55 0 1 0.448 1 1v6c0 0.55-0.448 1-1 1z" fill="#000000"></path>
	<path d="M23.564 40.526c-0.552 0-1-0.45-1-1v-6c0-0.552 0.448-1 1-1 0.55 0 1 0.448 1 1v6c0 0.55-0.448 1-1 1z" fill="#000000"></path>
	<path d="M29.564 40.526c-0.552 0-1-0.45-1-1v-6c0-0.552 0.448-1 1-1 0.55 0 1 0.448 1 1v6c0 0.55-0.448 1-1 1z" fill="#000000"></path>
</svg>
