<?xml version="1.0" encoding="utf-8"?>
<!-- Generated by IcoMoon.io -->
<!DOCTYPE svg PUBLIC "-//W3C//DTD SVG 1.1//EN" "http://www.w3.org/Graphics/SVG/1.1/DTD/svg11.dtd">
<svg version="1.1" xmlns="http://www.w3.org/2000/svg" xmlns:xlink="http://www.w3.org/1999/xlink" width="48" height="48" viewBox="0 0 48 48">
<g id="icomoon-ignore">
	<line stroke-width="1" x1="" y1="" x2="" y2="" stroke="#449FDB" opacity=""></line>
</g>
	<path d="M36.412 27.36c-1.654 0-3-1.348-3-3 0-1.654 1.346-3 3-3s3 1.346 3 3c0 1.652-1.346 3-3 3zM36.412 23.358c-0.552 0-1 0.448-1 1 0 0.55 0.448 1 1 1s1-0.452 1-1c0-0.554-0.448-1-1-1z" fill="#000000"></path>
	<path d="M0.818 36.636c-0.306 0-0.604-0.14-0.796-0.392-0.258-0.34-0.272-0.802-0.036-1.162 0.414-0.618 0.798-1.14 1.15-1.628 1.514-2.078 2.274-3.124 2.274-7.094 0-3.972-0.76-5.016-2.274-7.094-0.352-0.486-0.738-1.014-1.15-1.632-0.238-0.354-0.224-0.822 0.036-1.162 0.258-0.34 0.708-0.476 1.11-0.344 1.032 0.342 2.006 0.558 2.95 0.768 2.492 0.554 4.862 1.082 6.184 3.832 3.216-1.582 7.876-2.704 13.102-3.142-0.134-1.692-0.672-3.17-1.544-4.314-0.198-0.258-0.256-0.598-0.158-0.908s0.342-0.554 0.652-0.652c0.75-0.236 1.434-0.35 2.094-0.35 3.548 0 6.49 2.656 6.94 6.084 6.79 0.326 12.708 1.734 16.344 3.9 0.278 0.164 0.458 0.45 0.484 0.77 0.028 0.32-0.098 0.632-0.34 0.844l-4.024 3.504 3.308 3.86c0.2 0.23 0.282 0.542 0.218 0.842-0.058 0.298-0.252 0.556-0.524 0.702-4.266 2.188-11.146 3.496-18.412 3.496-7.2 0-13.86-1.246-18.146-3.37-1.32 2.746-3.688 3.276-6.18 3.828-0.942 0.208-1.916 0.428-2.948 0.77-0.102 0.030-0.208 0.044-0.314 0.044zM3.24 18.758c1.326 1.864 2.172 3.458 2.172 7.602 0 4.14-0.846 5.734-2.172 7.598 0.138-0.030 0.274-0.058 0.408-0.090 2.69-0.598 4.314-0.958 5.148-3.59 0.092-0.292 0.31-0.522 0.594-0.628 0.284-0.114 0.6-0.084 0.864 0.066 3.852 2.25 10.81 3.644 18.16 3.644 6.326 0 12.3-1.010 16.338-2.734l-3.098-3.616c-0.358-0.416-0.312-1.044 0.102-1.404l3.676-3.202c-3.58-1.698-9.060-2.8-15.056-3-0.288-0.010-0.552-0.14-0.738-0.364-0.184-0.22-0.262-0.508-0.216-0.792-0.006-2.708-2.388-5.020-5.18-4.888 0.762 1.466 1.172 3.192 1.172 4.996l-0.016 0.204c-0.050 0.484-0.444 0.908-0.93 0.944-5.908 0.398-11.090 1.674-14.216 3.498-0.266 0.152-0.582 0.176-0.864 0.068-0.284-0.11-0.502-0.342-0.594-0.63-0.836-2.632-2.46-2.992-5.15-3.588-0.13-0.036-0.266-0.064-0.404-0.094z" fill="#000000"></path>
</svg>
