<?xml version="1.0" encoding="utf-8"?>
<!-- Generated by IcoMoon.io -->
<!DOCTYPE svg PUBLIC "-//W3C//DTD SVG 1.1//EN" "http://www.w3.org/Graphics/SVG/1.1/DTD/svg11.dtd">
<svg version="1.1" xmlns="http://www.w3.org/2000/svg" xmlns:xlink="http://www.w3.org/1999/xlink" width="48" height="48" viewBox="0 0 48 48">
<g id="icomoon-ignore">
	<line stroke-width="1" x1="" y1="" x2="" y2="" stroke="#449FDB" opacity=""></line>
</g>
	<path d="M24 48c-0.552 0-1-0.45-1-1v-46c0-0.552 0.448-1 1-1s1 0.448 1 1v46c0 0.55-0.448 1-1 1z" fill="#000000"></path>
	<path d="M24 16.644c-4.122 0-7-3.228-7-7.848v-7.796c0-0.552 0.448-1 1-1s1 0.448 1 1v7.796c0 2.912 1.546 5.848 5 5.848s5-2.936 5-5.848v-7.796c0-0.552 0.45-1 1-1s1 0.448 1 1v7.796c0 4.62-2.878 7.848-7 7.848z" fill="#000000"></path>
</svg>
