<?xml version="1.0" encoding="utf-8"?>
<!-- Generated by IcoMoon.io -->
<!DOCTYPE svg PUBLIC "-//W3C//DTD SVG 1.1//EN" "http://www.w3.org/Graphics/SVG/1.1/DTD/svg11.dtd">
<svg version="1.1" xmlns="http://www.w3.org/2000/svg" xmlns:xlink="http://www.w3.org/1999/xlink" width="48" height="48" viewBox="0 0 48 48">
<g id="icomoon-ignore">
	<line stroke-width="1" x1="" y1="" x2="" y2="" stroke="#449FDB" opacity=""></line>
</g>
	<path d="M27.086 34.932c-0.608-0.044-1.206-0.010-1.824-0.034-10.98-0.382-17.726-5.058-22.876-9.582-2.078-1.824-2.894-4.042-2.18-5.936 0.96-2.548 4.484-3.394 7.626-1.602 5.142 2.936 11.65 3.234 17.476 0.702 8.962-3.888 15.506-2.516 17.12 3.404 0.934 3.426 0.566 6.262-1.090 8.428-2.342 3.064-7.138 4.62-14.252 4.62zM4.334 18.772c-1.086 0-1.952 0.504-2.258 1.316-0.408 1.082 0.202 2.472 1.63 3.726 4.884 4.292 11.272 8.724 21.626 9.086 0.598 0.022 1.184 0.034 1.754 0.034v0c6.368 0 10.746-1.326 12.66-3.832 1.258-1.646 1.508-3.896 0.75-6.688-0.754-2.776-2.8-4.182-6.082-4.182-2.324 0-5.122 0.704-8.308 2.086-6.404 2.78-13.584 2.446-19.266-0.798-0.856-0.49-1.722-0.748-2.506-0.748z" fill="#000000"></path>
	<path d="M37.958 22.984c-0.488 0-0.914-0.36-0.988-0.858-0.078-0.544 0.3-1.052 0.852-1.13 2.57-0.376 3.128-1.818 3.84-3.648 0.73-1.906 1.644-4.28 5.386-4.28 0.55 0 1 0.448 1 1 0 0.55-0.45 1-1 1-2.372 0-2.832 1.192-3.528 2.998-0.75 1.946-1.684 4.368-5.418 4.906-0.052 0.008-0.094 0.012-0.144 0.012z" fill="#000000"></path>
	<path d="M37.562 32.898c-0.218 0-0.446-0.072-0.628-0.222-0.426-0.348-0.492-0.978-0.144-1.406 0.376-0.458 0.71-1.136 0.204-1.768-0.684-0.838-2.46-1.198-4.41-0.208-0.452 0.228-0.992 0.084-1.278-0.33-0.282-0.414-0.214-0.974 0.16-1.308 1.418-1.268 1.524-2.51 1.184-3.188-0.362-0.718-1.23-1.020-2.32-0.792-0.472 0.092-0.948-0.162-1.126-0.612-0.18-0.45-0.012-0.96 0.398-1.216 1.272-0.796 1.348-1.804 1.028-2.428-0.128-0.248-0.45-0.624-0.82-0.468-0.506 0.21-1.096-0.032-1.304-0.542-0.21-0.512 0.032-1.096 0.542-1.304 1.262-0.522 2.676 0.068 3.366 1.398 0.476 0.928 0.55 2.166-0.062 3.31 0.918 0.296 1.664 0.902 2.090 1.758 0.484 0.96 0.496 2.064 0.094 3.14 1.762-0.126 3.222 0.55 4.020 1.536 1.008 1.248 0.93 2.89-0.204 4.286-0.212 0.24-0.496 0.364-0.79 0.364z" fill="#000000"></path>
</svg>
