<?xml version="1.0" encoding="utf-8"?>
<!-- Generated by IcoMoon.io -->
<!DOCTYPE svg PUBLIC "-//W3C//DTD SVG 1.1//EN" "http://www.w3.org/Graphics/SVG/1.1/DTD/svg11.dtd">
<svg version="1.1" xmlns="http://www.w3.org/2000/svg" xmlns:xlink="http://www.w3.org/1999/xlink" width="48" height="48" viewBox="0 0 48 48">
<g id="icomoon-ignore">
	<line stroke-width="1" x1="" y1="" x2="" y2="" stroke="#449FDB" opacity=""></line>
</g>
	<path d="M47.36 34.016c-0.55 0-1-0.45-1-1 0-17.128-13.934-31.062-31.062-31.062-0.552 0-1-0.448-1-1s0.448-1 1-1c18.23 0 33.062 14.832 33.062 33.062 0 0.552-0.446 1-1 1z" fill="#000000"></path>
	<path d="M0.642 48.046c-0.262 0-0.516-0.102-0.708-0.292-0.26-0.258-0.356-0.642-0.25-0.996l13-43c0.16-0.528 0.724-0.828 1.246-0.668 0.53 0.16 0.828 0.718 0.668 1.246l-12.46 41.214 41.214-12.46c0.528-0.158 1.086 0.14 1.246 0.668 0.16 0.53-0.136 1.086-0.668 1.246l-43 13c-0.094 0.030-0.192 0.042-0.288 0.042z" fill="#000000"></path>
	<path d="M21.642 15.046c-2.756 0-5-2.244-5-5s2.244-5 5-5 5 2.244 5 5-2.244 5-5 5zM21.642 7.046c-1.654 0-3 1.346-3 3s1.346 3 3 3 3-1.346 3-3-1.346-3-3-3z" fill="#000000"></path>
	<path d="M15.642 37.046c-2.756 0-5-2.244-5-5s2.244-5 5-5 5 2.244 5 5-2.244 5-5 5zM15.642 29.046c-1.654 0-3 1.346-3 3s1.346 3 3 3 3-1.346 3-3-1.346-3-3-3z" fill="#000000"></path>
	<path d="M37.64 31.046c-2.754 0-5-2.244-5-5s2.246-5 5-5c2.758 0 5 2.244 5 5s-2.242 5-5 5zM37.64 23.046c-1.652 0-3 1.346-3 3s1.348 3 3 3c1.656 0 3-1.346 3-3s-1.344-3-3-3z" fill="#000000"></path>
	<path d="M23.642 25.046c-0.256 0-0.512-0.098-0.708-0.292-0.39-0.39-0.39-1.024 0-1.414l4-4c0.39-0.39 1.024-0.39 1.414 0s0.39 1.024 0 1.414l-4 4c-0.194 0.196-0.45 0.292-0.706 0.292z" fill="#000000"></path>
	<path d="M5.642 43.046c-0.256 0-0.512-0.098-0.708-0.292-0.39-0.388-0.39-1.024 0-1.414l4-4c0.39-0.388 1.024-0.388 1.414 0 0.39 0.39 0.39 1.026 0 1.414l-4 4c-0.194 0.196-0.45 0.292-0.706 0.292z" fill="#000000"></path>
	<path d="M17.642 23.046c-0.256 0-0.512-0.098-0.708-0.292l-4-4c-0.39-0.39-0.39-1.024 0-1.414s1.024-0.39 1.414 0l4 4c0.39 0.39 0.39 1.024 0 1.414-0.194 0.196-0.45 0.292-0.706 0.292z" fill="#000000"></path>
	<path d="M29.64 35.046c-0.254 0-0.512-0.098-0.708-0.292l-4-4c-0.39-0.388-0.39-1.024 0-1.414 0.39-0.388 1.024-0.388 1.414 0l4 4c0.39 0.39 0.39 1.026 0 1.414-0.194 0.196-0.448 0.292-0.706 0.292z" fill="#000000"></path>
	<path d="M35.64 17.046c-0.254 0-0.512-0.098-0.708-0.292l-4-4c-0.39-0.39-0.39-1.024 0-1.414s1.024-0.39 1.414 0l4 4c0.39 0.39 0.39 1.024 0 1.414-0.194 0.196-0.448 0.292-0.706 0.292z" fill="#000000"></path>
</svg>
