<?xml version="1.0" encoding="utf-8"?>
<!-- Generated by IcoMoon.io -->
<!DOCTYPE svg PUBLIC "-//W3C//DTD SVG 1.1//EN" "http://www.w3.org/Graphics/SVG/1.1/DTD/svg11.dtd">
<svg version="1.1" xmlns="http://www.w3.org/2000/svg" xmlns:xlink="http://www.w3.org/1999/xlink" width="68" height="48" viewBox="0 0 68 48">
<g id="icomoon-ignore">
	<line stroke-width="1" x1="" y1="" x2="" y2="" stroke="#449FDB" opacity=""></line>
</g>
	<path d="M31.938 4c11.028 0 20 8.972 20 20s-8.972 20-20 20c-11.028 0-20-8.972-20-20s8.972-20 20-20zM31.938 2c-12.15 0-22 9.85-22 22s9.85 22 22 22 22-9.85 22-22-9.85-22-22-22v0z" fill="#000000"></path>
	<path d="M31.938 11.332c6.984 0 12.666 5.682 12.666 12.668s-5.682 12.668-12.666 12.668-12.666-5.682-12.666-12.668 5.682-12.668 12.666-12.668zM31.938 9.332c-8.1 0-14.666 6.566-14.666 14.668s6.566 14.668 14.666 14.668 14.666-6.566 14.666-14.668-6.566-14.668-14.666-14.668v0z" fill="#000000"></path>
	<path d="M6.938 47c-0.552 0-1-0.45-1-1v-40c0-0.552 0.448-1 1-1s1 0.448 1 1v40c0 0.55-0.448 1-1 1z" fill="#000000"></path>
	<path d="M0.938 23c-0.552 0-1-0.448-1-1v-16.792c0-1.984 1.906-3.792 4-3.792 1.932 0 4 1.458 4 3.626v4.958c0 0.552-0.448 1-1 1s-1-0.448-1-1v-4.958c0-0.93-1.056-1.626-2-1.626-0.99 0-2 0.904-2 1.792v16.792c0 0.552-0.448 1-1 1z" fill="#000000"></path>
	<path d="M3.938 27c-2.094 0-4-1.804-4-3.792v-3.208c0-0.552 0.448-1 1-1s1 0.448 1 1v3.208c0 0.886 1.010 1.792 2 1.792 0.944 0 2-0.696 2-1.626 0-0.552 0.448-1 1-1s1 0.448 1 1c0 2.168-2.068 3.626-4 3.626z" fill="#000000"></path>
	<path d="M60.938 47c-0.55 0-1-0.45-1-1v-44c0-0.552 0.45-1 1-1s1 0.448 1 1v44c0 0.55-0.45 1-1 1z" fill="#000000"></path>
	<path d="M60.938 17.644c-4.122 0-7-3.228-7-7.848v-7.796c0-0.552 0.45-1 1-1s1 0.448 1 1v7.796c0 2.912 1.546 5.848 5 5.848s5-2.936 5-5.848v-7.796c0-0.552 0.45-1 1-1s1 0.448 1 1v7.796c0 4.62-2.878 7.848-7 7.848z" fill="#000000"></path>
</svg>
