<?xml version="1.0" encoding="utf-8"?>
<!-- Generated by IcoMoon.io -->
<!DOCTYPE svg PUBLIC "-//W3C//DTD SVG 1.1//EN" "http://www.w3.org/Graphics/SVG/1.1/DTD/svg11.dtd">
<svg version="1.1" xmlns="http://www.w3.org/2000/svg" xmlns:xlink="http://www.w3.org/1999/xlink" width="48" height="48" viewBox="0 0 48 48">
<g id="icomoon-ignore">
	<line stroke-width="1" x1="" y1="" x2="" y2="" stroke="#449FDB" opacity=""></line>
</g>
	<path d="M33 47.5h-26c-0.552 0-1-0.448-1-1v-32c0-0.55 0.448-1 1-1h26c0.55 0 1 0.45 1 1v32c0 0.552-0.45 1-1 1zM8 45.5h24v-30h-24v30z" fill="#000000"></path>
	<path d="M37 33.5h-4c-0.55 0-1-0.448-1-1v-12c0-0.55 0.45-1 1-1h4c2.758 0 5 2.244 5 5v4c0 2.756-2.242 5-5 5zM34 31.5h3c1.654 0 3-1.346 3-3v-4c0-1.654-1.346-3-3-3h-3v10z" fill="#000000"></path>
	<path d="M16.54 11.188c-0.196 0-0.394-0.056-0.568-0.178-1.752-1.21-0.864-3.052-0.334-4.154 0.648-1.34 0.564-1.476 0.334-1.636-0.456-0.316-0.568-0.936-0.254-1.392s0.938-0.57 1.39-0.254c1.752 1.212 0.864 3.052 0.332 4.154-0.648 1.342-0.564 1.478-0.332 1.64 0.454 0.312 0.568 0.936 0.254 1.388-0.192 0.284-0.504 0.432-0.822 0.432z" fill="#000000"></path>
	<path d="M20.734 11.188c-0.196 0-0.394-0.056-0.568-0.178-1.642-1.134-0.978-3.424-0.392-5.444 0.318-1.094 0.848-2.928 0.392-3.244-0.454-0.314-0.568-0.936-0.254-1.39 0.312-0.456 0.936-0.568 1.39-0.254 1.642 1.134 0.978 3.426 0.392 5.446-0.318 1.094-0.848 2.928-0.392 3.244 0.454 0.312 0.568 0.936 0.254 1.388-0.192 0.284-0.506 0.432-0.822 0.432z" fill="#000000"></path>
	<path d="M24.928 11.188c-0.196 0-0.394-0.056-0.568-0.178-1.752-1.208-0.864-3.050-0.332-4.154 0.648-1.342 0.564-1.476 0.332-1.638-0.454-0.314-0.568-0.936-0.254-1.39 0.312-0.456 0.932-0.57 1.39-0.254 1.752 1.21 0.864 3.052 0.332 4.154-0.648 1.342-0.564 1.478-0.332 1.64 0.454 0.312 0.568 0.936 0.254 1.388-0.192 0.284-0.504 0.432-0.822 0.432z" fill="#000000"></path>
	<path d="M11 34.5c-0.552 0-1-0.448-1-1v-14c0-0.55 0.448-1 1-1s1 0.45 1 1v14c0 0.552-0.448 1-1 1z" fill="#000000"></path>
</svg>
