<?xml version="1.0" encoding="utf-8"?>
<!-- Generated by IcoMoon.io -->
<!DOCTYPE svg PUBLIC "-//W3C//DTD SVG 1.1//EN" "http://www.w3.org/Graphics/SVG/1.1/DTD/svg11.dtd">
<svg version="1.1" xmlns="http://www.w3.org/2000/svg" xmlns:xlink="http://www.w3.org/1999/xlink" width="48" height="48" viewBox="0 0 48 48">
<g id="icomoon-ignore">
	<line stroke-width="1" x1="" y1="" x2="" y2="" stroke="#449FDB" opacity=""></line>
</g>
	<path d="M31 48h-14c-0.552 0-1-0.45-1-1s0.448-1 1-1h14c0.55 0 1 0.45 1 1s-0.45 1-1 1z" fill="#000000"></path>
	<path d="M24 47c-0.552 0-1-0.45-1-1v-18c0-0.55 0.448-1 1-1s1 0.45 1 1v18c0 0.55-0.448 1-1 1z" fill="#000000"></path>
	<path d="M24 29c-6.618 0-12-7.178-12-16 0-2.982 0.618-9.876 1.798-12.42 0.164-0.354 0.518-0.58 0.908-0.58h18.586c0.39 0 0.746 0.226 0.91 0.58 1.18 2.544 1.798 9.438 1.798 12.42 0 8.822-5.382 16-12 16zM15.39 2c-0.806 2.442-1.39 8.076-1.39 11 0 7.72 4.486 14 10 14s10-6.28 10-14c0-2.924-0.584-8.558-1.39-11h-17.22z" fill="#000000"></path>
	<path d="M13 10h22v2h-22v-2z" fill="#000000"></path>
</svg>
