<?xml version="1.0" encoding="utf-8"?>
<!-- Generated by IcoMoon.io -->
<!DOCTYPE svg PUBLIC "-//W3C//DTD SVG 1.1//EN" "http://www.w3.org/Graphics/SVG/1.1/DTD/svg11.dtd">
<svg version="1.1" xmlns="http://www.w3.org/2000/svg" xmlns:xlink="http://www.w3.org/1999/xlink" width="48" height="48" viewBox="0 0 48 48">
<g id="icomoon-ignore">
	<line stroke-width="1" x1="" y1="" x2="" y2="" stroke="#449FDB" opacity=""></line>
</g>
	<path d="M25.3 10c-0.278 0-0.542-0.114-0.73-0.318-0.214-0.232-0.308-0.552-0.252-0.866 0.498-2.692 2.788-7.784 7.866-7.784 0.704 0 1.444 0.096 2.202 0.288 0.492 0.126 0.812 0.598 0.746 1.102-0.566 4.256-7.146 7.274-9.708 7.57-0.048 0.006-0.084 0.008-0.124 0.008zM32.18 3.034c-3.204 0-4.762 2.76-5.444 4.586 2.26-0.79 5.178-2.618 6.12-4.548-0.23-0.026-0.456-0.038-0.676-0.038z" fill="#000000"></path>
	<path d="M33.598 46.968v0c-1.348 0-2.504-0.668-3.726-1.376-1.356-0.784-2.754-1.592-4.572-1.592s-3.218 0.808-4.576 1.588c-1.224 0.706-2.38 1.374-3.728 1.374-0.864 0-1.68-0.274-2.492-0.836-5.898-4.090-12.204-11.784-12.204-21.126 0-10.208 7.74-17.324 14.686-17.324 3.19 0 6.092 1.356 8.444 3.936 5.832-4.524 11.862-5.128 16.454-1.762 0.39 0.292 0.522 0.82 0.3 1.256-0.406 0.8-0.61 1.63-0.61 2.462 0 0.204 0.032 0.4 0.058 0.596 0.058 0.408-0.126 0.934-0.482 1.136-1.758 0.988-2.85 2.832-2.85 4.812 0 2.824 2.132 5.18 4.96 5.482 0.34 0.036 0.632 0.242 0.79 0.548 0.154 0.306 0.136 0.668-0.040 0.958-0.536 0.888-0.8 1.842-0.8 2.828 0 1.674 0.77 3.248 2.114 4.318 0.376 0.296 0.482 0.822 0.262 1.248-2.16 4.12-5.538 7.896-9.504 10.638-0.812 0.564-1.624 0.836-2.484 0.836zM25.3 42c2.352 0 4.136 1.032 5.57 1.864 1.028 0.594 1.916 1.106 2.726 1.106v0c0.446 0 0.874-0.15 1.344-0.476 3.488-2.41 6.48-5.67 8.5-9.242-1.426-1.416-2.23-3.312-2.23-5.318 0-0.884 0.166-1.774 0.486-2.616-3.156-0.93-5.396-3.82-5.396-7.202 0-2.476 1.244-4.792 3.29-6.194-0.008-0.12-0.016-0.234-0.016-0.35 0-0.864 0.156-1.716 0.464-2.548-3.934-2.416-9.070-1.442-14.098 2.748-0.208 0.172-0.476 0.248-0.74 0.226-0.268-0.028-0.514-0.16-0.682-0.37-2.066-2.584-4.672-3.948-7.538-3.948-6 0-12.686 6.292-12.686 15.324 0 8.568 5.864 15.68 11.342 19.478 1.33 0.924 2.482 0.296 4.084-0.624 1.444-0.826 3.228-1.858 5.58-1.858z" fill="#000000"></path>
</svg>
