<?xml version="1.0" encoding="utf-8"?>
<!-- Generated by IcoMoon.io -->
<!DOCTYPE svg PUBLIC "-//W3C//DTD SVG 1.1//EN" "http://www.w3.org/Graphics/SVG/1.1/DTD/svg11.dtd">
<svg version="1.1" xmlns="http://www.w3.org/2000/svg" xmlns:xlink="http://www.w3.org/1999/xlink" width="48" height="48" viewBox="0 0 48 48">
<g id="icomoon-ignore">
	<line stroke-width="1" x1="" y1="" x2="" y2="" stroke="#449FDB" opacity=""></line>
</g>
	<path d="M32 48h-16c-0.552 0-1-0.45-1-1v-21c0-10.676 0-16.662 4-21.15v-3.85c0-0.552 0.448-1 1-1h8c0.55 0 1 0.448 1 1v3.85c4 4.49 4 10.474 4 21.15v21c0 0.55-0.45 1-1 1zM17 46h14v-20c0-10.4 0-16.13-3.726-20.076-0.176-0.186-0.274-0.432-0.274-0.686v-3.238h-6v3.238c0 0.254-0.098 0.5-0.274 0.686-3.726 3.946-3.726 9.676-3.726 20.076v20z" fill="#000000"></path>
	<path d="M29 2h-10c-0.552 0-1-0.448-1-1s0.448-1 1-1h10c0.55 0 1 0.448 1 1s-0.45 1-1 1z" fill="#000000"></path>
	<path d="M27.446 23.58c-1.706 0-3.236-0.34-4.656-0.658-2.086-0.466-3.734-0.834-5.344-0.028-0.494 0.246-1.092 0.042-1.342-0.448-0.248-0.494-0.046-1.094 0.448-1.342 2.246-1.124 4.398-0.644 6.674-0.134 2.268 0.506 4.614 1.028 7.458 0.082 0.528-0.174 1.090 0.108 1.266 0.632 0.172 0.524-0.11 1.090-0.632 1.264-1.392 0.464-2.678 0.632-3.872 0.632z" fill="#000000"></path>
</svg>
