<?xml version="1.0" encoding="utf-8"?>
<!-- Generated by IcoMoon.io -->
<!DOCTYPE svg PUBLIC "-//W3C//DTD SVG 1.1//EN" "http://www.w3.org/Graphics/SVG/1.1/DTD/svg11.dtd">
<svg version="1.1" xmlns="http://www.w3.org/2000/svg" xmlns:xlink="http://www.w3.org/1999/xlink" width="48" height="48" viewBox="0 0 48 48">
<g id="icomoon-ignore">
	<line stroke-width="1" x1="" y1="" x2="" y2="" stroke="#449FDB" opacity=""></line>
</g>
	<path d="M14.804 40.762c-0.262 0-0.524-0.102-0.716-0.302-0.384-0.396-0.376-1.030 0.022-1.414l31.19-30.264c0.398-0.384 1.036-0.374 1.414 0.022 0.382 0.396 0.376 1.030-0.020 1.414l-31.192 30.262c-0.198 0.188-0.448 0.282-0.698 0.282z" fill="#000000"></path>
	<path d="M7.732 33.692c-0.202 0-0.404-0.060-0.58-0.188-0.454-0.32-0.554-0.946-0.234-1.394l22.264-31.192c0.322-0.45 0.948-0.552 1.394-0.232 0.452 0.32 0.552 0.946 0.234 1.394l-22.264 31.194c-0.194 0.27-0.504 0.418-0.814 0.418z" fill="#000000"></path>
	<path d="M12.726 37.68c-0.8 0-1.554-0.31-2.122-0.876-0.564-0.57-0.878-1.324-0.878-2.124s0.312-1.554 0.878-2.122c1.128-1.128 3.11-1.132 4.238 0 0.566 0.564 0.876 1.318 0.876 2.118 0 0.802-0.308 1.556-0.876 2.126-0.56 0.568-1.314 0.878-2.116 0.878zM12.726 33.68c-0.27 0-0.52 0.106-0.708 0.292-0.194 0.188-0.292 0.442-0.292 0.708 0 0.268 0.104 0.518 0.292 0.708 0.376 0.376 1.036 0.376 1.41 0 0.192-0.19 0.292-0.44 0.292-0.708 0-0.266-0.102-0.52-0.292-0.708-0.184-0.186-0.434-0.292-0.702-0.292z" fill="#000000"></path>
	<path d="M24.726 45.68c-0.8 0-1.554-0.31-2.122-0.876-0.566-0.568-0.878-1.322-0.878-2.124s0.312-1.554 0.878-2.122c1.128-1.128 3.11-1.132 4.238 0 0.566 0.564 0.876 1.318 0.876 2.118 0 0.802-0.308 1.556-0.876 2.126-0.56 0.568-1.314 0.878-2.116 0.878zM24.726 41.68c-0.27 0-0.52 0.106-0.708 0.292-0.194 0.188-0.292 0.442-0.292 0.708 0 0.268 0.104 0.518 0.292 0.708 0.376 0.376 1.036 0.376 1.41 0 0.192-0.19 0.292-0.44 0.292-0.708 0-0.266-0.102-0.52-0.292-0.708-0.184-0.186-0.434-0.292-0.702-0.292z" fill="#000000"></path>
	<path d="M32.726 45.68c-0.8 0-1.554-0.31-2.122-0.876-0.566-0.568-0.878-1.322-0.878-2.124s0.312-1.554 0.878-2.122c1.128-1.128 3.11-1.132 4.238 0 0.566 0.564 0.876 1.318 0.876 2.118 0 0.802-0.308 1.556-0.876 2.126-0.56 0.568-1.314 0.878-2.116 0.878zM32.726 41.68c-0.27 0-0.52 0.106-0.708 0.292-0.194 0.188-0.292 0.442-0.292 0.708 0 0.268 0.104 0.518 0.292 0.708 0.376 0.376 1.036 0.376 1.41 0 0.192-0.19 0.292-0.44 0.292-0.708 0-0.266-0.102-0.52-0.292-0.708-0.184-0.186-0.434-0.292-0.702-0.292z" fill="#000000"></path>
	<path d="M42.476 47.5h-36.96l-4.3-5.376c-0.344-0.432-0.274-1.060 0.156-1.406 0.44-0.344 1.062-0.272 1.406 0.156l3.702 4.626h35.040l3.704-4.626c0.348-0.43 0.976-0.498 1.406-0.156 0.43 0.346 0.5 0.974 0.156 1.406l-4.31 5.376z" fill="#000000"></path>
</svg>
