<?xml version="1.0" encoding="utf-8"?>
<!-- Generated by IcoMoon.io -->
<!DOCTYPE svg PUBLIC "-//W3C//DTD SVG 1.1//EN" "http://www.w3.org/Graphics/SVG/1.1/DTD/svg11.dtd">
<svg version="1.1" xmlns="http://www.w3.org/2000/svg" xmlns:xlink="http://www.w3.org/1999/xlink" width="48" height="48" viewBox="0 0 48 48">
<g id="icomoon-ignore">
	<line stroke-width="1" x1="" y1="" x2="" y2="" stroke="#449FDB" opacity=""></line>
</g>
	<path d="M25.52 18c3.306 0 6 2.692 6 6s-2.694 6-6 6c-3.308 0-6-2.692-6-6s2.69-6 6-6zM25.52 16c-4.418 0-8 3.582-8 8s3.582 8 8 8 8-3.582 8-8-3.582-8-8-8v0z" fill="#000000"></path>
	<path d="M25.52 2c6.536 0 12.556 2.814 16.752 7.776-0.938 1.366-1.454 2.966-1.48 4.65-2.042 1.608-3.274 4.068-3.274 6.688 0 3.482 2.094 6.504 5.156 7.818-0.164 0.658-0.248 1.328-0.248 2 0 1.804 0.556 3.518 1.594 4.956-4.038 6.27-11.002 10.112-18.502 10.112-12.13 0-22-9.872-22-22 0-12.13 9.87-22 22.002-22zM25.52 0c-13.254 0-24 10.746-24 24s10.746 24 24 24c9.016 0 16.86-4.976 20.96-12.328-1.258-1.192-2.050-2.872-2.050-4.74 0-1.224 0.358-2.362 0.946-3.342-3.286-0.35-5.856-3.098-5.856-6.476 0-2.452 1.364-4.562 3.36-5.684-0.038-0.286-0.086-0.566-0.086-0.862 0-1.876 0.798-3.552 2.060-4.748-4.372-5.946-11.392-9.82-19.334-9.82v0z" fill="#000000"></path>
</svg>
