<?xml version="1.0" encoding="utf-8"?>
<!-- Generated by IcoMoon.io -->
<!DOCTYPE svg PUBLIC "-//W3C//DTD SVG 1.1//EN" "http://www.w3.org/Graphics/SVG/1.1/DTD/svg11.dtd">
<svg version="1.1" xmlns="http://www.w3.org/2000/svg" xmlns:xlink="http://www.w3.org/1999/xlink" width="48" height="48" viewBox="0 0 48 48">
<g id="icomoon-ignore">
	<line stroke-width="1" x1="" y1="" x2="" y2="" stroke="#449FDB" opacity=""></line>
</g>
	<path d="M38.378 45h-28.748c-2.478 0-5.514-1.69-6.382-4h-0.242v-1.096l-0.108-0.904h42.21l-0.106 1v1h-0.244c-0.864 2.31-3.9 4-6.38 4zM5.506 41c0.868 1.142 2.694 2 4.124 2h28.75c1.43 0 3.258-0.858 4.126-2h-37z" fill="#000000"></path>
	<path d="M46.006 41h-44c-0.552 0-1-0.45-1-1v-8c0-0.55 0.448-1 1-1h44c0.552 0 1 0.45 1 1v8c0 0.55-0.448 1-1 1zM3.006 39h42v-6h-42v6z" fill="#000000"></path>
	<path d="M38.378 29.188c-2.134 0-3.876-1.738-3.876-3.876 0-1.034-0.84-1.876-1.876-1.876-1.038 0-1.876 0.84-1.876 1.876 0 2.136-1.738 3.876-3.876 3.876-2.136 0-3.876-1.738-3.876-3.876 0-1.034-0.84-1.876-1.876-1.876s-1.876 0.84-1.876 1.876c0 2.136-1.738 3.876-3.876 3.876s-3.876-1.738-3.876-3.876c0-1.034-0.84-1.876-1.876-1.876s-1.876 0.84-1.876 1.876c0 2.136-1.738 3.876-3.876 3.876s-3.876-1.738-3.876-3.876c0-0.552 0.448-1 1-1s1 0.448 1 1c0 1.034 0.84 1.876 1.876 1.876s1.876-0.84 1.876-1.876c0-2.136 1.738-3.876 3.876-3.876s3.876 1.738 3.876 3.876c0 1.034 0.84 1.876 1.876 1.876s1.876-0.84 1.876-1.876c0-2.136 1.738-3.876 3.876-3.876s3.876 1.738 3.876 3.876c0 1.034 0.84 1.876 1.876 1.876 1.038 0 1.876-0.84 1.876-1.876 0-2.136 1.738-3.876 3.876-3.876 2.136 0 3.876 1.738 3.876 3.876 0 1.034 0.84 1.876 1.876 1.876 1.038 0 1.876-0.84 1.876-1.876 0-2.136 1.738-3.876 3.876-3.876 2.136 0 3.876 1.738 3.876 3.876 0 0.55-0.45 1-1 1s-1-0.45-1-1c0-1.034-0.84-1.876-1.876-1.876-1.038 0-1.876 0.84-1.876 1.876 0.002 2.138-1.736 3.876-3.876 3.876z" fill="#000000"></path>
	<path d="M46.006 19h-44c-0.552 0-1-0.448-1-1v-2.188c0-12.812 9.726-12.812 20.988-12.812h4.024c11.262 0 20.988 0 20.988 12.812v2.188c0 0.552-0.448 1-1 1zM3.006 17h42v-1.188c0-10.332-6.51-10.812-18.988-10.812h-4.024c-12.478 0-18.988 0.482-18.988 10.812v1.188z" fill="#000000"></path>
</svg>
