<?xml version="1.0" encoding="utf-8"?>
<!-- Generated by IcoMoon.io -->
<!DOCTYPE svg PUBLIC "-//W3C//DTD SVG 1.1//EN" "http://www.w3.org/Graphics/SVG/1.1/DTD/svg11.dtd">
<svg version="1.1" xmlns="http://www.w3.org/2000/svg" xmlns:xlink="http://www.w3.org/1999/xlink" width="48" height="48" viewBox="0 0 48 48">
<g id="icomoon-ignore">
	<line stroke-width="1" x1="" y1="" x2="" y2="" stroke="#449FDB" opacity=""></line>
</g>
	<path d="M5.5 10.5c-0.55 0-1-0.448-1-1v-2c0-0.552 0.45-1 1-1s1 0.448 1 1v2c0 0.552-0.45 1-1 1z" fill="#000000"></path>
	<path d="M21.5 10.5c-0.55 0-1-0.448-1-1v-2c0-0.552 0.45-1 1-1s1 0.448 1 1v2c0 0.552-0.45 1-1 1z" fill="#000000"></path>
	<path d="M9.5 14.5c-0.55 0-1-0.448-1-1v-10c0-0.552 0.45-1 1-1s1 0.448 1 1v10c0 0.552-0.45 1-1 1z" fill="#000000"></path>
	<path d="M17.5 14.5c-0.55 0-1-0.448-1-1v-10c0-0.552 0.45-1 1-1s1 0.448 1 1v10c0 0.552-0.45 1-1 1z" fill="#000000"></path>
	<path d="M13.5 16.5c-0.55 0-1-0.448-1-1v-14c0-0.552 0.45-1 1-1s1 0.448 1 1v14c0 0.552-0.45 1-1 1z" fill="#000000"></path>
	<path d="M46.5 9.5h-22c-0.55 0-1-0.448-1-1s0.45-1 1-1h22c0.55 0 1 0.448 1 1s-0.45 1-1 1z" fill="#000000"></path>
	<path d="M27.5 47.5h-26c-0.55 0-1-0.45-1-1v-15c0-0.378 0.214-0.724 0.55-0.894l7.45-3.722v-3.384c-0.55 0-1-0.448-1-1s0.45-1 1-1h1c0.55 0 1 0.448 1 1v5c0 0.378-0.214 0.724-0.55 0.894l-7.45 3.724v13.382h24v-13.382l-7.45-3.722c-0.336-0.172-0.55-0.518-0.55-0.896v-5c0-0.552 0.45-1 1-1h1c0.55 0 1 0.448 1 1s-0.45 1-1 1v3.382l7.45 3.722c0.336 0.172 0.55 0.516 0.55 0.894v15c0 0.552-0.45 1.002-1 1.002z" fill="#000000"></path>
	<path d="M26.5 37.5h-24c-0.55 0-1-0.45-1-1s0.45-1 1-1h24c0.55 0 1 0.45 1 1s-0.45 1-1 1z" fill="#000000"></path>
	<path d="M13.5 20.5c-0.26 0-0.52-0.1-0.704-0.3-0.2-0.18-0.296-0.44-0.296-0.7s0.1-0.52 0.296-0.72c0.364-0.36 1.024-0.36 1.404 0 0.2 0.2 0.296 0.46 0.296 0.72s-0.1 0.52-0.286 0.7c-0.19 0.2-0.45 0.3-0.71 0.3z" fill="#000000"></path>
	<path d="M17.5 18.5c-0.26 0-0.52-0.1-0.704-0.28-0.2-0.2-0.296-0.46-0.296-0.72s0.1-0.5 0.282-0.7c0.398-0.4 1.042-0.38 1.418-0.020 0.206 0.2 0.3 0.46 0.3 0.72s-0.1 0.52-0.3 0.7c-0.18 0.2-0.44 0.3-0.7 0.3z" fill="#000000"></path>
	<path d="M13.5 26.5c-0.55 0-1-0.45-1-1v-2c0-0.552 0.45-1 1-1s1 0.448 1 1v2c0 0.55-0.45 1-1 1z" fill="#000000"></path>
	<path d="M15.5 32.5c-0.55 0-1-0.45-1-1v-2c0-0.55 0.45-1 1-1s1 0.45 1 1v2c0 0.55-0.45 1-1 1z" fill="#000000"></path>
</svg>
