<?xml version="1.0" encoding="utf-8"?>
<!-- Generated by IcoMoon.io -->
<!DOCTYPE svg PUBLIC "-//W3C//DTD SVG 1.1//EN" "http://www.w3.org/Graphics/SVG/1.1/DTD/svg11.dtd">
<svg version="1.1" xmlns="http://www.w3.org/2000/svg" xmlns:xlink="http://www.w3.org/1999/xlink" width="48" height="48" viewBox="0 0 48 48">
<g id="icomoon-ignore">
	<line stroke-width="1" x1="" y1="" x2="" y2="" stroke="#449FDB" opacity=""></line>
</g>
	<path d="M24 47.5c-0.43 0-0.812-0.276-0.948-0.684l-7.334-22c-0.102-0.304-0.050-0.64 0.136-0.902 0.188-0.26 0.49-0.416 0.812-0.416h14.666c0.322 0 0.626 0.154 0.812 0.416 0.188 0.26 0.238 0.596 0.136 0.902l-7.334 22c-0.134 0.408-0.516 0.684-0.946 0.684zM18.054 25.5l5.946 17.838 5.946-17.838h-11.892z" fill="#000000"></path>
	<path d="M16.026 9.87c-0.026 0-0.052 0-0.080-0.002-0.55-0.042-0.962-0.524-0.918-1.076 0.362-4.65 4.304-8.292 8.972-8.292 4.632 0 8.48 3.47 8.954 8.072 0.054 0.548-0.346 1.040-0.894 1.096-0.55 0.040-1.042-0.344-1.098-0.894-0.366-3.578-3.36-6.276-6.96-6.276-3.632 0-6.698 2.832-6.978 6.448-0.044 0.526-0.482 0.924-0.998 0.924z" fill="#000000"></path>
	<path d="M28 25.5h-8c-4.878 0-9-4.35-9-9.5 0-5.014 4.122-9.25 9-9.25 3.048 0 5.836 1.436 7.46 3.842 0.308 0.458 0.19 1.080-0.27 1.388-0.458 0.308-1.078 0.188-1.386-0.27-1.27-1.882-3.386-2.962-5.804-2.962-3.794 0-7 3.32-7 7.25 0 3.996 3.272 7.5 7 7.5h8c3.728 0 7-3.504 7-7.5s-3.272-7.5-7-7.5c-0.55 0-1-0.448-1-1s0.45-1 1-1c4.878 0 9 4.35 9 9.5s-4.122 9.502-9 9.502z" fill="#000000"></path>
</svg>
