<?xml version="1.0" encoding="utf-8"?>
<!-- Generated by IcoMoon.io -->
<!DOCTYPE svg PUBLIC "-//W3C//DTD SVG 1.1//EN" "http://www.w3.org/Graphics/SVG/1.1/DTD/svg11.dtd">
<svg version="1.1" xmlns="http://www.w3.org/2000/svg" xmlns:xlink="http://www.w3.org/1999/xlink" width="48" height="48" viewBox="0 0 48 48">
<g id="icomoon-ignore">
	<line stroke-width="1" x1="" y1="" x2="" y2="" stroke="#449FDB" opacity=""></line>
</g>
	<path d="M21 46.792c-0.552 0-1-0.45-1-1v-40c0-0.552 0.448-1 1-1s1 0.448 1 1v40c0 0.552-0.448 1-1 1z" fill="#000000"></path>
	<path d="M27 22.792c-0.55 0-1-0.448-1-1v-16.792c0-0.886-1.010-1.792-2-1.792-0.944 0-2 0.696-2 1.626v4.958c0 0.552-0.448 1-1 1s-1-0.448-1-1v-4.958c0-2.168 2.068-3.626 4-3.626 2.094 0 4 1.806 4 3.792v16.792c0 0.552-0.45 1-1 1z" fill="#000000"></path>
	<path d="M24 26.792c-1.932 0-4-1.458-4-3.626 0-0.552 0.448-1 1-1s1 0.448 1 1c0 0.93 1.056 1.626 2 1.626 0.99 0 2-0.904 2-1.792v-3.208c0-0.552 0.45-1 1-1s1 0.448 1 1v3.208c0 1.986-1.906 3.792-4 3.792z" fill="#000000"></path>
</svg>
