<?xml version="1.0" encoding="utf-8"?>
<!-- Generated by IcoMoon.io -->
<!DOCTYPE svg PUBLIC "-//W3C//DTD SVG 1.1//EN" "http://www.w3.org/Graphics/SVG/1.1/DTD/svg11.dtd">
<svg version="1.1" xmlns="http://www.w3.org/2000/svg" xmlns:xlink="http://www.w3.org/1999/xlink" width="48" height="48" viewBox="0 0 48 48">
<g id="icomoon-ignore">
	<line stroke-width="1" x1="" y1="" x2="" y2="" stroke="#449FDB" opacity=""></line>
</g>
	<path d="M24 32c-8.822 0-16-7.178-16-16s7.178-16 16-16 16 7.178 16 16-7.178 16-16 16zM24 2c-7.72 0-14 6.28-14 14s6.28 14 14 14c7.718 0 14-6.28 14-14s-6.282-14-14-14z" fill="#000000"></path>
	<path d="M24 28c-6.618 0-12-5.382-12-12s5.382-12 12-12c6.618 0 12 5.382 12 12s-5.382 12-12 12zM24 6c-5.514 0-10 4.486-10 10s4.486 10 10 10 10-4.486 10-10-4.486-10-10-10z" fill="#000000"></path>
	<path d="M24 24c-4.412 0-8-3.588-8-8s3.588-8 8-8 8 3.588 8 8-3.588 8-8 8zM24 10c-3.308 0-6 2.692-6 6s2.692 6 6 6c3.308 0 6-2.692 6-6s-2.692-6-6-6z" fill="#000000"></path>
	<path d="M24 48c-0.552 0-1-0.45-1-1v-16c0-0.55 0.448-1 1-1s1 0.45 1 1v16c0 0.55-0.448 1-1 1z" fill="#000000"></path>
</svg>
