<?xml version="1.0" encoding="utf-8"?>
<!-- Generated by IcoMoon.io -->
<!DOCTYPE svg PUBLIC "-//W3C//DTD SVG 1.1//EN" "http://www.w3.org/Graphics/SVG/1.1/DTD/svg11.dtd">
<svg version="1.1" xmlns="http://www.w3.org/2000/svg" xmlns:xlink="http://www.w3.org/1999/xlink" width="48" height="48" viewBox="0 0 48 48">
<g id="icomoon-ignore">
	<line stroke-width="1" x1="" y1="" x2="" y2="" stroke="#449FDB" opacity=""></line>
</g>
	<path d="M24 25c-6.618 0-12-5.382-12-12s5.382-12 12-12c6.618 0 12 5.382 12 12s-5.382 12-12 12zM24 3c-5.514 0-10 4.486-10 10s4.486 10 10 10 10-4.486 10-10-4.486-10-10-10z" fill="#000000"></path>
	<path d="M24 47c-0.552 0-1-0.45-1-1v-22c0-0.552 0.448-1 1-1s1 0.448 1 1v22c0 0.55-0.448 1-1 1z" fill="#000000"></path>
	<path d="M37 16h-26c-0.552 0-1-0.448-1-1s0.448-1 1-1h26c0.55 0 1 0.448 1 1s-0.45 1-1 1z" fill="#000000"></path>
</svg>
