<?xml version="1.0" encoding="utf-8"?>
<!-- Generated by IcoMoon.io -->
<!DOCTYPE svg PUBLIC "-//W3C//DTD SVG 1.1//EN" "http://www.w3.org/Graphics/SVG/1.1/DTD/svg11.dtd">
<svg version="1.1" xmlns="http://www.w3.org/2000/svg" xmlns:xlink="http://www.w3.org/1999/xlink" width="48" height="48" viewBox="0 0 48 48">
<g id="icomoon-ignore">
	<line stroke-width="1" x1="" y1="" x2="" y2="" stroke="#449FDB" opacity=""></line>
</g>
	<path d="M7.438 47.448c-0.102 0-0.206-0.016-0.306-0.048-0.414-0.132-0.694-0.518-0.694-0.952v-4.812c0-0.376 0.214-0.724 0.552-0.894 2.090-1.042 3.674-1.058 4.948-1.072 1.282-0.012 1.922-0.018 2.69-0.97 3.438-4.27 5.178-9.562 5.178-15.732 0-9.47-4.626-14.466-6.706-16.23-1.924-1.068-2.304-2.696-2.010-3.874 0.37-1.486 1.796-2.502 3.306-2.28 1.64 0.258 16.038 3.058 16.038 22.136 0 18.402-11.334 25.032-20.016 22.186-0.558 0.25-1.536 1.252-2.168 2.126-0.192 0.264-0.498 0.416-0.812 0.416zM8.438 42.276v1.584c0.578-0.492 1.23-0.896 1.874-0.988 0.16-0.022 0.324-0.006 0.474 0.048 7.606 2.698 17.648-3.318 17.648-20.202 0-17.052-11.95-19.786-14.346-20.16-0.46-0.022-0.944 0.332-1.056 0.786-0.152 0.612 0.25 1.222 1.104 1.676 0.060 0.034 0.12 0.072 0.172 0.118 2.254 1.886 7.496 7.398 7.496 17.826 0 6.636-1.89 12.352-5.62 16.986-1.362 1.69-2.82 1.706-4.228 1.718-0.996 0.010-2.108 0.020-3.518 0.608z" fill="#000000"></path>
	<path d="M14.896 45.532c-0.15 0-0.302-0.036-0.448-0.106-0.678-0.338-1.164-0.92-1.402-1.686-0.452-1.42 0.038-3.146 0.474-3.962 0.262-0.486 0.868-0.668 1.354-0.408 0.486 0.262 0.668 0.868 0.408 1.354-0.282 0.524-0.56 1.686-0.332 2.412 0.102 0.318 0.264 0.434 0.392 0.5 0.494 0.248 0.694 0.848 0.448 1.342-0.174 0.35-0.526 0.554-0.894 0.554z" fill="#000000"></path>
	<path d="M25.194 24.054c-1.9 0-3.734-0.438-4.974-1.294-0.658-0.456-3.772-0.554-5.828-0.624-4.204-0.136-6.74-0.218-7-1.856-0.036-0.214 0.002-0.432 0.102-0.626 1.59-3.030 8.952-5 12.546-4 0.534 0.148 0.846 0.702 0.698 1.232s-0.708 0.842-1.232 0.696c-2.594-0.716-7.66 0.578-9.608 2.252 1.104 0.192 3.114 0.254 4.554 0.302 3.584 0.116 5.834 0.238 6.9 0.974 1.528 1.052 5.046 1.38 7.658 0.168 0.5-0.234 1.096-0.014 1.328 0.484 0.234 0.5 0.016 1.094-0.484 1.326-1.384 0.648-3.046 0.966-4.66 0.966z" fill="#000000"></path>
	<path d="M29.434 23.186c-0.318 0-0.628-0.15-0.824-0.432-0.312-0.458-0.2-1.078 0.254-1.392 1.030-0.71 2.834-0.674 4.926-0.63 1.944 0.042 4.514 0.092 5.532-0.696-1.752-1.902-7.732-4.172-10.408-3.422-0.53 0.142-1.084-0.164-1.232-0.698-0.148-0.532 0.164-1.084 0.696-1.23 3.68-1.024 11.498 1.914 13.072 4.91 0.146 0.28 0.152 0.614 0.018 0.896-1.14 2.376-4.632 2.298-7.714 2.24-1.45-0.030-3.25-0.066-3.748 0.276-0.178 0.12-0.376 0.178-0.572 0.178z" fill="#000000"></path>
</svg>
