<?xml version="1.0" encoding="utf-8"?>
<!-- Generated by IcoMoon.io -->
<!DOCTYPE svg PUBLIC "-//W3C//DTD SVG 1.1//EN" "http://www.w3.org/Graphics/SVG/1.1/DTD/svg11.dtd">
<svg version="1.1" xmlns="http://www.w3.org/2000/svg" xmlns:xlink="http://www.w3.org/1999/xlink" width="48" height="48" viewBox="0 0 48 48">
<g id="icomoon-ignore">
	<line stroke-width="1" x1="" y1="" x2="" y2="" stroke="#449FDB" opacity=""></line>
</g>
	<path d="M23.416 45.614c-12.158 0-22.416-13.77-22.416-22.42 0-0.552 0.45-1 1-1h42.834c0.552 0 1 0.448 1 1 0 8.65-10.258 22.42-22.418 22.42zM3.048 24.194c0.728 7.892 9.754 19.418 20.37 19.418 10.618 0 19.64-11.528 20.372-19.418h-40.742z" fill="#000000"></path>
	<path d="M30 46.196h-14c-0.55 0-1-0.45-1-1 0-0.552 0.45-1 1-1h14c0.552 0 1 0.448 1 1 0 0.55-0.448 1-1 1z" fill="#000000"></path>
	<path d="M18.494 18.078c-0.256 0-0.512-0.098-0.708-0.292-1.626-1.628-0.89-3.834-0.242-5.782 0.618-1.856 0.944-3.034 0.242-3.736-0.39-0.39-0.39-1.024 0-1.414 0.388-0.39 1.024-0.39 1.414 0 1.626 1.628 0.888 3.834 0.242 5.782-0.62 1.856-0.946 3.034-0.242 3.736 0.388 0.39 0.388 1.024 0 1.414-0.196 0.196-0.45 0.292-0.706 0.292z" fill="#000000"></path>
	<path d="M23.25 18.078c-0.256 0-0.512-0.098-0.708-0.292-1.568-1.57-0.942-4.712-0.276-8.042 0.482-2.416 1.084-5.42 0.276-6.232-0.39-0.39-0.39-1.024 0-1.414 0.388-0.39 1.024-0.39 1.414 0 1.568 1.568 0.938 4.71 0.274 8.038-0.484 2.416-1.084 5.424-0.274 6.236 0.388 0.39 0.388 1.024 0 1.414-0.194 0.196-0.45 0.292-0.706 0.292z" fill="#000000"></path>
	<path d="M28.008 18.078c-0.256 0-0.512-0.098-0.708-0.292-1.626-1.628-0.892-3.834-0.242-5.782 0.62-1.856 0.944-3.034 0.242-3.736-0.39-0.39-0.39-1.024 0-1.414s1.024-0.39 1.414 0c1.626 1.628 0.888 3.834 0.242 5.782-0.62 1.856-0.946 3.034-0.242 3.736 0.388 0.39 0.388 1.024 0 1.414-0.194 0.196-0.45 0.292-0.706 0.292z" fill="#000000"></path>
	<path d="M36 23.194c-0.256 0-0.512-0.098-0.708-0.292-0.39-0.39-0.39-1.024 0-1.414l10-10c0.388-0.39 1.024-0.39 1.414 0 0.388 0.39 0.388 1.024 0 1.414l-10 10c-0.194 0.194-0.45 0.292-0.706 0.292z" fill="#000000"></path>
</svg>
