<?xml version="1.0" encoding="utf-8"?>
<!-- Generated by IcoMoon.io -->
<!DOCTYPE svg PUBLIC "-//W3C//DTD SVG 1.1//EN" "http://www.w3.org/Graphics/SVG/1.1/DTD/svg11.dtd">
<svg version="1.1" xmlns="http://www.w3.org/2000/svg" xmlns:xlink="http://www.w3.org/1999/xlink" width="48" height="48" viewBox="0 0 48 48">
<g id="icomoon-ignore">
	<line stroke-width="1" x1="" y1="" x2="" y2="" stroke="#449FDB" opacity=""></line>
</g>
	<path d="M35.852 12.848c-0.598 0.344-1.41 0.646-2.398 0.898 4.504 2.384 7.584 7.114 7.584 12.556 0 8.414-1.72 16.202-14.202 16.202-13.102 0-14.2-8.004-14.2-16.202 0-5.442 3.080-10.172 7.584-12.556-0.99-0.248-1.802-0.554-2.398-0.898-4.332 2.91-7.186 7.854-7.186 13.454 0 5.908 0 18.202 16.2 18.202 14.36 0 16.202-9.726 16.202-18.202 0-5.598-2.856-10.544-7.186-13.454z" fill="#000000"></path>
	<path d="M26.836 15.48c-4.132 0-11.13-0.834-11.13-3.958s6.998-3.958 11.13-3.958c4.136 0 11.134 0.834 11.134 3.958 0 3.126-6.998 3.958-11.134 3.958zM26.836 9.568c-5.956 0-8.948 1.418-9.134 1.984 0.188 0.51 3.184 1.928 9.134 1.928 5.954 0 8.95-1.418 9.136-1.982-0.186-0.51-3.18-1.93-9.136-1.93z" fill="#000000"></path>
	<path d="M26.836 9.568c-1.948 0-3.534-1.584-3.534-3.534s1.584-3.534 3.534-3.534c1.952 0 3.536 1.584 3.536 3.534s-1.586 3.534-3.536 3.534zM26.836 4.5c-0.846 0-1.534 0.688-1.534 1.534s0.688 1.534 1.534 1.534c0.848 0 1.536-0.688 1.536-1.534s-0.688-1.534-1.536-1.534z" fill="#000000"></path>
	<path d="M44.57 22.236c-1.948 0-3.534-1.586-3.534-3.536 0-1.948 1.584-3.532 3.534-3.532 1.952 0 3.536 1.584 3.536 3.532-0.002 1.95-1.586 3.536-3.536 3.536zM44.57 17.168c-0.846 0-1.534 0.686-1.534 1.532s0.688 1.536 1.534 1.536 1.536-0.688 1.536-1.536c-0.002-0.846-0.692-1.532-1.536-1.532z" fill="#000000"></path>
	<path d="M34.24 45.5h-16c-0.55 0-1-0.448-1-1 0-0.55 0.45-1 1-1h16c0.552 0 1 0.45 1 1 0 0.552-0.448 1-1 1z" fill="#000000"></path>
	<path d="M11.636 26.402c0-3.238 1.020-6.282 2.746-8.75l-8.48-6.492c-1.356-1.356-3.328-1.368-4.68-0.012-1.326 1.326-1.942 3.52-0.498 4.968l10.184 10.972c0.192 0.204 0.458 0.414 0.73 0.414 0.004 0 0.008 0 0.012 0-0.006-0.002-0.014-0.768-0.014-1.1zM11.218 24.394l-9.058-9.674c-0.522-0.522-0.162-1.536 0.474-2.17 0.206-0.206 0.532-0.45 0.926-0.45s0.72 0.244 1.026 0.542l8.408 6.424-1.776 5.328z" fill="#000000"></path>
</svg>
