<svg width="198" height="157" viewBox="0 0 198 157" fill="none" xmlns="http://www.w3.org/2000/svg">
<g clip-path="url(#clip0)">
<path fill-rule="evenodd" clip-rule="evenodd" d="M40.9821 0.333008C29.7237 0.333008 21.3932 10.1339 21.7661 20.763C22.1239 30.9746 21.659 44.1999 18.3114 54.9853C14.9538 65.8023 9.27528 72.6545 0 73.5343V83.4665C9.27528 84.3463 14.9538 91.1984 18.3114 102.015C21.659 112.801 22.1239 126.026 21.7661 136.238C21.3932 146.865 29.7237 156.668 40.9838 156.668H156.344C167.602 156.668 175.931 146.867 175.558 136.238C175.2 126.026 175.665 112.801 179.013 102.015C182.372 91.1984 188.036 84.3463 197.311 83.4665V73.5343C188.036 72.6545 182.372 65.8023 179.013 54.9853C175.665 44.2015 175.2 30.9746 175.558 20.763C175.931 10.1355 167.602 0.333008 156.344 0.333008H40.9804H40.9821ZM133.77 96.567C133.77 111.203 122.794 120.079 104.58 120.079H73.5735C72.6866 120.079 71.8359 119.728 71.2088 119.105C70.5816 118.481 70.2293 117.635 70.2293 116.753V40.2483C70.2293 39.3661 70.5816 38.52 71.2088 37.8962C71.8359 37.2724 72.6866 36.922 73.5735 36.922H104.402C119.59 36.922 129.558 45.1046 129.558 57.6679C129.558 66.4859 122.853 74.3808 114.31 75.7629V76.2236C125.939 77.4925 133.77 85.5022 133.77 96.567ZM101.199 47.4663H83.5193V72.3035H98.4096C109.921 72.3035 116.268 67.6933 116.268 59.4525C116.268 51.7306 110.81 47.4663 101.199 47.4663V47.4663ZM83.5193 82.1593V109.531H101.849C113.833 109.531 120.182 104.748 120.182 95.7587C120.182 86.7678 113.656 82.1576 101.078 82.1576H83.5193V82.1593Z" fill="#7952B3"/>
</g>
<defs>
<clipPath id="clip0">
<rect width="197.311" height="157" fill="white"/>
</clipPath>
</defs>
</svg>
