<svg width="244" height="157" viewBox="0 0 244 157" fill="none" xmlns="http://www.w3.org/2000/svg">
<g clip-path="url(#clip0)">
<path d="M209.307 90.1937C200.841 90.235 193.51 91.9927 187.362 94.6098C185.091 90.7257 182.821 87.3318 182.443 84.7973C182.018 81.8535 181.498 80.0542 182.018 76.5384C182.538 73.0219 184.902 68.0338 184.902 67.625C184.855 67.257 184.382 65.4581 179.511 65.4172C174.64 65.3763 170.43 66.2349 169.957 67.3388C169.484 68.4427 168.538 70.9776 167.923 73.5943C167.072 77.4375 158.18 91.0523 153.12 98.2073C151.464 95.4271 150.046 92.9739 149.761 91.011C149.336 88.0677 148.815 86.2683 149.336 82.7526C149.856 79.236 152.221 74.2484 152.221 73.8396C152.174 73.4716 151.701 71.6726 146.83 71.6318C141.958 71.5909 137.749 72.4495 137.276 73.5534C136.803 74.6573 136.283 77.2739 135.243 79.8088C134.249 82.3437 122.425 105.076 119.351 111.004C117.79 114.03 116.419 116.442 115.425 118.078C114.432 119.713 115.378 118.2 115.283 118.364C114.432 119.754 113.959 120.531 113.959 120.531V120.572C113.297 121.594 112.588 122.575 112.256 122.575C112.02 122.575 111.547 119.836 112.351 116.075C114.101 108.183 118.357 95.8772 118.31 95.4275C118.31 95.2231 119.114 93.0557 115.567 91.9522C112.114 90.8483 110.885 92.6882 110.601 92.6882C110.317 92.6882 110.08 93.3423 110.08 93.3423C110.08 93.3423 113.911 79.4826 102.75 79.4826C95.75 79.4826 86.1017 86.0651 81.3249 92.0753C78.2979 93.5063 71.8658 96.5314 65.0552 99.7617C62.454 100.988 59.7581 102.297 57.2042 103.482L56.6844 102.991C43.1579 90.5208 18.1386 81.6896 19.1791 64.9266C19.5575 58.8346 22.0169 42.7667 67.2318 23.3052C104.264 7.35988 133.918 11.7346 139.073 21.4653C146.404 35.3664 123.229 61.206 84.7311 64.9266C70.0695 66.3575 62.3599 61.4513 60.4212 59.6114C58.3875 57.6898 58.1037 57.6081 57.347 57.976C56.1173 58.5484 56.8741 60.2656 57.347 61.2877C58.4821 63.8635 63.2117 68.4427 71.2519 70.7323C78.2984 72.7357 95.5144 73.8396 116.324 66.8891C139.641 59.0799 157.85 37.4107 152.505 19.2984C147.066 0.859098 111.689 -5.19195 78.2516 5.0703C58.3398 11.2031 36.773 20.7703 21.2601 33.3221C2.81493 48.2044 -0.117387 61.206 1.11229 66.6028C5.41665 85.8599 36.1109 98.4117 48.4077 107.693C47.7929 107.978 47.2253 108.265 46.7051 108.51C40.5567 111.127 17.1454 121.716 11.2808 132.919C4.65945 145.593 12.3213 154.711 17.4292 155.938C33.2259 159.74 49.4009 152.912 58.1506 141.668C66.8525 130.425 65.8124 115.829 61.7923 109.165L61.65 108.919L66.4741 106.466C69.5961 104.872 72.6703 103.4 75.3656 102.132C73.8527 105.689 72.7644 109.9 72.1973 116.033C71.5352 123.229 74.9404 132.551 79.4335 136.23C81.4199 137.824 83.7847 137.866 85.2508 137.866C90.4533 137.866 92.8181 134.145 95.4194 129.689C98.6355 124.251 101.473 117.955 101.473 117.955C101.473 117.955 97.926 135.004 107.622 135.004C111.169 135.004 114.716 131.038 116.324 128.994V129.034C116.324 129.034 116.419 128.912 116.608 128.626C116.806 128.372 116.995 128.113 117.175 127.849V127.767C118.594 125.641 121.763 120.776 126.492 112.722C132.593 102.337 138.458 89.3351 138.458 89.3351C138.458 89.3351 139.026 92.5242 140.776 97.7575C141.816 100.865 144.086 104.258 145.836 107.57C144.417 109.287 143.566 110.269 143.566 110.269L143.613 110.31C142.478 111.618 141.201 113.009 139.877 114.398C135.053 119.386 129.283 125.07 128.526 126.705C127.628 128.626 127.817 130.057 129.567 131.203C130.844 132.02 133.114 132.183 135.526 132.02C139.877 131.775 142.904 130.835 144.417 130.262C146.782 129.526 149.478 128.422 152.079 126.787C156.809 123.762 159.694 119.469 159.41 113.745C159.268 110.596 158.086 107.489 156.62 104.545C157.045 104.014 157.471 103.482 157.897 102.91C165.369 93.465 171.139 83.0805 171.139 83.0805C171.139 83.0805 171.707 86.2696 173.457 91.5029C174.355 94.1604 176.153 97.0637 177.761 99.9257C170.761 104.873 166.362 110.597 164.849 114.358C162.059 121.309 164.234 124.457 168.349 125.193C170.193 125.52 172.842 124.784 174.828 124.048C177.287 123.353 180.267 122.167 183.01 120.409C187.74 117.384 192.28 113.173 192.044 107.49C191.902 104.873 191.098 102.297 190.01 99.8439C195.969 97.7179 203.678 96.4913 213.469 97.5135C234.515 99.6395 238.677 111.006 237.874 115.748C237.07 120.491 232.671 123.108 231.205 123.925C229.738 124.702 229.265 124.989 229.407 125.561C229.596 126.42 230.259 126.379 231.536 126.215C233.286 125.97 242.603 122.331 242.981 113.582C243.549 102.337 231.205 90.0715 209.307 90.1937V90.1937ZM46.9889 137.498C40.0364 144.081 30.2463 146.575 26.0843 144.449C21.5912 142.2 23.3407 132.51 31.9016 125.519C37.1041 121.267 43.8674 117.342 48.3131 114.929C49.3063 114.398 50.8198 113.622 52.617 112.681C52.9008 112.518 53.09 112.435 53.09 112.435C53.421 112.272 53.7994 112.067 54.1778 111.863C57.3465 121.839 54.3196 130.589 46.9889 137.498V137.498ZM97.8314 107.611C95.4194 112.722 90.3115 125.846 87.2373 125.11C84.5882 124.497 82.9807 114.561 86.7165 104.749C88.6084 99.8014 92.6285 93.9143 94.9932 91.6243C98.8246 87.9446 102.986 86.7181 104.027 88.2308C105.257 90.1937 99.3449 104.422 97.8314 107.611ZM139.782 124.946C138.742 125.397 137.796 125.723 137.37 125.478C137.039 125.315 137.796 124.701 137.796 124.701C137.796 124.701 143.045 119.836 145.126 117.587C146.309 116.279 147.728 114.767 149.241 113.049V113.54C149.242 119.427 142.715 123.352 139.782 124.946ZM172.132 118.568C171.375 118.078 171.47 116.565 174.024 111.822C175.018 109.941 177.287 106.793 181.213 103.809C181.686 105.035 181.97 106.22 181.922 107.325C181.875 114.684 175.822 117.423 172.132 118.568Z" fill="#CF649A"/>
</g>
<defs>
<clipPath id="clip0">
<rect width="242.153" height="157" fill="white" transform="translate(0.923584)"/>
</clipPath>
</defs>
</svg>
