<svg width="1502" height="273" viewBox="0 0 1502 273" fill="none" xmlns="http://www.w3.org/2000/svg">
<g clip-path="url(#clip0)">
<path d="M161.234 71.7405H151.679L161.617 80.9728V85.3636H141.142V80.2215H151.081L141.142 70.9892V66.5928H161.24L161.234 71.7405ZM137.077 71.7405H127.509L137.461 80.9728V85.3636H116.979V80.2215H126.917L116.979 70.9892V66.5928H137.077V71.7405ZM113.154 71.9519H102.845V80.01H113.154V85.3691H95.5085V66.5928H113.154V71.9519Z" fill="#131313"/>
<path d="M81.4529 194.538L70.968 93.9391H186.158L175.66 194.521L128.491 205.707L81.4529 194.538Z" fill="#1572B6"/>
<path d="M128.563 197.159L166.678 188.116L175.64 102.164H128.563V197.159Z" fill="#33A9DC"/>
<path d="M128.563 138.61H147.646L148.96 125.977H128.563V113.645H164.726L164.382 116.956L160.837 150.958H128.563V138.61Z" fill="white"/>
<path d="M128.641 170.653H128.576L112.517 166.941L111.489 157.102H97.0239L99.0467 176.474L128.589 183.508H128.673V170.653H128.641Z" fill="#EBEBEB"/>
<path d="M146.424 150.418L144.687 166.93L128.602 170.641V183.497L158.164 176.485L158.378 174.398L160.889 150.413H146.424V150.418Z" fill="white"/>
<path d="M128.615 113.645V125.983H93.7912L93.4921 123.211L92.8352 116.956L92.4905 113.645H128.615ZM128.563 138.61V150.947H112.686L112.406 148.176L111.749 141.921L111.405 138.61H128.556H128.563Z" fill="#EBEBEB"/>
</g>
<g clip-path="url(#clip1)">
<path fill-rule="evenodd" clip-rule="evenodd" d="M322.703 66.7969C312.663 66.7969 305.235 75.5366 305.567 85.0148C305.887 94.1206 305.472 105.914 302.487 115.531C299.493 125.177 294.429 131.287 286.158 132.072V140.929C294.429 141.713 299.493 147.823 302.487 157.469C305.472 167.087 305.887 178.88 305.567 187.986C305.235 197.462 312.663 206.204 322.704 206.204H425.573C435.612 206.204 443.039 197.464 442.707 187.986C442.388 178.88 442.802 167.087 445.788 157.469C448.783 147.823 453.834 141.713 462.104 140.929V132.072C453.834 131.287 448.783 125.177 445.788 115.531C442.802 105.915 442.388 94.1206 442.707 85.0148C443.039 75.538 435.612 66.7969 425.573 66.7969H322.701H322.703ZM405.444 152.611C405.444 165.662 395.656 173.577 379.414 173.577H351.765C350.974 173.577 350.216 173.264 349.656 172.708C349.097 172.152 348.783 171.397 348.783 170.611V102.39C348.783 101.604 349.097 100.849 349.656 100.293C350.216 99.7365 350.974 99.4241 351.765 99.4241H379.256C392.799 99.4241 401.688 106.721 401.688 117.924C401.688 125.787 395.709 132.827 388.091 134.059V134.47C398.46 135.602 405.444 142.744 405.444 152.611ZM376.399 108.827H360.634V130.974H373.912C384.177 130.974 389.837 126.863 389.837 119.515C389.837 112.629 384.97 108.827 376.399 108.827ZM360.634 139.763V164.171H376.979C387.665 164.171 393.327 159.906 393.327 151.89C393.327 143.873 387.508 139.762 376.291 139.762H360.634V139.763Z" fill="#7952B3"/>
</g>
<g clip-path="url(#clip2)">
<path d="M618.698 201.994L620.238 179.768L624.49 173.48C624.49 173.48 614.813 176.91 598.61 176.91C582.408 176.91 572.877 173.544 572.877 173.544L577.642 180.402L579.328 201.994C579.328 204.309 588.141 206.185 599.013 206.185C609.885 206.185 618.698 204.309 618.698 201.994ZM613.841 98.2005L617.073 87.1341L634.973 70.8199L630.255 67.3394L611.304 84.718L607.552 97.9395C604.727 97.8575 601.901 97.8168 599.075 97.8174C579.117 97.8174 562.937 99.7876 562.937 102.217C562.937 104.647 579.117 106.617 599.075 106.617C619.033 106.617 635.212 104.647 635.212 102.217C635.212 100.428 626.437 98.888 613.841 98.2005Z" fill="#D34A47"/>
<path d="M611.961 104.398C611.961 104.398 611.261 104.534 609.201 104.542C607.142 104.549 605.679 104.53 605.096 104.07C604.94 103.947 604.854 103.702 604.855 103.536C604.857 103.22 605.115 103.034 605.445 102.918L605.757 103.341C605.621 103.382 605.544 103.43 605.544 103.481C605.543 103.721 607.65 103.885 609.261 103.867C610.873 103.85 612.821 103.735 612.823 103.499C612.823 103.427 612.676 103.36 612.419 103.307L612.73 102.886C613.147 102.998 613.512 103.215 613.511 103.591C613.507 104.229 612.569 104.327 611.961 104.398Z" fill="white"/>
<path d="M634.937 70.8522C635.387 70.4019 634.704 69.2502 633.412 68.28C632.119 67.3104 630.706 66.8891 630.255 67.3394C629.804 67.7897 630.488 68.9414 631.781 69.9111C633.073 70.8809 634.487 71.3027 634.937 70.8522ZM617.837 147.704C617.413 144.169 626.765 139.049 624.365 138.885C619.198 139.141 616.627 144.129 614.027 149.354C613.075 151.269 609.815 159.434 607.677 158.429C605.54 157.425 610.448 150.71 611.824 146.722C610.237 147.731 604.415 151.648 602.915 147.979C600.503 149.754 595.349 150.715 595.931 146.054C594.648 148.023 591.768 150.771 588.311 149.629C583.771 148.13 590.941 135.604 592.724 136.236C594.507 136.868 592.364 139.721 591.803 140.829C590.569 143.268 589.143 146.333 590.096 146.96C591.727 148.036 596.168 142.893 596.267 142.78C597.097 141.83 599.464 135.612 601.371 136.326C603.278 137.04 596.614 145.25 599.106 146.879C599.608 147.208 601.664 146.676 602.915 145.504C603.724 144.746 603.446 143.067 606.144 137.494C608.841 131.922 611.246 124.983 613.096 125.511C614.946 126.04 613.421 129.601 612.757 130.929C609.643 137.161 604.257 147.456 606.797 146.676C609.337 145.897 610.659 145.852 613.146 143.33C615.634 140.81 615.519 136.657 617.177 136.745C618.835 136.834 618.557 138.165 618.154 139.179C619.786 137.562 625.889 134.156 627.362 137.529C629.107 141.523 618.631 147.292 621.243 146.997C623.79 146.711 627.915 144.447 629.677 142.389L634.526 104.63C634.526 104.63 629.647 108.128 598.605 108.128C567.564 108.128 563.189 104.703 563.189 104.703L567.318 139.168C569.509 133.774 574.712 122.863 582.914 123.229C586.644 123.396 591.625 129.618 587.359 129.829C585.553 129.918 585.37 126.723 583.231 126.254C581.688 125.915 579.54 127.002 578.151 128.179C575.382 130.526 569.427 139.787 570.214 144.404C571.217 150.291 579.592 142.359 581.009 140.004C582.007 138.345 582.681 133.431 584.864 133.946C587.047 134.462 584.673 139.534 583.091 144.018C581.314 149.054 580.379 154.365 578.151 153.754C575.923 153.144 579.553 146.643 579.421 145.504C577.327 147.178 573.469 151.415 568.533 149.318L571.097 170.72C571.097 170.72 577.911 175.384 598.437 175.384C618.963 175.384 626.029 170.793 626.029 170.793L629.213 146.004C626.608 148.2 618.365 152.102 617.837 147.704Z" fill="#D34A47"/>
</g>
<g clip-path="url(#clip3)">
<path d="M745.927 195.249L735.377 94.0168H851.301L840.739 195.234L793.268 206.493L745.927 195.249Z" fill="#E44D26"/>
<path d="M793.339 197.887L831.698 188.789L840.724 102.294H793.339V197.887Z" fill="#F16529"/>
<path d="M793.339 139.84H774.135L772.809 127.126H793.339V114.71H756.948L757.296 118.041L760.863 152.256H793.339V139.84ZM793.339 172.085L793.275 172.1L777.113 168.366L776.079 158.464H761.511L763.545 177.959L793.272 185.019L793.339 185.003V172.085Z" fill="#EBEBEB"/>
<path d="M746.163 66.5063H753.537V72.74H760.284V66.5063H767.659V85.3836H760.284V79.0624H753.537V85.3836H746.163L746.163 66.5063ZM777.358 72.7665H770.865V66.5063H791.229V72.7665H784.734V85.3836H777.358V72.7665H777.358ZM794.461 66.5063H802.151L806.881 73.1394L811.608 66.5063H819.301V85.3836H811.955V76.0268L806.881 82.7387H806.754L801.677 76.0268V85.3836H794.46V66.5063H794.461ZM822.97 66.5063H830.347V79.144H840.719V85.3836H822.97V66.5063Z" fill="black"/>
<path d="M793.289 139.84V152.256H811.159L809.474 168.358L793.289 172.096V185.012L823.04 177.959L823.257 175.861L826.668 143.174L827.023 139.84H823.112H793.289ZM793.289 114.71V127.126H828.343L828.634 124.335L829.295 118.041L829.642 114.71H793.289Z" fill="white"/>
</g>
<g clip-path="url(#clip4)">
<path d="M951.805 67.2206H1113.07V206.334H951.805V67.2206Z" fill="#F7DF1E"/>
<path d="M994.208 183.474L1006.55 177.032C1008.93 180.673 1011.1 183.754 1016.29 183.754C1021.27 183.754 1024.41 182.074 1024.41 175.538V131.088H1039.56V175.722C1039.56 189.262 1030.36 195.426 1016.94 195.426C1004.82 195.426 997.78 190.01 994.207 183.474L994.208 183.474ZM1047.8 182.074L1060.14 175.911C1063.38 180.487 1067.61 183.848 1075.07 183.848C1081.35 183.848 1085.36 181.14 1085.36 177.404C1085.36 172.922 1081.25 171.334 1074.32 168.72L1070.53 167.319C1059.6 163.305 1052.34 158.261 1052.34 147.616C1052.34 137.811 1061 130.34 1074.53 130.34C1084.17 130.34 1091.1 133.235 1096.08 140.799L1084.28 147.336C1081.68 143.321 1078.86 141.734 1074.53 141.734C1070.1 141.734 1067.28 144.162 1067.28 147.336C1067.28 151.258 1070.1 152.846 1076.59 155.274L1080.38 156.675C1093.26 161.438 1100.51 166.293 1100.51 177.218C1100.51 188.985 1089.8 195.428 1075.4 195.428C1061.33 195.428 1052.23 189.638 1047.8 182.074" fill="black"/>
</g>
<g clip-path="url(#clip5)">
<path d="M1400.1 146.928C1392.55 146.964 1386.01 148.532 1380.53 150.865C1378.5 147.402 1376.48 144.376 1376.14 142.115C1375.76 139.49 1375.3 137.886 1375.76 134.751C1376.22 131.615 1378.33 127.167 1378.33 126.803C1378.29 126.474 1377.87 124.87 1373.53 124.834C1369.18 124.797 1365.43 125.563 1365.01 126.547C1364.58 127.532 1363.74 129.792 1363.19 132.126C1362.43 135.553 1354.5 147.693 1349.99 154.073C1348.52 151.594 1347.25 149.407 1347 147.656C1346.62 145.032 1346.15 143.427 1346.62 140.292C1347.08 137.156 1349.19 132.709 1349.19 132.344C1349.15 132.016 1348.73 130.412 1344.38 130.376C1340.04 130.339 1336.29 131.105 1335.86 132.089C1335.44 133.073 1334.98 135.407 1334.05 137.667C1333.16 139.928 1322.62 160.198 1319.88 165.484C1318.49 168.183 1317.27 170.334 1316.38 171.793C1315.49 173.25 1316.34 171.901 1316.25 172.048C1315.49 173.287 1315.07 173.98 1315.07 173.98V174.016C1314.48 174.928 1313.85 175.803 1313.55 175.803C1313.34 175.803 1312.92 173.36 1313.64 170.006C1315.2 162.969 1318.99 151.996 1318.95 151.595C1318.95 151.412 1319.67 149.48 1316.51 148.496C1313.43 147.511 1312.33 149.152 1312.08 149.152C1311.82 149.152 1311.61 149.735 1311.61 149.735C1311.61 149.735 1315.03 137.376 1305.08 137.376C1298.83 137.376 1290.23 143.246 1285.97 148.605C1283.27 149.881 1277.54 152.579 1271.46 155.46C1269.14 156.553 1266.74 157.72 1264.46 158.777L1264 158.339C1251.94 147.219 1229.63 139.344 1230.55 124.396C1230.89 118.964 1233.09 104.636 1273.4 87.2817C1306.43 73.063 1332.87 76.964 1337.47 85.6411C1344 98.0369 1323.34 121.079 1289.01 124.396C1275.93 125.672 1269.06 121.297 1267.33 119.657C1265.52 117.943 1265.26 117.87 1264.59 118.198C1263.49 118.709 1264.17 120.24 1264.59 121.151C1265.6 123.448 1269.82 127.532 1276.99 129.573C1283.27 131.36 1298.62 132.344 1317.18 126.146C1337.97 119.183 1354.21 99.8599 1349.44 83.7088C1344.59 67.2661 1313.05 61.8703 1283.23 71.0213C1265.47 76.4901 1246.24 85.0213 1232.41 96.214C1215.96 109.485 1213.35 121.079 1214.44 125.891C1218.28 143.063 1245.65 154.256 1256.62 162.532C1256.07 162.786 1255.56 163.042 1255.1 163.261C1249.62 165.594 1228.74 175.037 1223.51 185.027C1217.61 196.328 1224.44 204.459 1228.99 205.553C1243.08 208.943 1257.5 202.855 1265.31 192.828C1273.07 182.803 1272.14 169.787 1268.55 163.845L1268.43 163.625L1272.73 161.438C1275.51 160.016 1278.25 158.704 1280.66 157.573C1279.31 160.745 1278.34 164.5 1277.83 169.969C1277.24 176.386 1280.28 184.698 1284.28 187.979C1286.06 189.4 1288.16 189.438 1289.47 189.438C1294.11 189.438 1296.22 186.12 1298.54 182.146C1301.41 177.297 1303.94 171.683 1303.94 171.683C1303.94 171.683 1300.77 186.886 1309.42 186.886C1312.58 186.886 1315.75 183.349 1317.18 181.527V181.562C1317.18 181.562 1317.27 181.453 1317.43 181.198C1317.61 180.972 1317.78 180.741 1317.94 180.506V180.432C1319.2 178.537 1322.03 174.198 1326.25 167.016C1331.69 157.756 1336.92 146.162 1336.92 146.162C1336.92 146.162 1337.42 149.006 1338.98 153.672C1339.91 156.443 1341.94 159.469 1343.5 162.422C1342.23 163.953 1341.47 164.829 1341.47 164.829L1341.51 164.866C1340.5 166.032 1339.36 167.272 1338.18 168.511C1333.88 172.959 1328.74 178.027 1328.06 179.485C1327.26 181.198 1327.43 182.474 1328.99 183.496C1330.13 184.225 1332.15 184.37 1334.3 184.225C1338.18 184.006 1340.88 183.168 1342.23 182.657C1344.34 182.001 1346.74 181.016 1349.06 179.559C1353.28 176.861 1355.85 173.033 1355.6 167.929C1355.47 165.121 1354.42 162.35 1353.11 159.725C1353.49 159.251 1353.87 158.777 1354.25 158.267C1360.92 149.845 1366.06 140.585 1366.06 140.585C1366.06 140.585 1366.57 143.428 1368.13 148.095C1368.93 150.465 1370.53 153.054 1371.97 155.606C1365.72 160.017 1361.8 165.122 1360.45 168.475C1357.96 174.674 1359.9 177.481 1363.57 178.137C1365.22 178.429 1367.58 177.772 1369.35 177.116C1371.54 176.496 1374.2 175.439 1376.65 173.871C1380.86 171.174 1384.91 167.419 1384.7 162.351C1384.58 160.017 1383.86 157.72 1382.89 155.533C1388.2 153.637 1395.08 152.543 1403.81 153.455C1422.57 155.351 1426.29 165.486 1425.57 169.715C1424.85 173.944 1420.93 176.278 1419.62 177.006C1418.31 177.699 1417.89 177.955 1418.02 178.465C1418.19 179.231 1418.78 179.195 1419.92 179.048C1421.48 178.83 1429.79 175.585 1430.12 167.783C1430.63 157.756 1419.62 146.819 1400.1 146.928ZM1255.35 189.11C1249.15 194.98 1240.42 197.204 1236.71 195.308C1232.71 193.303 1234.27 184.662 1241.9 178.428C1246.54 174.636 1252.57 171.136 1256.53 168.984C1257.42 168.511 1258.77 167.819 1260.37 166.98C1260.62 166.835 1260.79 166.761 1260.79 166.761C1261.09 166.615 1261.43 166.432 1261.76 166.25C1264.59 175.146 1261.89 182.949 1255.35 189.11ZM1300.69 162.459C1298.54 167.016 1293.98 178.719 1291.24 178.063C1288.88 177.516 1287.45 168.656 1290.78 159.907C1292.47 155.495 1296.05 150.245 1298.16 148.203C1301.58 144.922 1305.29 143.828 1306.22 145.177C1307.31 146.928 1302.04 159.615 1300.69 162.459ZM1338.1 177.917C1337.17 178.319 1336.33 178.61 1335.95 178.391C1335.65 178.246 1336.33 177.698 1336.33 177.698C1336.33 177.698 1341.01 173.36 1342.86 171.355C1343.92 170.188 1345.18 168.84 1346.53 167.308V167.746C1346.53 172.995 1340.71 176.495 1338.1 177.917ZM1366.95 172.229C1366.27 171.793 1366.36 170.443 1368.63 166.214C1369.52 164.537 1371.54 161.729 1375.04 159.069C1375.47 160.162 1375.72 161.218 1375.68 162.204C1375.63 168.766 1370.24 171.208 1366.95 172.229Z" fill="#CF649A"/>
</g>
<defs>
<clipPath id="clip0">
<rect width="115.19" height="140" fill="white" transform="translate(70.968 66.5)"/>
</clipPath>
<clipPath id="clip1">
<rect width="176.561" height="140" fill="white" transform="translate(286.158 66.5)"/>
</clipPath>
<clipPath id="clip2">
<rect width="72.6582" height="140" fill="white" transform="translate(562.719 66.5)"/>
</clipPath>
<clipPath id="clip3">
<rect width="115.924" height="140" fill="white" transform="translate(735.377 66.5)"/>
</clipPath>
<clipPath id="clip4">
<rect width="162.152" height="140" fill="white" transform="translate(951.3 66.5)"/>
</clipPath>
<clipPath id="clip5">
<rect width="217.58" height="140" fill="white" transform="translate(1213.45 66.5)"/>
</clipPath>
</defs>
</svg>
